<svg xmlns="http://www.w3.org/2000/svg" xmlns:xlink="http://www.w3.org/1999/xlink" width="500" zoomAndPan="magnify" viewBox="0 0 375 374.999991" height="500" preserveAspectRatio="xMidYMid meet" version="1.0"><path fill="#caddff" d="M 18.667969 122.730469 C 10.738281 140.171875 0.0117188 176.808594 4.730469 218.339844 C 10.785156 271.625 39.746094 310.390625 68.902344 333.996094 C 165.65625 412.328125 342.773438 361.722656 366.230469 287.933594 C 370.484375 274.546875 369.285156 261.636719 367.8125 245.75 C 363.132812 195.21875 343.238281 176.488281 326.652344 122.835938 C 311.554688 74.011719 324.867188 71.070312 310.753906 49.367188 C 280.132812 2.277344 191.699219 -0.164062 130.886719 22.410156 C 107.527344 31.078125 47.695312 58.910156 18.667969 122.730469 " fill-opacity="1" fill-rule="nonzero"/><path fill="#caddff" d="M 169.988281 80.503906 C 169.988281 68.109375 164.910156 49.660156 140.449219 50.777344 C 141.824219 35.089844 128.441406 13.523438 99.277344 15.496094 C 85.199219 16.445312 82.3125 27.480469 80.785156 26.929688 C 61.152344 19.832031 37.199219 36.523438 42.535156 61.753906 C 31.628906 62.957031 22.585938 72.003906 22.839844 84.222656 C 23.003906 92.167969 27.519531 98.273438 34.84375 98.273438 L 153.523438 98.273438 C 162.375 98.273438 169.753906 90.691406 169.980469 81.09375 C 169.988281 80.898438 169.988281 80.699219 169.988281 80.503906 " fill-opacity="1" fill-rule="nonzero"/><path fill="#ffffff" d="M 173.433594 82.660156 C 173.433594 70.585938 166.269531 46.898438 142.320312 47.992188 C 137.121094 24.1875 126.128906 17.222656 106.5625 17.046875 C 87.457031 16.875 83.941406 30.859375 82.46875 30.253906 C 61.914062 21.804688 42.851562 40.921875 47.027344 63.113281 C 36.347656 64.285156 28.011719 74.019531 28.011719 85.855469 C 28.011719 85.90625 28.011719 85.960938 28.011719 86.015625 C 28.0625 93.75 33.9375 99.972656 41.109375 99.972656 L 157.3125 99.972656 C 165.980469 99.972656 173.203125 92.585938 173.425781 83.238281 C 173.429688 83.046875 173.433594 82.851562 173.433594 82.660156 " fill-opacity="1" fill-rule="nonzero"/><path fill="#5479f7" d="M 30.871094 75.039062 C 30.765625 75.039062 30.65625 75.015625 30.558594 74.960938 C 30.234375 74.789062 30.113281 74.386719 30.289062 74.066406 C 33.675781 67.777344 39.609375 63.511719 46.253906 62.542969 C 44.363281 51.222656 48.304688 40.0625 56.640625 33.285156 C 64.042969 27.265625 73.464844 25.910156 82.519531 29.558594 C 82.746094 29.332031 83.148438 28.742188 83.507812 28.214844 C 85.949219 24.636719 91.652344 16.261719 106.570312 16.382812 C 117.152344 16.480469 124.675781 18.628906 130.246094 23.144531 C 136.226562 27.992188 140.238281 35.679688 142.847656 47.308594 C 151.222656 47.058594 158.226562 49.757812 163.679688 55.347656 C 163.933594 55.613281 163.929688 56.027344 163.664062 56.285156 C 163.40625 56.539062 162.984375 56.535156 162.730469 56.269531 C 157.433594 50.839844 150.570312 48.28125 142.347656 48.652344 C 142.03125 48.667969 141.742188 48.445312 141.671875 48.132812 C 136.867188 26.140625 127.351562 17.898438 106.558594 17.710938 C 106.441406 17.707031 106.324219 17.707031 106.207031 17.707031 C 92.273438 17.707031 87.097656 25.300781 84.601562 28.960938 C 83.644531 30.363281 83.066406 31.210938 82.21875 30.867188 C 73.5625 27.308594 64.546875 28.5625 57.476562 34.308594 C 49.351562 40.921875 45.59375 51.910156 47.679688 62.988281 C 47.714844 63.171875 47.671875 63.359375 47.5625 63.503906 C 47.453125 63.652344 47.285156 63.75 47.101562 63.769531 C 40.605469 64.484375 34.757812 68.566406 31.457031 74.691406 C 31.335938 74.914062 31.105469 75.039062 30.871094 75.039062 " fill-opacity="1" fill-rule="nonzero"/><path fill="#5479f7" d="M 123.960938 100.636719 L 70.96875 100.636719 C 70.601562 100.636719 70.308594 100.339844 70.308594 99.972656 C 70.308594 99.609375 70.601562 99.3125 70.96875 99.3125 L 123.960938 99.3125 C 124.328125 99.3125 124.621094 99.609375 124.621094 99.972656 C 124.621094 100.339844 124.328125 100.636719 123.960938 100.636719 " fill-opacity="1" fill-rule="nonzero"/><path fill="#99b9ff" d="M 278.65625 85.601562 C 271.683594 85.886719 265.796875 80.472656 265.507812 73.503906 C 265.21875 66.535156 270.636719 60.652344 277.613281 60.363281 C 284.585938 60.074219 290.472656 65.488281 290.761719 72.460938 C 291.050781 79.429688 285.628906 85.3125 278.65625 85.601562 Z M 303.609375 74.382812 L 303.410156 69.480469 L 298.136719 68.519531 C 297.882812 67.390625 297.542969 66.300781 297.117188 65.257812 L 300.898438 61.464844 L 298.269531 57.324219 L 293.21875 59.125 C 292.449219 58.285156 291.605469 57.511719 290.707031 56.8125 L 292.085938 51.632812 L 287.738281 49.359375 L 284.269531 53.4375 C 283.191406 53.101562 282.074219 52.851562 280.929688 52.695312 L 279.535156 47.523438 L 274.628906 47.726562 L 273.667969 52.996094 C 272.539062 53.246094 271.449219 53.585938 270.402344 54.011719 L 266.609375 50.230469 L 262.464844 52.859375 L 264.269531 57.90625 C 263.429688 58.679688 262.65625 59.519531 261.953125 60.417969 L 256.773438 59.039062 L 254.496094 63.386719 L 258.574219 66.851562 C 258.238281 67.925781 257.988281 69.042969 257.835938 70.1875 L 252.65625 71.582031 L 252.863281 76.480469 L 258.132812 77.445312 C 258.386719 78.570312 258.726562 79.664062 259.152344 80.707031 L 255.371094 84.496094 L 257.996094 88.640625 L 263.050781 86.839844 C 263.820312 87.675781 264.664062 88.449219 265.5625 89.148438 L 264.179688 94.328125 L 268.53125 96.601562 L 271.996094 92.523438 C 273.078125 92.863281 274.191406 93.109375 275.335938 93.265625 L 276.730469 98.4375 L 281.636719 98.238281 L 282.597656 92.964844 C 283.726562 92.714844 284.820312 92.378906 285.867188 91.949219 L 289.65625 95.730469 L 293.804688 93.101562 L 292 88.058594 C 292.839844 87.285156 293.613281 86.445312 294.316406 85.546875 L 299.5 86.921875 L 301.773438 82.578125 L 297.691406 79.113281 C 298.03125 78.035156 298.277344 76.917969 298.433594 75.777344 L 303.609375 74.382812 " fill-opacity="1" fill-rule="nonzero"/><path fill="#5479f7" d="M 276.820312 59.6875 C 276.652344 59.6875 276.484375 59.691406 276.316406 59.699219 C 273.117188 59.832031 270.164062 61.199219 268 63.550781 C 265.832031 65.902344 264.710938 68.957031 264.84375 72.152344 C 264.976562 75.34375 266.34375 78.292969 268.695312 80.460938 C 271.050781 82.625 274.105469 83.746094 277.304688 83.613281 C 280.5 83.480469 283.457031 82.109375 285.621094 79.757812 C 287.785156 77.40625 288.90625 74.355469 288.777344 71.160156 C 288.644531 67.964844 287.273438 65.015625 284.921875 62.847656 C 282.691406 60.800781 279.832031 59.6875 276.820312 59.6875 Z M 276.796875 84.945312 C 273.453125 84.945312 270.277344 83.710938 267.800781 81.433594 C 265.1875 79.03125 263.667969 75.75 263.519531 72.203125 C 263.371094 68.65625 264.617188 65.265625 267.023438 62.652344 C 269.429688 60.042969 272.707031 58.523438 276.257812 58.375 C 279.8125 58.230469 283.203125 59.46875 285.816406 61.875 C 288.429688 64.28125 289.949219 67.558594 290.097656 71.105469 C 290.246094 74.652344 289.003906 78.042969 286.59375 80.65625 C 284.1875 83.269531 280.910156 84.789062 277.359375 84.933594 C 277.171875 84.941406 276.984375 84.945312 276.796875 84.945312 Z M 270.671875 90.539062 C 270.738281 90.539062 270.804688 90.546875 270.871094 90.566406 C 271.90625 90.890625 272.992188 91.132812 274.101562 91.285156 C 274.367188 91.320312 274.582031 91.511719 274.648438 91.769531 L 275.910156 96.429688 L 279.753906 96.269531 L 280.625 91.523438 C 280.671875 91.257812 280.871094 91.050781 281.132812 90.992188 C 282.222656 90.75 283.285156 90.421875 284.292969 90.011719 C 284.539062 89.914062 284.820312 89.96875 285.007812 90.15625 L 288.425781 93.5625 L 291.679688 91.503906 L 290.054688 86.953125 C 289.964844 86.703125 290.03125 86.421875 290.226562 86.242188 C 291.039062 85.5 291.789062 84.679688 292.464844 83.8125 C 292.628906 83.601562 292.90625 83.511719 293.164062 83.578125 L 297.828125 84.820312 L 299.617188 81.414062 L 295.9375 78.292969 C 295.734375 78.117188 295.652344 77.84375 295.734375 77.589844 C 296.058594 76.554688 296.304688 75.46875 296.453125 74.363281 C 296.488281 74.097656 296.679688 73.878906 296.9375 73.808594 L 301.605469 72.554688 L 301.445312 68.710938 L 296.691406 67.84375 C 296.429688 67.796875 296.21875 67.597656 296.160156 67.335938 C 295.917969 66.242188 295.589844 65.183594 295.179688 64.179688 C 295.078125 63.933594 295.136719 63.652344 295.324219 63.460938 L 298.730469 60.046875 L 296.671875 56.796875 L 292.117188 58.421875 C 291.867188 58.511719 291.585938 58.445312 291.40625 58.246094 C 290.660156 57.4375 289.84375 56.683594 288.976562 56.007812 C 288.765625 55.847656 288.675781 55.574219 288.742188 55.316406 L 289.984375 50.648438 L 286.574219 48.863281 L 283.449219 52.539062 C 283.28125 52.742188 283 52.820312 282.746094 52.742188 C 281.710938 52.417969 280.625 52.179688 279.515625 52.023438 C 279.253906 51.988281 279.035156 51.800781 278.96875 51.542969 L 277.710938 46.878906 L 273.863281 47.039062 L 272.996094 51.789062 C 272.945312 52.050781 272.746094 52.257812 272.488281 52.316406 C 271.398438 52.558594 270.332031 52.890625 269.328125 53.296875 C 269.082031 53.398438 268.796875 53.34375 268.609375 53.15625 L 265.191406 49.75 L 261.941406 51.808594 L 263.566406 56.359375 C 263.65625 56.609375 263.585938 56.886719 263.390625 57.066406 C 262.582031 57.8125 261.828125 58.632812 261.152344 59.496094 C 260.988281 59.707031 260.714844 59.796875 260.457031 59.734375 L 255.789062 58.488281 L 254 61.898438 L 257.679688 65.019531 C 257.882812 65.191406 257.964844 65.46875 257.882812 65.722656 C 257.558594 66.757812 257.316406 67.839844 257.167969 68.949219 C 257.128906 69.214844 256.941406 69.429688 256.683594 69.5 L 252.015625 70.757812 L 252.175781 74.597656 L 256.929688 75.464844 C 257.191406 75.515625 257.398438 75.714844 257.457031 75.972656 C 257.699219 77.066406 258.03125 78.128906 258.441406 79.132812 C 258.539062 79.378906 258.484375 79.664062 258.292969 79.847656 L 254.890625 83.265625 L 256.949219 86.511719 L 261.5 84.886719 C 261.753906 84.800781 262.03125 84.867188 262.210938 85.0625 C 262.957031 85.875 263.773438 86.625 264.644531 87.300781 C 264.851562 87.464844 264.945312 87.738281 264.875 87.996094 L 263.632812 92.660156 L 267.042969 94.445312 L 270.167969 90.769531 C 270.296875 90.621094 270.480469 90.539062 270.671875 90.539062 Z M 275.40625 97.777344 C 275.109375 97.777344 274.847656 97.574219 274.769531 97.285156 L 273.484375 92.53125 C 272.605469 92.394531 271.734375 92.203125 270.898438 91.957031 L 267.710938 95.707031 C 267.511719 95.941406 267.175781 96.007812 266.898438 95.863281 L 262.546875 93.589844 C 262.273438 93.445312 262.136719 93.132812 262.214844 92.832031 L 263.484375 88.070312 C 262.800781 87.519531 262.148438 86.917969 261.539062 86.28125 L 256.898438 87.9375 C 256.605469 88.039062 256.277344 87.929688 256.113281 87.667969 L 253.484375 83.523438 C 253.316406 83.265625 253.355469 82.921875 253.574219 82.703125 L 257.050781 79.222656 C 256.738281 78.40625 256.476562 77.558594 256.265625 76.691406 L 251.417969 75.808594 C 251.109375 75.75 250.886719 75.492188 250.871094 75.183594 L 250.671875 70.28125 C 250.65625 69.972656 250.859375 69.695312 251.160156 69.613281 L 255.917969 68.335938 C 256.054688 67.453125 256.246094 66.585938 256.492188 65.746094 L 252.738281 62.5625 C 252.503906 62.363281 252.4375 62.027344 252.582031 61.75 L 254.859375 57.40625 C 255.003906 57.132812 255.320312 56.992188 255.617188 57.074219 L 260.378906 58.339844 C 260.933594 57.65625 261.539062 57.003906 262.171875 56.394531 L 260.515625 51.753906 C 260.410156 51.464844 260.519531 51.140625 260.785156 50.972656 L 264.929688 48.347656 C 265.191406 48.183594 265.535156 48.21875 265.753906 48.4375 L 269.238281 51.910156 C 270.054688 51.597656 270.902344 51.335938 271.769531 51.125 L 272.65625 46.28125 C 272.710938 45.976562 272.96875 45.75 273.277344 45.738281 L 278.183594 45.535156 C 278.5 45.519531 278.769531 45.726562 278.851562 46.023438 L 280.132812 50.777344 C 281.015625 50.917969 281.882812 51.109375 282.722656 51.351562 L 285.90625 47.605469 C 286.109375 47.367188 286.449219 47.304688 286.71875 47.445312 L 291.070312 49.722656 C 291.34375 49.867188 291.480469 50.179688 291.402344 50.476562 L 290.132812 55.238281 C 290.816406 55.792969 291.46875 56.394531 292.082031 57.027344 L 296.722656 55.371094 C 297.015625 55.269531 297.339844 55.378906 297.507812 55.640625 L 300.132812 59.785156 C 300.300781 60.046875 300.261719 60.386719 300.042969 60.609375 L 296.566406 64.089844 C 296.882812 64.90625 297.144531 65.753906 297.355469 66.621094 L 302.203125 67.503906 C 302.507812 67.558594 302.734375 67.816406 302.746094 68.128906 L 302.949219 73.027344 C 302.960938 73.339844 302.757812 73.617188 302.460938 73.695312 L 297.703125 74.976562 C 297.5625 75.859375 297.371094 76.726562 297.128906 77.5625 L 300.878906 80.746094 C 301.113281 80.945312 301.179688 81.285156 301.035156 81.558594 L 298.761719 85.90625 C 298.617188 86.179688 298.304688 86.316406 298.003906 86.238281 L 293.238281 84.96875 C 292.679688 85.65625 292.082031 86.304688 291.445312 86.914062 L 293.105469 91.554688 C 293.207031 91.84375 293.097656 92.171875 292.835938 92.335938 L 288.6875 94.964844 C 288.429688 95.128906 288.085938 95.09375 287.867188 94.875 L 284.382812 91.398438 C 283.566406 91.710938 282.714844 91.976562 281.847656 92.1875 L 280.964844 97.03125 C 280.910156 97.335938 280.648438 97.558594 280.339844 97.570312 L 275.433594 97.777344 C 275.425781 97.777344 275.414062 97.777344 275.40625 97.777344 " fill-opacity="1" fill-rule="nonzero"/><path fill="#99b9ff" d="M 219.558594 67.695312 C 209.71875 69.21875 200.507812 62.484375 198.984375 52.65625 C 197.457031 42.824219 204.195312 33.617188 214.035156 32.09375 C 223.871094 30.570312 233.085938 37.304688 234.609375 47.132812 C 236.136719 56.964844 229.394531 66.171875 219.558594 67.695312 Z M 253.128906 47.804688 L 252.054688 40.890625 L 244.425781 40.371094 C 243.890625 38.816406 243.234375 37.320312 242.464844 35.910156 L 247.21875 29.933594 L 242.828125 24.480469 L 235.960938 27.84375 C 234.726562 26.777344 233.414062 25.816406 232.023438 24.96875 L 233.15625 17.40625 L 226.625 14.878906 L 222.363281 21.214844 C 220.78125 20.90625 219.160156 20.734375 217.511719 20.695312 L 214.707031 13.585938 L 207.789062 14.660156 L 207.265625 22.285156 C 205.707031 22.820312 204.214844 23.472656 202.800781 24.246094 L 196.820312 19.496094 L 191.363281 23.882812 L 194.730469 30.746094 C 193.664062 31.972656 192.699219 33.289062 191.851562 34.675781 L 184.285156 33.550781 L 181.753906 40.074219 L 188.09375 44.332031 C 187.789062 45.914062 187.617188 47.53125 187.578125 49.179688 L 180.460938 51.984375 L 181.535156 58.898438 L 189.167969 59.417969 C 189.703125 60.972656 190.355469 62.46875 191.128906 63.878906 L 186.375 69.855469 L 190.765625 75.308594 L 197.636719 71.945312 C 198.863281 73.007812 200.179688 73.972656 201.566406 74.820312 L 200.441406 82.378906 L 206.972656 84.910156 L 211.230469 78.574219 C 212.8125 78.882812 214.433594 79.050781 216.082031 79.089844 L 218.886719 86.199219 L 225.808594 85.128906 L 226.328125 77.503906 C 227.882812 76.96875 229.375 76.3125 230.792969 75.542969 L 236.773438 80.292969 L 242.230469 75.90625 L 238.863281 69.042969 C 239.929688 67.8125 240.890625 66.5 241.738281 65.113281 L 249.304688 66.238281 L 251.835938 59.714844 L 245.496094 55.457031 C 245.804688 53.875 245.976562 52.253906 246.015625 50.609375 L 253.128906 47.804688 " fill-opacity="1" fill-rule="nonzero"/><path fill="#5479f7" d="M 214.921875 32.980469 C 214.023438 32.980469 213.125 33.050781 212.222656 33.191406 C 207.640625 33.898438 203.609375 36.351562 200.867188 40.089844 C 198.132812 43.832031 197.011719 48.414062 197.726562 52.992188 C 198.433594 57.574219 200.890625 61.601562 204.632812 64.339844 C 208.375 67.078125 212.960938 68.191406 217.542969 67.480469 C 227.003906 66.015625 233.507812 57.132812 232.042969 47.675781 C 231.332031 43.097656 228.875 39.070312 225.132812 36.332031 C 222.128906 34.132812 218.578125 32.980469 214.921875 32.980469 Z M 214.84375 69.011719 C 210.90625 69.011719 207.085938 67.773438 203.847656 65.40625 C 199.820312 62.460938 197.179688 58.125 196.414062 53.195312 C 194.835938 43.023438 201.835938 33.457031 212.023438 31.882812 C 216.953125 31.117188 221.890625 32.316406 225.917969 35.261719 C 229.945312 38.207031 232.585938 42.542969 233.351562 47.472656 C 234.929688 57.648438 227.929688 67.210938 217.746094 68.789062 C 216.777344 68.941406 215.808594 69.011719 214.84375 69.011719 Z M 209.3125 78.355469 C 209.355469 78.355469 209.402344 78.355469 209.441406 78.367188 C 210.976562 78.664062 212.570312 78.835938 214.183594 78.871094 C 214.449219 78.875 214.6875 79.042969 214.785156 79.289062 L 217.394531 85.90625 L 223.269531 84.996094 L 223.753906 77.902344 C 223.769531 77.632812 223.945312 77.40625 224.199219 77.320312 C 225.71875 76.796875 227.1875 76.152344 228.5625 75.402344 C 228.796875 75.277344 229.085938 75.300781 229.292969 75.464844 L 234.855469 79.886719 L 239.488281 76.164062 L 236.355469 69.773438 C 236.238281 69.535156 236.277344 69.25 236.449219 69.050781 C 237.488281 67.851562 238.4375 66.558594 239.261719 65.207031 C 239.402344 64.980469 239.660156 64.855469 239.925781 64.898438 L 246.96875 65.949219 L 249.117188 60.410156 L 243.214844 56.445312 C 242.992188 56.300781 242.882812 56.03125 242.933594 55.773438 C 243.230469 54.238281 243.402344 52.644531 243.4375 51.035156 C 243.445312 50.769531 243.609375 50.535156 243.859375 50.433594 L 250.480469 47.828125 L 249.570312 41.957031 L 242.46875 41.472656 C 242.203125 41.453125 241.972656 41.28125 241.886719 41.027344 C 241.363281 39.503906 240.71875 38.039062 239.96875 36.664062 C 239.839844 36.433594 239.867188 36.144531 240.03125 35.9375 L 244.453125 30.378906 L 240.730469 25.75 L 234.335938 28.878906 C 234.097656 29 233.8125 28.957031 233.609375 28.785156 C 232.414062 27.746094 231.117188 26.800781 229.769531 25.976562 C 229.539062 25.835938 229.417969 25.574219 229.457031 25.3125 L 230.507812 18.277344 L 224.964844 16.128906 L 221 22.023438 C 220.851562 22.246094 220.585938 22.355469 220.324219 22.304688 C 218.789062 22.007812 217.191406 21.839844 215.582031 21.800781 C 215.320312 21.792969 215.078125 21.628906 214.980469 21.378906 L 212.371094 14.765625 L 206.496094 15.675781 L 206.011719 22.769531 C 205.996094 23.035156 205.820312 23.265625 205.570312 23.351562 C 204.050781 23.875 202.578125 24.519531 201.207031 25.269531 C 200.972656 25.394531 200.683594 25.371094 200.472656 25.207031 L 194.910156 20.785156 L 190.277344 24.507812 L 193.410156 30.898438 C 193.527344 31.136719 193.492188 31.417969 193.316406 31.621094 C 192.277344 32.820312 191.332031 34.113281 190.503906 35.464844 C 190.363281 35.691406 190.105469 35.816406 189.839844 35.773438 L 182.800781 34.726562 L 180.652344 40.261719 L 186.550781 44.222656 C 186.773438 44.371094 186.882812 44.636719 186.832031 44.902344 C 186.535156 46.433594 186.367188 48.027344 186.328125 49.636719 C 186.320312 49.902344 186.15625 50.136719 185.90625 50.234375 L 179.285156 52.847656 L 180.195312 58.714844 L 187.300781 59.199219 C 187.566406 59.214844 187.792969 59.390625 187.878906 59.644531 C 188.402344 61.167969 189.050781 62.632812 189.796875 64.003906 C 189.925781 64.238281 189.902344 64.523438 189.734375 64.734375 L 185.3125 70.296875 L 189.035156 74.921875 L 195.429688 71.792969 C 195.671875 71.675781 195.957031 71.714844 196.15625 71.886719 C 197.351562 72.925781 198.648438 73.871094 200 74.695312 C 200.226562 74.835938 200.347656 75.097656 200.308594 75.359375 L 199.257812 82.394531 L 204.800781 84.542969 L 208.769531 78.644531 C 208.890625 78.460938 209.097656 78.355469 209.3125 78.355469 Z M 216.976562 87.304688 C 216.703125 87.304688 216.460938 87.140625 216.355469 86.886719 L 213.710938 80.183594 C 212.328125 80.128906 210.953125 79.980469 209.621094 79.746094 L 205.605469 85.722656 C 205.433594 85.976562 205.101562 86.078125 204.816406 85.96875 L 198.289062 83.4375 C 198 83.328125 197.824219 83.03125 197.871094 82.722656 L 198.933594 75.59375 C 197.78125 74.867188 196.667969 74.054688 195.621094 73.171875 L 189.144531 76.34375 C 188.863281 76.480469 188.527344 76.40625 188.335938 76.164062 L 183.945312 70.710938 C 183.75 70.472656 183.75 70.128906 183.945312 69.886719 L 188.425781 64.25 C 187.796875 63.054688 187.242188 61.792969 186.773438 60.488281 L 179.578125 60 C 179.269531 59.976562 179.015625 59.746094 178.96875 59.4375 L 177.894531 52.527344 C 177.847656 52.222656 178.019531 51.921875 178.308594 51.808594 L 185.015625 49.164062 C 185.066406 47.78125 185.214844 46.410156 185.453125 45.078125 L 179.472656 41.066406 C 179.214844 40.890625 179.113281 40.5625 179.222656 40.277344 L 181.753906 33.753906 C 181.867188 33.464844 182.164062 33.289062 182.46875 33.335938 L 189.605469 34.398438 C 190.335938 33.246094 191.148438 32.136719 192.03125 31.089844 L 188.855469 24.613281 C 188.71875 24.335938 188.792969 24.003906 189.035156 23.808594 L 194.492188 19.421875 C 194.730469 19.226562 195.074219 19.226562 195.316406 19.417969 L 200.957031 23.898438 C 202.160156 23.269531 203.421875 22.714844 204.722656 22.246094 L 205.210938 15.054688 C 205.234375 14.75 205.464844 14.492188 205.769531 14.445312 L 212.691406 13.375 C 212.996094 13.328125 213.296875 13.5 213.410156 13.785156 L 216.058594 20.492188 C 217.4375 20.542969 218.8125 20.6875 220.144531 20.925781 L 224.160156 14.949219 C 224.335938 14.695312 224.664062 14.589844 224.949219 14.703125 L 231.480469 17.234375 C 231.769531 17.34375 231.941406 17.640625 231.894531 17.949219 L 230.832031 25.078125 C 231.988281 25.808594 233.097656 26.617188 234.144531 27.5 L 240.625 24.328125 C 240.902344 24.191406 241.238281 24.265625 241.429688 24.507812 L 245.820312 29.960938 C 246.015625 30.199219 246.015625 30.542969 245.824219 30.785156 L 241.339844 36.421875 C 241.96875 37.617188 242.523438 38.878906 242.992188 40.183594 L 250.1875 40.671875 C 250.496094 40.691406 250.753906 40.925781 250.796875 41.230469 L 251.871094 48.148438 C 251.917969 48.453125 251.746094 48.75 251.460938 48.863281 L 244.75 51.507812 C 244.699219 52.890625 244.554688 54.261719 244.316406 55.589844 L 250.296875 59.605469 C 250.550781 59.777344 250.65625 60.105469 250.542969 60.394531 L 248.011719 66.921875 C 247.898438 67.207031 247.601562 67.382812 247.296875 67.335938 L 240.160156 66.273438 C 239.429688 67.425781 238.617188 68.539062 237.734375 69.582031 L 240.910156 76.054688 C 241.046875 76.332031 240.972656 76.671875 240.730469 76.863281 L 235.273438 81.25 C 235.035156 81.441406 234.691406 81.445312 234.449219 81.25 L 228.808594 76.773438 C 227.609375 77.402344 226.347656 77.957031 225.042969 78.425781 L 224.554688 85.613281 C 224.53125 85.921875 224.300781 86.175781 223.996094 86.222656 L 217.078125 87.296875 C 217.039062 87.300781 217.007812 87.304688 216.976562 87.304688 " fill-opacity="1" fill-rule="nonzero"/><path fill="#000000" d="M 90.109375 111.484375 C 89.742188 111.484375 89.449219 111.1875 89.449219 110.824219 L 89.449219 107.398438 C 89.449219 107.035156 89.742188 106.738281 90.109375 106.738281 C 90.476562 106.738281 90.773438 107.035156 90.773438 107.398438 L 90.773438 110.824219 C 90.773438 111.1875 90.476562 111.484375 90.109375 111.484375 " fill-opacity="1" fill-rule="nonzero"/><path fill="#000000" d="M 90.109375 119.457031 C 89.742188 119.457031 89.445312 119.160156 89.445312 118.792969 L 89.445312 115.371094 C 89.445312 115.007812 89.742188 114.710938 90.109375 114.710938 C 90.476562 114.710938 90.773438 115.007812 90.773438 115.371094 L 90.773438 118.792969 C 90.773438 119.160156 90.476562 119.457031 90.109375 119.457031 " fill-opacity="1" fill-rule="nonzero"/><path fill="#000000" d="M 87.835938 113.757812 L 84.410156 113.757812 C 84.042969 113.757812 83.746094 113.460938 83.746094 113.097656 C 83.746094 112.730469 84.042969 112.433594 84.410156 112.433594 L 87.835938 112.433594 C 88.199219 112.433594 88.496094 112.730469 88.496094 113.097656 C 88.496094 113.460938 88.199219 113.757812 87.835938 113.757812 " fill-opacity="1" fill-rule="nonzero"/><path fill="#000000" d="M 95.8125 113.757812 L 92.386719 113.757812 C 92.023438 113.757812 91.726562 113.460938 91.726562 113.097656 C 91.726562 112.730469 92.023438 112.433594 92.386719 112.433594 L 95.8125 112.433594 C 96.179688 112.433594 96.476562 112.730469 96.476562 113.097656 C 96.476562 113.460938 96.179688 113.757812 95.8125 113.757812 " fill-opacity="1" fill-rule="nonzero"/><path fill="#000000" d="M 272.34375 345.40625 C 272.019531 345.40625 271.734375 345.164062 271.691406 344.832031 L 271.242188 341.4375 C 271.195312 341.074219 271.449219 340.742188 271.816406 340.695312 C 272.175781 340.648438 272.511719 340.902344 272.558594 341.265625 L 273.003906 344.660156 C 273.050781 345.019531 272.796875 345.351562 272.433594 345.402344 C 272.402344 345.40625 272.375 345.40625 272.34375 345.40625 " fill-opacity="1" fill-rule="nonzero"/><path fill="#000000" d="M 273.382812 353.3125 C 273.058594 353.3125 272.773438 353.066406 272.730469 352.738281 L 272.28125 349.34375 C 272.234375 348.980469 272.492188 348.648438 272.851562 348.597656 C 273.214844 348.550781 273.546875 348.808594 273.597656 349.167969 L 274.042969 352.5625 C 274.089844 352.925781 273.832031 353.257812 273.472656 353.304688 C 273.441406 353.308594 273.414062 353.3125 273.382812 353.3125 " fill-opacity="1" fill-rule="nonzero"/><path fill="#000000" d="M 266.988281 348.402344 C 266.664062 348.402344 266.378906 348.160156 266.335938 347.828125 C 266.285156 347.46875 266.542969 347.132812 266.902344 347.085938 L 270.300781 346.640625 C 270.664062 346.59375 270.996094 346.847656 271.042969 347.210938 C 271.09375 347.574219 270.835938 347.90625 270.472656 347.953125 L 267.074219 348.398438 C 267.050781 348.402344 267.019531 348.402344 266.988281 348.402344 " fill-opacity="1" fill-rule="nonzero"/><path fill="#000000" d="M 274.898438 347.367188 C 274.570312 347.367188 274.285156 347.125 274.242188 346.789062 C 274.195312 346.429688 274.449219 346.097656 274.8125 346.046875 L 278.207031 345.601562 C 278.574219 345.554688 278.90625 345.8125 278.953125 346.171875 C 279 346.535156 278.746094 346.867188 278.382812 346.914062 L 274.984375 347.359375 C 274.957031 347.367188 274.929688 347.367188 274.898438 347.367188 " fill-opacity="1" fill-rule="nonzero"/><path fill="#000000" d="M 162.203125 19.007812 C 161.128906 19.007812 160.082031 19.5625 159.507812 20.558594 C 158.648438 22.042969 159.160156 23.945312 160.644531 24.804688 C 162.128906 25.660156 164.035156 25.152344 164.894531 23.667969 C 165.308594 22.949219 165.417969 22.113281 165.207031 21.3125 C 164.988281 20.507812 164.476562 19.835938 163.753906 19.421875 C 163.265625 19.140625 162.730469 19.007812 162.203125 19.007812 Z M 162.195312 26.542969 C 161.441406 26.542969 160.679688 26.351562 159.980469 25.949219 C 157.863281 24.726562 157.136719 22.011719 158.359375 19.898438 C 159.582031 17.78125 162.300781 17.054688 164.417969 18.277344 C 165.445312 18.867188 166.175781 19.824219 166.484375 20.96875 C 166.789062 22.109375 166.632812 23.304688 166.039062 24.332031 C 165.21875 25.75 163.726562 26.542969 162.195312 26.542969 " fill-opacity="1" fill-rule="nonzero"/><path fill="#000000" d="M 257.476562 352.605469 C 257.074219 352.605469 256.671875 352.683594 256.285156 352.84375 C 255.523438 353.160156 254.921875 353.757812 254.601562 354.523438 C 253.949219 356.105469 254.703125 357.925781 256.285156 358.582031 C 257.050781 358.902344 257.898438 358.902344 258.667969 358.585938 C 259.433594 358.265625 260.03125 357.671875 260.351562 356.90625 C 260.667969 356.136719 260.667969 355.292969 260.351562 354.527344 C 260.035156 353.757812 259.4375 353.160156 258.667969 352.84375 C 258.285156 352.683594 257.878906 352.605469 257.476562 352.605469 Z M 257.480469 360.148438 C 256.902344 360.148438 256.328125 360.035156 255.78125 359.808594 C 253.519531 358.871094 252.445312 356.273438 253.378906 354.015625 C 253.832031 352.921875 254.6875 352.070312 255.78125 351.621094 C 256.875 351.167969 258.082031 351.167969 259.175781 351.621094 C 260.269531 352.074219 261.121094 352.925781 261.574219 354.019531 C 262.027344 355.113281 262.027344 356.320312 261.574219 357.410156 C 261.121094 358.503906 260.269531 359.355469 259.171875 359.808594 C 258.625 360.035156 258.050781 360.148438 257.480469 360.148438 " fill-opacity="1" fill-rule="nonzero"/><path fill="#000000" d="M 16.152344 196.828125 C 15.796875 196.828125 15.503906 196.546875 15.492188 196.191406 C 14.792969 174.714844 18.667969 153.828125 26.707031 135.789062 C 26.855469 135.457031 27.246094 135.304688 27.582031 135.453125 C 27.914062 135.601562 28.066406 135.992188 27.917969 136.328125 C 19.960938 154.183594 16.121094 174.871094 16.816406 196.144531 C 16.828125 196.511719 16.542969 196.816406 16.175781 196.828125 C 16.167969 196.828125 16.160156 196.828125 16.152344 196.828125 " fill-opacity="1" fill-rule="nonzero"/><path fill="#000000" d="M 9.75 186.699219 C 9.386719 186.699219 9.089844 186.410156 9.085938 186.046875 C 8.886719 166.164062 12.433594 147.53125 19.636719 130.667969 C 20.503906 128.628906 21.4375 126.605469 22.40625 124.644531 C 22.570312 124.320312 22.96875 124.183594 23.292969 124.347656 C 23.621094 124.507812 23.757812 124.902344 23.59375 125.230469 C 22.636719 127.171875 21.714844 129.175781 20.851562 131.1875 C 13.726562 147.878906 10.210938 166.332031 10.414062 186.03125 C 10.417969 186.398438 10.121094 186.695312 9.757812 186.699219 C 9.753906 186.699219 9.753906 186.699219 9.75 186.699219 " fill-opacity="1" fill-rule="nonzero"/><path fill="#000000" d="M 319.210938 50.886719 C 318.960938 50.886719 318.71875 50.742188 318.609375 50.5 C 310.574219 33.101562 293.582031 21.664062 281.46875 17.152344 C 281.125 17.023438 280.953125 16.644531 281.082031 16.300781 C 281.207031 15.957031 281.589844 15.785156 281.933594 15.910156 C 294.277344 20.507812 311.609375 32.183594 319.8125 49.945312 C 319.96875 50.277344 319.820312 50.667969 319.488281 50.824219 C 319.398438 50.863281 319.304688 50.886719 319.210938 50.886719 " fill-opacity="1" fill-rule="nonzero"/><path fill="#000000" d="M 324.875 48.347656 C 324.585938 48.347656 324.320312 48.15625 324.238281 47.867188 C 320.636719 35.066406 308.136719 22.675781 291.613281 15.523438 C 291.277344 15.375 291.121094 14.988281 291.269531 14.652344 C 291.414062 14.316406 291.804688 14.160156 292.140625 14.308594 C 309.023438 21.613281 321.808594 34.335938 325.511719 47.507812 C 325.613281 47.859375 325.40625 48.226562 325.054688 48.324219 C 324.992188 48.339844 324.933594 48.347656 324.875 48.347656 " fill-opacity="1" fill-rule="nonzero"/><path fill="#5479f7" d="M 142.074219 233.921875 C 136.703125 233.234375 132.683594 228.671875 132.683594 223.261719 L 131.980469 75.613281 L 134.617188 69.921875 C 134.617188 69.921875 139.398438 66.738281 141.90625 65.308594 C 143.417969 64.453125 145.210938 64.054688 147.085938 64.292969 L 360.257812 91.457031 C 365.621094 92.140625 369.648438 96.707031 369.648438 102.113281 L 369.648438 248.480469 C 369.390625 257.457031 357.316406 262.871094 357.316406 262.871094 L 142.074219 233.921875 " fill-opacity="1" fill-rule="nonzero"/><path fill="#ffffff" d="M 352.601562 263.777344 L 138.144531 236.449219 C 132.742188 235.761719 128.695312 231.167969 128.695312 225.726562 L 128.695312 78.476562 C 128.695312 73.417969 133.140625 69.507812 138.164062 70.144531 L 352.621094 97.476562 C 358.019531 98.164062 362.070312 102.753906 362.070312 108.195312 L 362.070312 255.445312 C 362.070312 260.507812 357.625 264.417969 352.601562 263.777344 " fill-opacity="1" fill-rule="nonzero"/><path fill="#99b9ff" d="M 344.921875 256.84375 L 145.824219 231.472656 C 140.8125 230.832031 137.054688 226.566406 137.054688 221.519531 L 137.054688 84.8125 C 137.054688 80.117188 141.179688 76.484375 145.84375 77.078125 L 344.941406 102.453125 C 349.953125 103.089844 353.710938 107.355469 353.710938 112.40625 L 353.710938 249.109375 C 353.710938 253.808594 349.585938 257.4375 344.921875 256.84375 " fill-opacity="1" fill-rule="nonzero"/><path fill="#caddff" d="M 221.078125 106.527344 C 221.003906 106.527344 220.929688 106.523438 220.855469 106.515625 L 149.664062 97.441406 C 148.699219 97.320312 148.011719 96.4375 148.136719 95.46875 C 148.257812 94.5 149.140625 93.816406 150.109375 93.941406 L 221.300781 103.011719 C 222.269531 103.136719 222.953125 104.019531 222.828125 104.988281 C 222.714844 105.878906 221.957031 106.527344 221.078125 106.527344 " fill-opacity="1" fill-rule="nonzero"/><path fill="#caddff" d="M 221.078125 119.351562 C 221.003906 119.351562 220.929688 119.347656 220.855469 119.339844 L 191.25 115.566406 C 190.28125 115.441406 189.597656 114.558594 189.722656 113.589844 C 189.84375 112.625 190.726562 111.9375 191.695312 112.0625 L 221.300781 115.835938 C 222.265625 115.957031 222.953125 116.84375 222.828125 117.808594 C 222.714844 118.699219 221.953125 119.351562 221.078125 119.351562 " fill-opacity="1" fill-rule="nonzero"/><path fill="#caddff" d="M 221.078125 132.171875 C 221.003906 132.171875 220.929688 132.167969 220.855469 132.15625 L 149.667969 123.085938 C 148.699219 122.964844 148.011719 122.078125 148.136719 121.113281 C 148.261719 120.144531 149.144531 119.457031 150.113281 119.585938 L 221.300781 128.65625 C 222.265625 128.777344 222.949219 129.664062 222.828125 130.628906 C 222.714844 131.523438 221.953125 132.171875 221.078125 132.171875 " fill-opacity="1" fill-rule="nonzero"/><path fill="#caddff" d="M 221.078125 144.992188 C 221.003906 144.992188 220.929688 144.988281 220.855469 144.980469 L 165.953125 137.984375 C 164.984375 137.859375 164.300781 136.976562 164.425781 136.011719 C 164.546875 135.042969 165.429688 134.355469 166.398438 134.480469 L 221.300781 141.476562 C 222.265625 141.601562 222.953125 142.484375 222.828125 143.449219 C 222.714844 144.34375 221.953125 144.992188 221.078125 144.992188 " fill-opacity="1" fill-rule="nonzero"/><path fill="#caddff" d="M 221.082031 182.375 C 221.007812 182.375 220.933594 182.371094 220.859375 182.363281 L 149.667969 173.292969 C 148.703125 173.167969 148.015625 172.285156 148.140625 171.316406 C 148.265625 170.351562 149.144531 169.664062 150.117188 169.789062 L 221.304688 178.863281 C 222.273438 178.984375 222.957031 179.871094 222.832031 180.835938 C 222.71875 181.726562 221.957031 182.375 221.082031 182.375 " fill-opacity="1" fill-rule="nonzero"/><path fill="#caddff" d="M 200.738281 192.90625 C 200.664062 192.90625 200.585938 192.902344 200.511719 192.890625 L 149.667969 186.414062 C 148.699219 186.289062 148.015625 185.40625 148.140625 184.4375 C 148.265625 183.472656 149.144531 182.78125 150.117188 182.910156 L 200.957031 189.390625 C 201.925781 189.515625 202.609375 190.398438 202.488281 191.363281 C 202.375 192.257812 201.613281 192.90625 200.738281 192.90625 " fill-opacity="1" fill-rule="nonzero"/><path fill="#caddff" d="M 221.082031 208.320312 C 221.007812 208.320312 220.933594 208.316406 220.859375 208.308594 L 149.667969 199.234375 C 148.699219 199.113281 148.015625 198.226562 148.140625 197.257812 C 148.261719 196.292969 149.144531 195.605469 150.113281 195.734375 L 221.304688 204.804688 C 222.273438 204.929688 222.957031 205.8125 222.832031 206.777344 C 222.71875 207.671875 221.957031 208.320312 221.082031 208.320312 " fill-opacity="1" fill-rule="nonzero"/><path fill="#caddff" d="M 221.082031 221.140625 C 221.007812 221.140625 220.933594 221.136719 220.859375 221.128906 L 149.667969 212.054688 C 148.703125 211.933594 148.015625 211.050781 148.140625 210.082031 C 148.265625 209.113281 149.144531 208.425781 150.117188 208.554688 L 221.304688 217.625 C 222.273438 217.75 222.957031 218.632812 222.832031 219.601562 C 222.71875 220.492188 221.957031 221.140625 221.082031 221.140625 " fill-opacity="1" fill-rule="nonzero"/><path fill="#caddff" d="M 341.699219 121.34375 C 341.636719 121.34375 341.574219 121.339844 341.511719 121.335938 L 287.445312 115.5625 C 286.476562 115.457031 285.769531 114.589844 285.875 113.617188 C 285.976562 112.648438 286.847656 111.945312 287.820312 112.050781 L 341.886719 117.824219 C 342.855469 117.929688 343.558594 118.796875 343.453125 119.769531 C 343.359375 120.671875 342.589844 121.34375 341.699219 121.34375 " fill-opacity="1" fill-rule="nonzero"/><path fill="#caddff" d="M 329.015625 133.082031 C 328.949219 133.082031 328.886719 133.078125 328.824219 133.070312 L 285.128906 128.378906 C 284.160156 128.269531 283.457031 127.402344 283.5625 126.429688 C 283.667969 125.464844 284.535156 124.765625 285.507812 124.867188 L 329.199219 129.558594 C 330.171875 129.667969 330.871094 130.539062 330.769531 131.503906 C 330.671875 132.410156 329.90625 133.082031 329.015625 133.082031 " fill-opacity="1" fill-rule="nonzero"/><path fill="#000000" d="M 353.664062 264.507812 C 353.285156 264.507812 352.898438 264.484375 352.519531 264.433594 L 138.0625 237.105469 C 132.34375 236.375 128.035156 231.484375 128.035156 225.726562 L 128.035156 215.988281 C 128.035156 215.621094 128.332031 215.328125 128.699219 215.328125 C 129.0625 215.328125 129.359375 215.621094 129.359375 215.988281 L 129.359375 225.726562 C 129.359375 230.820312 133.171875 235.144531 138.230469 235.789062 L 352.6875 263.121094 C 354.890625 263.402344 357.113281 262.722656 358.785156 261.25 C 360.453125 259.78125 361.410156 257.667969 361.410156 255.445312 L 361.410156 108.195312 C 361.410156 103.101562 357.597656 98.773438 352.539062 98.128906 L 138.082031 70.800781 C 135.878906 70.523438 133.65625 71.203125 131.984375 72.671875 C 130.316406 74.136719 129.359375 76.253906 129.359375 78.472656 L 129.359375 168.765625 C 129.359375 169.132812 129.0625 169.429688 128.699219 169.429688 C 128.332031 169.429688 128.035156 169.132812 128.035156 168.765625 L 128.035156 78.472656 C 128.035156 75.875 129.15625 73.394531 131.109375 71.675781 C 133.0625 69.953125 135.664062 69.15625 138.25 69.488281 L 352.707031 96.816406 C 358.421875 97.546875 362.734375 102.4375 362.734375 108.195312 L 362.734375 255.445312 C 362.734375 258.046875 361.613281 260.527344 359.65625 262.246094 C 357.996094 263.710938 355.859375 264.507812 353.664062 264.507812 " fill-opacity="1" fill-rule="nonzero"/><path fill="#5479f7" d="M 227.59375 346.589844 L 8.359375 318.335938 C 6.644531 318.117188 5.675781 316.683594 5.699219 315.246094 C 5.714844 314.257812 5.792969 307.285156 5.792969 307.285156 L 121.714844 241.0625 C 127.523438 237.746094 135.039062 236.46875 141.671875 237.316406 L 358.140625 265.21875 C 359.445312 265.386719 360.558594 266.230469 361.078125 267.441406 L 361.421875 268.253906 C 361.421875 268.253906 361.238281 274.070312 361.3125 275.429688 C 361.375 276.488281 360.894531 277.585938 359.78125 278.222656 L 246.769531 342.789062 C 240.960938 346.105469 234.230469 347.4375 227.59375 346.589844 " fill-opacity="1" fill-rule="nonzero"/><path fill="#ffffff" d="M 227.59375 338.828125 L 9.144531 310.628906 C 6.246094 310.257812 5.480469 306.417969 8.019531 304.96875 L 120.425781 240.816406 C 126.234375 237.5 132.964844 236.167969 139.597656 237.015625 L 358.050781 265.214844 C 360.949219 265.585938 361.714844 269.429688 359.175781 270.878906 L 246.769531 335.03125 C 240.960938 338.34375 234.230469 339.679688 227.59375 338.828125 " fill-opacity="1" fill-rule="nonzero"/><path fill="#caddff" d="M 270.363281 303.21875 L 80.9375 278.589844 C 78.320312 278.253906 77.632812 274.785156 79.925781 273.476562 L 124.464844 248.3125 C 129.710938 245.320312 135.789062 244.117188 141.78125 244.882812 L 331.207031 269.511719 C 333.824219 269.847656 334.511719 273.316406 332.21875 274.628906 L 287.679688 299.789062 C 282.433594 302.78125 276.355469 303.988281 270.363281 303.21875 " fill-opacity="1" fill-rule="nonzero"/><path fill="#caddff" d="M 159.203125 317.675781 L 106.484375 310.871094 C 105.785156 310.78125 105.597656 309.855469 106.210938 309.503906 L 131.6875 295.582031 C 133.089844 294.785156 134.710938 294.460938 136.3125 294.664062 L 189.035156 301.472656 C 189.734375 301.5625 189.917969 302.488281 189.308594 302.839844 L 163.832031 316.757812 C 162.429688 317.558594 160.808594 317.882812 159.203125 317.675781 " fill-opacity="1" fill-rule="nonzero"/><path fill="#000000" d="M 231.457031 339.738281 C 230.140625 339.738281 228.820312 339.65625 227.507812 339.488281 L 106.457031 323.859375 C 106.09375 323.8125 105.839844 323.480469 105.886719 323.121094 C 105.933594 322.757812 106.265625 322.496094 106.625 322.546875 L 227.679688 338.175781 C 234.128906 339 240.792969 337.679688 246.4375 334.457031 L 358.84375 270.304688 C 359.941406 269.675781 360.164062 268.585938 360 267.773438 C 359.835938 266.960938 359.21875 266.035156 357.964844 265.871094 L 139.511719 237.675781 C 133.0625 236.847656 126.398438 238.167969 120.753906 241.390625 L 109.140625 248.019531 C 108.824219 248.199219 108.417969 248.089844 108.238281 247.769531 C 108.058594 247.453125 108.167969 247.050781 108.484375 246.867188 L 120.097656 240.242188 C 125.992188 236.878906 132.945312 235.5 139.683594 236.359375 L 358.132812 264.558594 C 359.742188 264.765625 360.984375 265.925781 361.300781 267.515625 C 361.617188 269.101562 360.910156 270.648438 359.503906 271.453125 L 247.097656 335.605469 C 242.347656 338.316406 236.910156 339.738281 231.457031 339.738281 " fill-opacity="1" fill-rule="nonzero"/><path fill="#000000" d="M 50.046875 316.570312 C 50.019531 316.570312 49.988281 316.570312 49.960938 316.566406 L 9.058594 311.285156 C 7.453125 311.082031 6.210938 309.921875 5.894531 308.332031 C 5.578125 306.742188 6.285156 305.195312 7.691406 304.394531 L 41.957031 284.835938 C 42.277344 284.65625 42.679688 284.765625 42.863281 285.082031 C 43.042969 285.398438 42.933594 285.804688 42.613281 285.984375 L 8.347656 305.542969 C 7.25 306.167969 7.03125 307.261719 7.191406 308.074219 C 7.355469 308.886719 7.972656 309.8125 9.226562 309.972656 L 50.132812 315.253906 C 50.492188 315.300781 50.75 315.632812 50.703125 315.996094 C 50.660156 316.328125 50.375 316.570312 50.046875 316.570312 " fill-opacity="1" fill-rule="nonzero"/><path fill="#000000" d="M 282.925781 271.445312 C 282.898438 271.445312 282.875 271.441406 282.84375 271.4375 L 203.601562 261.8125 C 203.242188 261.769531 202.980469 261.441406 203.027344 261.078125 C 203.070312 260.710938 203.402344 260.457031 203.761719 260.5 L 283.003906 270.125 C 283.371094 270.167969 283.628906 270.5 283.582031 270.859375 C 283.542969 271.199219 283.257812 271.445312 282.925781 271.445312 " fill-opacity="1" fill-rule="nonzero"/><path fill="#000000" d="M 248.28125 279.207031 C 248.253906 279.207031 248.226562 279.207031 248.199219 279.203125 L 225.195312 276.410156 C 224.832031 276.363281 224.574219 276.035156 224.617188 275.671875 C 224.664062 275.308594 224.992188 275.050781 225.355469 275.09375 L 248.359375 277.890625 C 248.722656 277.933594 248.980469 278.261719 248.9375 278.625 C 248.898438 278.960938 248.613281 279.207031 248.28125 279.207031 " fill-opacity="1" fill-rule="nonzero"/><path fill="#99b9ff" d="M 166.242188 280.605469 C 166.214844 280.605469 166.1875 280.601562 166.160156 280.601562 L 143.15625 277.804688 C 142.792969 277.761719 142.535156 277.429688 142.578125 277.066406 C 142.625 276.703125 142.953125 276.449219 143.316406 276.488281 L 166.320312 279.285156 C 166.683594 279.328125 166.941406 279.660156 166.898438 280.023438 C 166.859375 280.359375 166.574219 280.605469 166.242188 280.605469 " fill-opacity="1" fill-rule="nonzero"/><path fill="#5479f7" d="M 158.164062 142.519531 L 180.910156 131.136719 C 199.421875 121.875 216.515625 110.242188 231.789062 96.511719 L 232.523438 89.464844 C 232.523438 89.464844 240.46875 89.550781 242.160156 89.453125 C 244.324219 89.332031 246.574219 90.085938 248.328125 91.695312 C 266.757812 108.601562 287.449219 122.871094 309.734375 134.050781 L 325.503906 141.960938 C 329.167969 143.796875 330.667969 147.039062 329.867188 151.695312 L 314.75 235.390625 C 307.40625 258.808594 274.164062 290.140625 255.378906 306.449219 C 251.957031 309.417969 247.652344 310.867188 243.285156 310.839844 C 241.347656 310.828125 233.339844 311.082031 233.339844 311.082031 C 233.339844 311.082031 231.445312 307.730469 229.066406 305.472656 C 210.285156 287.621094 177.152344 253.257812 169.261719 226.195312 L 154.421875 151.390625 C 153.378906 147.808594 154.929688 144.132812 158.164062 142.519531 " fill-opacity="1" fill-rule="nonzero"/><path fill="#ffffff" d="M 149.320312 142.96875 L 171.890625 131.675781 C 190.257812 122.488281 207.222656 110.941406 222.371094 97.320312 L 228.058594 92.207031 C 231.019531 89.550781 235.675781 89.691406 238.785156 92.542969 C 257.070312 109.3125 277.597656 123.472656 299.714844 134.570312 L 315.359375 142.417969 C 318.996094 144.238281 320.851562 148.375 319.691406 152.074219 L 304.6875 235.117188 C 297.402344 258.351562 264.066406 289.734375 245.421875 305.917969 C 238.203125 312.183594 227.007812 311.625 219.671875 304.652344 C 201.039062 286.941406 168.164062 252.84375 160.335938 225.996094 L 145.609375 151.769531 C 144.578125 148.21875 146.113281 144.574219 149.320312 142.96875 " fill-opacity="1" fill-rule="nonzero"/><path fill="#000000" d="M 160.980469 225.839844 C 168.761719 252.476562 201.375 286.351562 220.128906 304.171875 C 227.167969 310.863281 238.085938 311.410156 244.984375 305.417969 C 263.945312 288.960938 296.8125 257.933594 304.042969 234.960938 L 319.039062 151.957031 C 319.042969 151.929688 319.050781 151.902344 319.058594 151.875 C 320.121094 148.496094 318.402344 144.683594 315.0625 143.007812 L 299.417969 135.15625 C 277.230469 124.027344 256.679688 109.855469 238.339844 93.027344 C 235.507812 90.429688 231.1875 90.285156 228.503906 92.699219 L 222.816406 97.8125 C 207.632812 111.464844 190.597656 123.058594 172.1875 132.265625 L 149.617188 143.558594 C 146.683594 145.027344 145.296875 148.328125 146.246094 151.582031 C 146.253906 151.601562 146.257812 151.621094 146.261719 151.640625 Z M 233.554688 310.894531 C 228.445312 310.894531 223.234375 308.953125 219.214844 305.132812 C 200.359375 287.210938 167.554688 253.121094 159.699219 226.179688 C 159.695312 226.164062 159.691406 226.144531 159.6875 226.125 L 144.964844 151.921875 C 143.851562 148.054688 145.519531 144.128906 149.027344 142.375 L 171.597656 131.082031 C 189.898438 121.929688 206.832031 110.402344 221.929688 96.828125 L 227.617188 91.714844 C 230.855469 88.804688 235.847656 88.949219 239.230469 92.050781 C 257.488281 108.796875 277.9375 122.902344 300.011719 133.976562 L 315.660156 141.824219 C 319.558594 143.78125 321.558594 148.246094 320.332031 152.234375 L 305.339844 235.238281 C 305.335938 235.265625 305.328125 235.289062 305.320312 235.316406 C 298.019531 258.605469 264.933594 289.859375 245.855469 306.417969 C 242.402344 309.414062 238.015625 310.894531 233.554688 310.894531 " fill-opacity="1" fill-rule="nonzero"/><path fill="#caddff" d="M 164.167969 152.828125 L 182.855469 143.480469 C 198.0625 135.871094 212.109375 126.3125 224.652344 115.03125 L 229.363281 110.796875 C 231.808594 108.597656 235.671875 108.71875 238.242188 111.074219 C 253.382812 124.960938 270.378906 136.683594 288.691406 145.871094 L 301.644531 152.371094 C 304.65625 153.882812 306.1875 157.304688 305.230469 160.367188 L 292.808594 229.125 C 286.777344 248.363281 259.171875 274.347656 243.734375 287.746094 C 237.757812 292.933594 228.492188 292.472656 222.414062 286.699219 C 206.988281 272.035156 179.769531 243.804688 173.289062 221.574219 L 161.09375 160.113281 C 160.238281 157.175781 161.511719 154.15625 164.167969 152.828125 " fill-opacity="1" fill-rule="nonzero"/><path fill="#ffffff" d="M 246.675781 175.207031 L 246.695312 153.121094 C 246.65625 145.984375 241.074219 139.71875 233.921875 138.851562 C 226.035156 137.898438 219.378906 143.824219 219.425781 151.695312 L 219.460938 175.132812 C 219.460938 175.132812 210.9375 176.007812 210.941406 173.8125 L 211.164062 151.570312 C 211.082031 138.929688 221.414062 129.335938 234.5 130.851562 L 234.5 130.863281 C 245.308594 132.117188 255.046875 142.328125 255.121094 153.878906 L 255.023438 176.175781 L 246.675781 175.207031 " fill-opacity="1" fill-rule="nonzero"/><path fill="#000000" d="M 247.335938 174.617188 L 254.363281 175.433594 L 254.457031 153.875 C 254.386719 143.011719 245.214844 132.769531 234.421875 131.519531 C 234.382812 131.515625 234.34375 131.507812 234.304688 131.496094 C 228.277344 130.828125 222.621094 132.554688 218.375 136.363281 C 214.113281 140.179688 211.789062 145.578125 211.828125 151.566406 L 211.601562 173.816406 C 211.601562 173.835938 211.601562 173.878906 211.691406 173.957031 C 212.523438 174.707031 216.15625 174.746094 218.796875 174.527344 L 218.765625 151.695312 C 218.738281 147.765625 220.371094 144.042969 223.238281 141.488281 C 226.121094 138.917969 230.046875 137.714844 234 138.195312 C 241.449219 139.097656 247.316406 145.652344 247.359375 153.117188 Z M 255.023438 176.839844 C 254.996094 176.839844 254.96875 176.835938 254.945312 176.835938 L 246.597656 175.863281 C 246.261719 175.828125 246.011719 175.542969 246.011719 175.207031 L 246.035156 153.121094 C 245.996094 146.316406 240.640625 140.335938 233.839844 139.511719 C 230.210938 139.066406 226.757812 140.125 224.117188 142.476562 C 221.496094 144.8125 220.066406 148.085938 220.089844 151.691406 L 220.125 175.132812 C 220.125 175.46875 219.867188 175.753906 219.53125 175.789062 C 218.363281 175.910156 212.457031 176.433594 210.800781 174.9375 C 210.460938 174.628906 210.277344 174.238281 210.28125 173.808594 L 210.5 151.566406 C 210.460938 145.203125 212.941406 139.449219 217.488281 135.375 C 222.054688 131.285156 228.121094 129.449219 234.578125 130.195312 C 234.617188 130.199219 234.660156 130.207031 234.699219 130.21875 C 246.066406 131.609375 255.710938 142.410156 255.785156 153.875 L 255.683594 176.179688 C 255.683594 176.367188 255.601562 176.546875 255.460938 176.671875 C 255.339844 176.777344 255.179688 176.839844 255.023438 176.839844 " fill-opacity="1" fill-rule="nonzero"/><path fill="#5479f7" d="M 241.542969 233.4375 L 232.183594 233.804688 C 219.175781 233.484375 206.796875 218.109375 206.972656 200.035156 L 207.257812 171.128906 L 262.445312 170.6875 C 267.34375 170.667969 271.703125 174.996094 271.648438 179.839844 L 271.367188 204.253906 C 271.207031 220.679688 258.167969 233.4375 241.542969 233.4375 " fill-opacity="1" fill-rule="nonzero"/><path fill="#ffffff" d="M 232.476562 232.984375 C 214.183594 232.984375 198.820312 217.652344 199 199.582031 L 199.277344 171.554688 L 257.652344 171.554688 C 260.339844 171.554688 262.59375 173.804688 262.570312 176.457031 L 262.296875 203.800781 C 262.136719 220.230469 249.097656 232.984375 232.476562 232.984375 " fill-opacity="1" fill-rule="nonzero"/><path fill="#000000" d="M 232.476562 233.648438 C 224.660156 233.648438 216.960938 230.84375 210.796875 225.757812 C 204.722656 220.742188 200.53125 213.859375 198.996094 206.375 C 198.921875 206.015625 199.152344 205.664062 199.511719 205.59375 C 199.871094 205.519531 200.21875 205.75 200.292969 206.105469 C 203.363281 221.054688 217.199219 232.324219 232.476562 232.324219 C 248.667969 232.324219 261.476562 219.792969 261.636719 203.792969 L 261.90625 176.308594 C 261.917969 175.253906 261.496094 174.238281 260.71875 173.453125 C 259.941406 172.667969 258.875 172.21875 257.800781 172.21875 L 203.847656 172.21875 C 201.652344 172.21875 199.914062 173.910156 199.894531 176.078125 L 199.855469 179.90625 C 199.851562 180.273438 199.558594 180.566406 199.195312 180.566406 C 199.191406 180.566406 199.191406 180.566406 199.1875 180.566406 C 198.824219 180.5625 198.527344 180.261719 198.53125 179.894531 L 198.570312 176.066406 C 198.597656 173.164062 200.917969 170.894531 203.847656 170.894531 L 257.800781 170.894531 C 259.226562 170.894531 260.632812 171.488281 261.664062 172.523438 C 262.6875 173.558594 263.246094 174.90625 263.234375 176.324219 L 262.960938 203.808594 C 262.796875 220.539062 249.40625 233.648438 232.476562 233.648438 " fill-opacity="1" fill-rule="nonzero"/><path fill="#000000" d="M 230.714844 215.257812 C 229.222656 215.257812 227.96875 214.011719 227.976562 212.539062 L 228.109375 190.75 C 228.117188 189.40625 229.183594 188.355469 230.546875 188.355469 C 232.035156 188.355469 233.289062 189.601562 233.28125 191.074219 L 233.148438 212.863281 C 233.140625 214.207031 232.074219 215.257812 230.714844 215.257812 " fill-opacity="1" fill-rule="nonzero"/><path fill="#000000" d="M 239.804688 192.730469 C 240.109375 197.929688 236.101562 202.144531 230.851562 202.144531 C 225.605469 202.144531 221.105469 197.929688 220.800781 192.730469 C 220.496094 187.535156 224.507812 183.320312 229.753906 183.320312 C 235.003906 183.320312 239.503906 187.535156 239.804688 192.730469 " fill-opacity="1" fill-rule="nonzero"/><path fill="#ffffff" d="M 141.160156 213.796875 C 141.164062 213.230469 109.4375 208.222656 107.390625 202.429688 C 104.339844 193.785156 100.53125 183.390625 100.53125 183.390625 L 92.609375 188.390625 L 97.707031 213.261719 L 141.160156 213.796875 " fill-opacity="1" fill-rule="nonzero"/><path fill="#000000" d="M 98.25 212.609375 L 135.183594 213.0625 C 121.152344 210.050781 108.199219 206.699219 106.765625 202.652344 C 104.226562 195.457031 101.128906 186.953125 100.191406 184.390625 L 93.347656 188.707031 Z M 141.160156 214.460938 C 141.15625 214.460938 141.15625 214.460938 141.152344 214.460938 L 97.699219 213.925781 C 97.390625 213.921875 97.121094 213.699219 97.0625 213.394531 L 91.960938 188.523438 C 91.90625 188.253906 92.023438 187.976562 92.253906 187.832031 L 100.175781 182.832031 C 100.347656 182.726562 100.554688 182.699219 100.746094 182.765625 C 100.933594 182.832031 101.085938 182.976562 101.152344 183.164062 C 101.191406 183.269531 104.996094 193.660156 108.015625 202.207031 C 109.4375 206.230469 128.378906 210.261719 136.464844 211.980469 C 141.824219 213.121094 141.824219 213.121094 141.824219 213.800781 C 141.820312 213.976562 141.75 214.144531 141.625 214.269531 C 141.5 214.390625 141.332031 214.460938 141.160156 214.460938 " fill-opacity="1" fill-rule="nonzero"/><path fill="#5479f7" d="M 50.679688 156.667969 C 58.246094 154.199219 69.769531 152.429688 83.546875 156.816406 C 88.570312 158.414062 92.175781 162.832031 92.796875 168.0625 L 104.019531 232.640625 C 104.574219 237.332031 98.296875 241.894531 93.871094 243.574219 C 89.25 245.320312 82.265625 246.976562 72.375 246.976562 C 61.769531 246.976562 54.0625 247.589844 49.761719 245.710938 C 46.195312 244.148438 40.820312 240.371094 40.640625 236.480469 L 41.417969 170.105469 C 41.140625 164.054688 44.917969 158.546875 50.679688 156.667969 " fill-opacity="1" fill-rule="nonzero"/><path fill="#5479f7" d="M 103.675781 184.414062 C 103.675781 184.414062 94.71875 159.617188 84.671875 157.230469 L 89.78125 192.367188 L 103.675781 184.414062 " fill-opacity="1" fill-rule="nonzero"/><path fill="#5479f7" d="M 29.785156 196.613281 C 29.785156 196.613281 30.769531 180.019531 32.203125 173.609375 C 35.222656 160.125 48.09375 158.082031 48.09375 158.082031 L 49.65625 194.304688 L 29.785156 196.613281 " fill-opacity="1" fill-rule="nonzero"/><path fill="#ffffff" d="M 32.296875 195.921875 C 32.296875 195.921875 31.328125 208.574219 36.34375 217.070312 C 42.335938 227.214844 72.558594 213.550781 72.558594 213.550781 L 76.074219 211.5625 C 78.449219 210.21875 81.28125 209.929688 83.882812 210.765625 L 89.5625 212.597656 C 89.5625 212.597656 84.871094 206.980469 80.882812 204.832031 C 79.015625 203.824219 76.589844 204.777344 74.542969 206.074219 C 71.023438 208.304688 66.878906 209.347656 62.710938 209.226562 L 50.6875 208.867188 C 48.667969 208.804688 47.015625 207.246094 46.839844 205.234375 L 45.925781 194.769531 L 32.296875 195.921875 " fill-opacity="1" fill-rule="nonzero"/><path fill="#000000" d="M 32.925781 196.53125 C 32.816406 199.054688 32.65625 209.519531 36.914062 216.734375 C 38.40625 219.257812 41.570312 220.1875 45.421875 220.1875 C 55.914062 220.1875 71.5 213.296875 72.257812 212.960938 L 75.746094 210.988281 C 78.277344 209.554688 81.316406 209.246094 84.085938 210.136719 L 87.4375 211.21875 C 85.742188 209.414062 83 206.722656 80.570312 205.414062 C 78.898438 204.515625 76.5625 205.578125 74.898438 206.632812 C 71.328125 208.894531 67.105469 210.015625 62.691406 209.886719 L 50.667969 209.527344 C 48.3125 209.457031 46.382812 207.636719 46.179688 205.292969 L 45.324219 195.484375 Z M 45.507812 221.46875 C 41.171875 221.46875 37.535156 220.390625 35.773438 217.40625 C 30.710938 208.832031 31.59375 196.394531 31.632812 195.871094 C 31.660156 195.546875 31.914062 195.289062 32.238281 195.261719 L 45.871094 194.109375 C 46.238281 194.082031 46.554688 194.347656 46.585938 194.710938 L 47.5 205.179688 C 47.644531 206.855469 49.027344 208.15625 50.707031 208.207031 L 62.730469 208.5625 C 66.878906 208.683594 70.84375 207.632812 74.191406 205.515625 C 77.042969 203.707031 79.402344 203.28125 81.199219 204.25 C 85.253906 206.433594 89.875 211.941406 90.070312 212.171875 C 90.257812 212.402344 90.273438 212.726562 90.109375 212.96875 C 89.945312 213.210938 89.636719 213.320312 89.359375 213.230469 L 83.679688 211.398438 C 81.261719 210.617188 78.609375 210.890625 76.398438 212.140625 L 72.882812 214.128906 C 72.867188 214.136719 72.847656 214.144531 72.832031 214.152344 C 71.929688 214.5625 56.476562 221.46875 45.507812 221.46875 " fill-opacity="1" fill-rule="nonzero"/><path fill="#ffffff" d="M 78.671875 335.078125 L 72.121094 354.613281 C 72.121094 354.613281 79.257812 354.003906 79.941406 354.140625 C 80.621094 354.273438 88.96875 336.324219 88.96875 336.324219 L 78.671875 335.078125 " fill-opacity="1" fill-rule="nonzero"/><path fill="#000000" d="M 80.035156 353.484375 C 80.046875 353.484375 80.058594 353.488281 80.066406 353.488281 C 80.054688 353.484375 80.046875 353.484375 80.035156 353.484375 Z M 79.128906 335.800781 L 73.070312 353.871094 C 75.066406 353.707031 78.496094 353.453125 79.707031 353.464844 C 80.746094 352.0625 85.117188 343.007812 87.984375 336.871094 Z M 72.121094 355.277344 C 71.917969 355.277344 71.726562 355.183594 71.601562 355.023438 C 71.464844 354.847656 71.421875 354.613281 71.492188 354.402344 L 78.046875 334.867188 C 78.144531 334.570312 78.4375 334.382812 78.753906 334.421875 L 89.050781 335.667969 C 89.261719 335.691406 89.445312 335.816406 89.550781 336 C 89.652344 336.1875 89.660156 336.410156 89.570312 336.601562 C 89.550781 336.648438 87.457031 341.144531 85.308594 345.570312 C 80.742188 354.96875 80.449219 354.914062 79.8125 354.789062 C 79.355469 354.71875 75.570312 354.984375 72.179688 355.273438 C 72.160156 355.273438 72.140625 355.277344 72.121094 355.277344 " fill-opacity="1" fill-rule="nonzero"/><path fill="#99b9ff" d="M 73.621094 350.320312 C 73.621094 350.320312 83.476562 346.285156 85.296875 351.347656 C 87.617188 357.792969 91.238281 367.625 91.238281 367.625 C 91.855469 369.335938 90.671875 371.160156 88.859375 371.308594 C 85.257812 371.59375 79.886719 371.832031 77.386719 370.953125 C 73.433594 369.570312 66.882812 357.074219 66.882812 357.074219 L 68.902344 346.445312 C 68.902344 346.445312 72.476562 345.941406 73.621094 350.320312 " fill-opacity="1" fill-rule="nonzero"/><path fill="#000000" d="M 67.574219 356.96875 C 69.460938 360.523438 74.625 369.28125 77.605469 370.328125 C 79.429688 370.96875 83.40625 371.082031 88.808594 370.644531 C 89.464844 370.59375 90.046875 370.246094 90.402344 369.691406 C 90.761719 369.140625 90.839844 368.46875 90.617188 367.847656 C 90.582031 367.753906 86.964844 357.945312 84.675781 351.574219 C 84.394531 350.789062 83.875 350.238281 83.09375 349.894531 C 79.933594 348.488281 73.933594 350.90625 73.875 350.933594 C 73.695312 351.007812 73.496094 351 73.328125 350.914062 C 73.15625 350.828125 73.03125 350.671875 72.980469 350.488281 C 72.21875 347.582031 70.332031 347.132812 69.453125 347.085938 Z M 83.058594 372.230469 C 80.730469 372.230469 78.554688 372.0625 77.164062 371.578125 C 73.085938 370.148438 66.976562 358.683594 66.292969 357.382812 C 66.226562 357.25 66.203125 357.097656 66.230469 356.949219 L 68.25 346.320312 C 68.304688 346.042969 68.527344 345.828125 68.808594 345.789062 C 68.847656 345.785156 72.574219 345.3125 74.046875 349.449219 C 75.816406 348.820312 80.609375 347.339844 83.628906 348.683594 C 84.746094 349.175781 85.515625 350 85.921875 351.125 C 88.210938 357.492188 91.824219 367.296875 91.859375 367.394531 C 92.226562 368.410156 92.101562 369.507812 91.519531 370.410156 C 90.933594 371.3125 89.984375 371.878906 88.914062 371.964844 C 87.105469 372.109375 85.027344 372.230469 83.058594 372.230469 " fill-opacity="1" fill-rule="nonzero"/><path fill="#000000" d="M 88.714844 367.710938 L 78.59375 367.710938 C 78.230469 367.710938 77.933594 367.417969 77.933594 367.050781 C 77.933594 366.683594 78.230469 366.386719 78.59375 366.386719 L 88.714844 366.386719 C 89.082031 366.386719 89.378906 366.683594 89.378906 367.050781 C 89.378906 367.417969 89.082031 367.710938 88.714844 367.710938 " fill-opacity="1" fill-rule="nonzero"/><path fill="#ffffff" d="M 60.09375 339.878906 L 62.320312 359.53125 L 71.277344 357.074219 L 70.589844 339.371094 L 60.09375 339.878906 " fill-opacity="1" fill-rule="nonzero"/><path fill="#000000" d="M 60.832031 340.503906 L 62.894531 358.6875 L 70.59375 356.574219 L 69.953125 340.0625 Z M 62.320312 360.191406 C 62.191406 360.191406 62.0625 360.152344 61.949219 360.078125 C 61.789062 359.96875 61.6875 359.796875 61.664062 359.605469 L 59.4375 339.953125 C 59.417969 339.773438 59.472656 339.589844 59.589844 339.449219 C 59.710938 339.308594 59.878906 339.226562 60.0625 339.21875 L 70.554688 338.710938 C 70.734375 338.703125 70.90625 338.761719 71.035156 338.882812 C 71.167969 339 71.242188 339.167969 71.25 339.34375 L 71.9375 357.046875 C 71.949219 357.355469 71.75 357.632812 71.453125 357.714844 L 62.496094 360.167969 C 62.441406 360.183594 62.382812 360.191406 62.320312 360.191406 " fill-opacity="1" fill-rule="nonzero"/><path fill="#99b9ff" d="M 61.476562 374.007812 L 75.648438 374.007812 C 77.566406 374.007812 79.039062 372.308594 78.757812 370.414062 C 78.28125 367.214844 76.742188 361.910156 72.121094 354.613281 C 71.617188 353.816406 70.738281 353.332031 69.792969 353.332031 L 65.484375 353.332031 C 64.742188 353.332031 64.117188 353.894531 64.039062 354.632812 L 63.714844 357.738281 L 61.839844 355.265625 C 61.839844 355.265625 58.488281 362.3125 58.332031 370.808594 C 58.300781 372.566406 59.71875 374.007812 61.476562 374.007812 " fill-opacity="1" fill-rule="nonzero"/><path fill="#000000" d="M 62 356.574219 C 61.097656 358.804688 59.113281 364.425781 58.996094 370.820312 C 58.984375 371.492188 59.234375 372.121094 59.707031 372.601562 C 60.175781 373.078125 60.804688 373.34375 61.476562 373.34375 L 75.648438 373.34375 C 76.371094 373.34375 77.054688 373.03125 77.527344 372.484375 C 77.996094 371.941406 78.207031 371.222656 78.101562 370.511719 C 77.640625 367.40625 76.132812 362.1875 71.5625 354.96875 C 71.183594 354.367188 70.503906 353.996094 69.792969 353.996094 L 65.484375 353.996094 C 65.078125 353.996094 64.742188 354.300781 64.699219 354.699219 L 64.375 357.808594 C 64.34375 358.078125 64.15625 358.304688 63.890625 358.378906 C 63.628906 358.449219 63.351562 358.355469 63.1875 358.140625 Z M 75.648438 374.667969 L 61.476562 374.667969 C 60.445312 374.667969 59.480469 374.265625 58.761719 373.527344 C 58.039062 372.792969 57.652344 371.824219 57.671875 370.796875 C 57.828125 362.253906 61.101562 355.273438 61.242188 354.980469 C 61.339844 354.769531 61.539062 354.628906 61.769531 354.605469 C 62 354.585938 62.226562 354.679688 62.367188 354.863281 L 63.230469 356.003906 L 63.382812 354.5625 C 63.492188 353.484375 64.398438 352.671875 65.484375 352.671875 L 69.792969 352.671875 C 70.972656 352.671875 72.050781 353.265625 72.679688 354.261719 C 77.378906 361.675781 78.933594 367.085938 79.410156 370.316406 C 79.574219 371.40625 79.253906 372.515625 78.53125 373.347656 C 77.804688 374.1875 76.753906 374.667969 75.648438 374.667969 " fill-opacity="1" fill-rule="nonzero"/><path fill="#000000" d="M 77.386719 371.285156 L 60.421875 371.285156 C 60.058594 371.285156 59.761719 370.988281 59.761719 370.621094 C 59.761719 370.257812 60.058594 369.960938 60.421875 369.960938 L 77.386719 369.960938 C 77.75 369.960938 78.046875 370.257812 78.046875 370.621094 C 78.046875 370.988281 77.75 371.285156 77.386719 371.285156 " fill-opacity="1" fill-rule="nonzero"/><path fill="#000000" d="M 93.730469 221.867188 C 93.355469 220.964844 92.609375 220.269531 91.671875 219.976562 C 86.492188 218.351562 68.425781 214.070312 49.832031 225.988281 C 48.953125 226.550781 48.390625 227.492188 48.316406 228.53125 C 47.644531 237.976562 45.136719 287.339844 60.765625 345.789062 L 71.292969 345.042969 L 73.4375 245.101562 C 73.4375 245.101562 89.03125 281.738281 76.351562 340.046875 L 87.300781 342.066406 C 87.300781 342.066406 103.324219 321.015625 106.195312 288.84375 C 108.734375 260.382812 96.570312 228.78125 93.730469 221.867188 " fill-opacity="1" fill-rule="nonzero"/><path fill="#ffffff" d="M 63.449219 299.589844 C 63.4375 299.589844 63.429688 299.589844 63.417969 299.589844 C 53.472656 299.160156 52.351562 285.691406 52.339844 285.554688 C 52.3125 285.1875 52.585938 284.871094 52.953125 284.84375 C 53.320312 284.816406 53.632812 285.089844 53.660156 285.453125 C 53.671875 285.578125 54.707031 297.886719 63.476562 298.265625 C 63.839844 298.28125 64.125 298.59375 64.109375 298.957031 C 64.09375 299.3125 63.800781 299.589844 63.449219 299.589844 " fill-opacity="1" fill-rule="nonzero"/><path fill="#ffffff" d="M 74.355469 254.929688 C 73.996094 254.929688 73.703125 254.644531 73.691406 254.285156 L 73.320312 241.785156 C 73.316406 241.5625 73.421875 241.351562 73.601562 241.222656 L 80.164062 236.613281 C 80.464844 236.402344 80.878906 236.476562 81.089844 236.773438 C 81.296875 237.074219 81.226562 237.484375 80.925781 237.695312 L 74.65625 242.101562 L 75.015625 254.246094 C 75.027344 254.609375 74.742188 254.917969 74.375 254.925781 C 74.367188 254.929688 74.359375 254.929688 74.355469 254.929688 " fill-opacity="1" fill-rule="nonzero"/><path fill="#000000" d="M 69.410156 132.960938 C 73.414062 129.519531 74.328125 129.050781 75.492188 127.078125 C 76.441406 125.472656 78.566406 121.882812 77.128906 118.085938 C 75.886719 114.804688 72.460938 112.824219 69.304688 112.652344 C 66.472656 112.5 64.40625 113.839844 63.3125 114.546875 C 62.835938 114.855469 58.621094 117.664062 57.789062 122.25 C 57.566406 123.496094 57.734375 124.070312 57.164062 124.847656 C 55.886719 126.605469 53.570312 125.710938 51.964844 127.167969 C 49.949219 129 50.882812 132.902344 50.960938 133.203125 C 52.011719 137.367188 56.515625 140.125 60.179688 139.742188 C 62.296875 139.519531 62.070312 139.269531 69.410156 132.960938 " fill-opacity="1" fill-rule="nonzero"/><path fill="#ffffff" d="M 58.378906 153.539062 C 60.3125 152.257812 61.445312 150.066406 61.390625 147.75 L 61.171875 138.128906 C 61.105469 138.066406 61.039062 138.007812 60.976562 137.949219 C 60.976562 137.949219 57.117188 138.203125 56.558594 136.242188 C 55.996094 134.28125 58.722656 133.902344 58.722656 133.902344 C 58.722656 133.902344 56.148438 128.488281 62.808594 128.550781 C 64.597656 128.566406 65.238281 125.601562 68.171875 124.9375 C 68.171875 124.9375 69.625 124.8125 71.097656 128.617188 L 74.320312 133.386719 L 72.710938 134.269531 C 73.105469 136.082031 73.277344 138.082031 73.035156 140.199219 C 72.964844 140.808594 72.542969 141.324219 71.957031 141.511719 C 71.472656 141.667969 70.820312 141.835938 70.054688 141.925781 L 70.570312 148.363281 C 70.800781 151.183594 72.277344 153.746094 74.59375 155.371094 C 76.832031 156.941406 78.898438 158.050781 78.898438 158.050781 C 78.898438 158.050781 67.019531 159.675781 53.359375 156.558594 C 53.359375 156.558594 55.996094 155.117188 58.378906 153.539062 " fill-opacity="1" fill-rule="nonzero"/><path fill="#000000" d="M 68.230469 125.597656 Z M 58.378906 153.539062 L 58.386719 153.539062 Z M 55.199219 156.273438 C 64.636719 158.183594 73.058594 157.875 76.78125 157.589844 C 76.046875 157.140625 75.148438 156.570312 74.214844 155.914062 C 71.722656 154.167969 70.15625 151.4375 69.910156 148.417969 L 69.390625 141.976562 C 69.363281 141.621094 69.621094 141.308594 69.976562 141.265625 C 70.585938 141.195312 71.183594 141.066406 71.753906 140.882812 C 72.089844 140.773438 72.335938 140.476562 72.375 140.125 C 72.589844 138.261719 72.484375 136.339844 72.0625 134.410156 C 72 134.125 72.132812 133.832031 72.390625 133.6875 L 73.363281 133.152344 L 70.550781 128.988281 C 70.519531 128.949219 70.496094 128.902344 70.480469 128.859375 C 69.40625 126.078125 68.425781 125.667969 68.21875 125.609375 C 66.921875 125.933594 66.152344 126.78125 65.410156 127.601562 C 64.6875 128.398438 63.933594 129.230469 62.804688 129.210938 C 60.972656 129.183594 59.757812 129.605469 59.226562 130.4375 C 58.4375 131.675781 59.3125 133.601562 59.320312 133.617188 C 59.410156 133.808594 59.40625 134.03125 59.304688 134.21875 C 59.203125 134.402344 59.023438 134.53125 58.8125 134.558594 C 58.515625 134.601562 57.582031 134.835938 57.257812 135.335938 C 57.175781 135.460938 57.082031 135.667969 57.195312 136.058594 C 57.53125 137.238281 60.070312 137.34375 60.933594 137.285156 C 61.121094 137.277344 61.296875 137.339844 61.433594 137.464844 L 61.621094 137.640625 C 61.75 137.765625 61.828125 137.933594 61.832031 138.113281 L 62.054688 147.734375 C 62.113281 150.304688 60.875 152.683594 58.746094 154.089844 C 57.503906 154.914062 56.179688 155.707031 55.199219 156.273438 Z M 70.96875 159.125 C 66.261719 159.125 59.929688 158.734375 53.210938 157.203125 C 52.945312 157.140625 52.742188 156.921875 52.703125 156.648438 C 52.667969 156.375 52.800781 156.109375 53.042969 155.976562 C 53.070312 155.960938 55.683594 154.527344 58.015625 152.988281 C 59.761719 151.832031 60.777344 149.878906 60.726562 147.765625 L 60.519531 138.625 C 60.507812 138.625 60.492188 138.625 60.480469 138.625 C 59.257812 138.625 56.484375 138.398438 55.921875 136.421875 C 55.730469 135.761719 55.808594 135.132812 56.148438 134.613281 C 56.566406 133.972656 57.285156 133.621094 57.84375 133.4375 C 57.570312 132.535156 57.300781 130.988281 58.109375 129.726562 C 58.902344 128.484375 60.488281 127.871094 62.816406 127.886719 C 62.820312 127.886719 62.820312 127.886719 62.824219 127.886719 C 63.335938 127.886719 63.765625 127.441406 64.429688 126.710938 C 65.246094 125.8125 66.261719 124.691406 68.027344 124.292969 C 68.058594 124.285156 68.085938 124.28125 68.117188 124.277344 C 68.441406 124.242188 70.125 124.320312 71.6875 128.3125 L 74.871094 133.015625 C 74.972656 133.171875 75.007812 133.359375 74.964844 133.542969 C 74.921875 133.722656 74.800781 133.878906 74.640625 133.964844 L 73.457031 134.613281 C 73.828125 136.523438 73.90625 138.425781 73.691406 140.277344 C 73.59375 141.140625 72.992188 141.875 72.160156 142.140625 C 71.710938 142.289062 71.242188 142.40625 70.761719 142.488281 L 71.230469 148.3125 C 71.445312 150.933594 72.808594 153.3125 74.976562 154.832031 C 77.152344 156.355469 79.191406 157.453125 79.210938 157.464844 C 79.464844 157.601562 79.601562 157.886719 79.550781 158.167969 C 79.5 158.449219 79.273438 158.667969 78.988281 158.703125 C 78.925781 158.710938 75.804688 159.125 70.96875 159.125 " fill-opacity="1" fill-rule="nonzero"/><path fill="#ffffff" d="M 70.054688 141.925781 C 70.054688 141.925781 65.824219 142.074219 64.144531 139.773438 L 70.054688 141.925781 " fill-opacity="1" fill-rule="nonzero"/><path fill="#000000" d="M 69.878906 142.585938 C 68.976562 142.585938 65.277344 142.445312 63.613281 140.164062 C 63.394531 139.867188 63.460938 139.453125 63.757812 139.238281 C 64.050781 139.023438 64.464844 139.089844 64.683594 139.382812 C 65.890625 141.035156 68.949219 141.296875 70.03125 141.261719 C 70.40625 141.242188 70.703125 141.539062 70.714844 141.898438 C 70.726562 142.265625 70.441406 142.570312 70.074219 142.585938 C 70.054688 142.585938 69.988281 142.585938 69.878906 142.585938 " fill-opacity="1" fill-rule="nonzero"/><path fill="#000000" d="M 148.203125 211.292969 L 107.757812 211.292969 L 137.742188 165.214844 C 138.679688 163.773438 140.3125 162.902344 142.0625 162.902344 L 174.886719 162.902344 C 176.972656 162.902344 178.238281 165.132812 177.125 166.839844 L 148.203125 211.292969 " fill-opacity="1" fill-rule="nonzero"/><path fill="#caddff" d="M 156.828125 179.058594 C 155.515625 181.078125 152.691406 182.71875 150.515625 182.71875 C 148.34375 182.71875 147.648438 181.078125 148.960938 179.058594 C 150.277344 177.039062 153.105469 175.402344 155.277344 175.402344 C 157.449219 175.402344 158.144531 177.039062 156.828125 179.058594 " fill-opacity="1" fill-rule="nonzero"/><path fill="#000000" d="M 147.046875 215.140625 L 73.957031 215.140625 C 73.238281 215.140625 72.65625 214.558594 72.65625 213.839844 L 72.65625 210.964844 L 148.347656 210.964844 L 148.347656 213.839844 C 148.347656 214.558594 147.765625 215.140625 147.046875 215.140625 " fill-opacity="1" fill-rule="nonzero"/><path fill="#ffffff" d="M 146.097656 211.996094 L 111.367188 211.996094 C 111 211.996094 110.703125 211.699219 110.703125 211.335938 C 110.703125 210.96875 111 210.671875 111.367188 210.671875 L 146.097656 210.671875 C 146.464844 210.671875 146.761719 210.96875 146.761719 211.335938 C 146.761719 211.699219 146.464844 211.996094 146.097656 211.996094 " fill-opacity="1" fill-rule="nonzero"/><path fill="#5479f7" d="M 303.371094 346.277344 L 334.585938 346.277344 C 334.585938 346.277344 338.863281 372.285156 320.238281 374.359375 C 301.609375 376.4375 303.371094 346.277344 303.371094 346.277344 " fill-opacity="1" fill-rule="nonzero"/><path fill="#99b9ff" d="M 312.730469 339.917969 C 310.503906 339.984375 305.75 340.054688 301.277344 337.007812 C 299.617188 335.882812 295.074219 332.785156 295.5 328.71875 C 295.863281 325.226562 299.777344 322.015625 305.089844 321.4375 C 298.785156 322.183594 293.714844 317.464844 293.707031 312.589844 C 293.699219 308.855469 296.667969 305.148438 301.046875 303.917969 C 294.257812 298.792969 290.6875 290.527344 291.816406 282.328125 C 292.917969 274.347656 298.445312 266.496094 306.785156 264.074219 C 307.835938 263.769531 316.902344 261.285156 323.433594 266.847656 C 328.914062 271.511719 328.976562 278.753906 329.015625 283.6875 C 329.089844 292.46875 325.566406 299.140625 323.433594 302.492188 C 323.878906 302.460938 328.386719 300.980469 332.597656 304.71875 C 336.890625 308.53125 337.101562 317.285156 335.007812 320.75 C 332.820312 324.378906 327.542969 323.613281 326.605469 323.878906 C 330.554688 327.359375 330.414062 330.261719 330.371094 330.808594 C 329.921875 336.472656 319.644531 339.714844 312.730469 339.917969 " fill-opacity="1" fill-rule="nonzero"/><path fill="#ffffff" d="M 314.992188 344.039062 C 314.960938 344.039062 314.929688 344.035156 314.902344 344.03125 C 314.539062 343.984375 314.285156 343.652344 314.332031 343.289062 C 318.308594 313.964844 309.019531 280.863281 308.925781 280.535156 C 308.824219 280.179688 309.027344 279.8125 309.378906 279.714844 C 309.734375 279.613281 310.097656 279.816406 310.199219 280.167969 C 310.296875 280.503906 319.65625 313.863281 315.648438 343.464844 C 315.597656 343.796875 315.316406 344.039062 314.992188 344.039062 " fill-opacity="1" fill-rule="nonzero"/><path fill="#99b9ff" d="M 319.484375 341.273438 C 318.773438 339.539062 315.703125 331.539062 319.683594 324.792969 C 320.5 323.40625 323.242188 318.769531 327.21875 319.097656 C 330.183594 319.339844 332.050781 322.199219 332.464844 322.863281 C 331.269531 318.515625 333.414062 314.109375 336.992188 312.585938 C 341.21875 310.789062 346.835938 313.277344 348.394531 318.488281 C 349.433594 318.191406 352.257812 317.546875 355.113281 318.894531 C 358.859375 320.664062 361.121094 325.144531 360.609375 330.082031 C 359.042969 335.378906 354.203125 338.617188 349.613281 338.019531 C 344.628906 337.363281 342.246094 332.472656 342.082031 332.117188 C 342.859375 333.335938 344 335.609375 343.304688 337.8125 C 342.125 341.519531 336.292969 343.359375 332.105469 342.289062 C 328.21875 341.296875 327.089844 338.140625 323.960938 338.421875 C 321.898438 338.609375 320.367188 340.160156 319.484375 341.273438 " fill-opacity="1" fill-rule="nonzero"/><path fill="#caddff" d="M 319.171875 343.703125 C 319.132812 343.703125 319.09375 343.699219 319.054688 343.691406 C 318.695312 343.628906 318.453125 343.285156 318.519531 342.925781 C 318.609375 342.417969 320.84375 330.472656 332.015625 326.226562 C 340.039062 323.175781 347.242188 326.222656 349.257812 327.226562 C 349.585938 327.390625 349.71875 327.789062 349.554688 328.117188 C 349.390625 328.441406 348.992188 328.574219 348.667969 328.414062 C 346.773438 327.46875 340.007812 324.605469 332.484375 327.464844 C 322.007812 331.445312 319.90625 342.679688 319.820312 343.15625 C 319.765625 343.476562 319.488281 343.703125 319.171875 343.703125 " fill-opacity="1" fill-rule="nonzero"/><path fill="#99b9ff" d="M 61.0625 78.757812 L 8.453125 77.945312 C 5.917969 77.90625 3.828125 79.832031 3.792969 82.25 L 3.472656 103.007812 C 3.433594 105.425781 5.460938 107.417969 7.996094 107.457031 L 47.386719 108.066406 L 58.742188 116.648438 L 58.871094 108.242188 L 60.605469 108.269531 C 63.140625 108.3125 65.226562 106.382812 65.265625 103.964844 L 65.585938 83.203125 C 65.625 80.785156 63.597656 78.792969 61.0625 78.757812 " fill-opacity="1" fill-rule="nonzero"/><path fill="#5479f7" d="M 10.804688 93.957031 L 7.171875 92.90625 L 7.824219 90.902344 L 11.421875 92.289062 L 11.242188 88.203125 L 13.375 88.203125 L 13.195312 92.363281 L 16.730469 90.996094 L 17.375 93.039062 L 13.683594 94.085938 L 16.066406 97.25 L 14.339844 98.511719 L 12.195312 95.082031 L 10.078125 98.402344 L 8.339844 97.191406 L 10.804688 93.957031 " fill-opacity="1" fill-rule="nonzero"/><path fill="#5479f7" d="M 21.578125 93.957031 L 17.945312 92.90625 L 18.601562 90.902344 L 22.195312 92.289062 L 22.019531 88.203125 L 24.148438 88.203125 L 23.96875 92.363281 L 27.507812 90.996094 L 28.148438 93.039062 L 24.457031 94.085938 L 26.839844 97.25 L 25.113281 98.511719 L 22.96875 95.082031 L 20.851562 98.402344 L 19.113281 97.191406 L 21.578125 93.957031 " fill-opacity="1" fill-rule="nonzero"/><path fill="#5479f7" d="M 32.351562 93.957031 L 28.722656 92.90625 L 29.375 90.902344 L 32.972656 92.289062 L 32.792969 88.203125 L 34.921875 88.203125 L 34.746094 92.363281 L 38.28125 90.996094 L 38.925781 93.039062 L 35.234375 94.085938 L 37.613281 97.25 L 35.886719 98.511719 L 33.746094 95.082031 L 31.625 98.402344 L 29.886719 97.191406 L 32.351562 93.957031 " fill-opacity="1" fill-rule="nonzero"/><path fill="#5479f7" d="M 43.125 93.957031 L 39.496094 92.90625 L 40.148438 90.902344 L 43.746094 92.289062 L 43.566406 88.203125 L 45.699219 88.203125 L 45.519531 92.363281 L 49.054688 90.996094 L 49.699219 93.039062 L 46.007812 94.085938 L 48.390625 97.25 L 46.664062 98.511719 L 44.519531 95.082031 L 42.398438 98.402344 L 40.664062 97.191406 L 43.125 93.957031 " fill-opacity="1" fill-rule="nonzero"/><path fill="#5479f7" d="M 53.902344 93.957031 L 50.269531 92.90625 L 50.925781 90.902344 L 54.519531 92.289062 L 54.34375 88.203125 L 56.472656 88.203125 L 56.292969 92.363281 L 59.828125 90.996094 L 60.472656 93.039062 L 56.78125 94.085938 L 59.164062 97.25 L 57.4375 98.511719 L 55.292969 95.082031 L 53.175781 98.402344 L 51.4375 97.191406 L 53.902344 93.957031 " fill-opacity="1" fill-rule="nonzero"/></svg>