<?xml version="1.0" encoding="utf-8"?><!-- Uploaded to: SVG Repo, www.svgrepo.com, Generator: SVG Repo Mixer Tools -->
<svg width="800px" height="800px" viewBox="0 0 24 24" fill="none" xmlns="http://www.w3.org/2000/svg">
<path fill-rule="evenodd" clip-rule="evenodd" d="M14.7362 2.76196H8.08424C6.02524 2.76196 4.25024 4.43096 4.25024 6.49096V17.228C4.25024 19.404 5.90824 21.115 8.08424 21.115H16.0722C18.1322 21.115 19.8022 19.288 19.8022 17.228V8.03796L14.7362 2.76196Z" stroke="#130F26" stroke-width="1.5" stroke-linecap="round" stroke-linejoin="round"/>
<path d="M14.4735 2.75024V5.65924C14.4735 7.07924 15.6225 8.23124 17.0425 8.23424C18.3585 8.23724 19.7055 8.23824 19.7965 8.23224" stroke="#130F26" stroke-width="1.5" stroke-linecap="round" stroke-linejoin="round"/>
<path opacity="0.4" fill-rule="evenodd" clip-rule="evenodd" d="M12.1716 8.91098C12.0308 8.76962 11.8395 8.69017 11.6401 8.69019C11.4406 8.6902 11.2493 8.76969 11.1086 8.91107L8.27058 11.7621C7.97836 12.0556 7.97945 12.5305 8.27301 12.8227C8.56657 13.1149 9.04144 13.1139 9.33366 12.8203L10.8906 11.2563V16.0137C10.8906 16.4279 11.2264 16.7637 11.6406 16.7637C12.0548 16.7637 12.3906 16.4279 12.3906 16.0137V11.2567L13.9477 12.8204C14.24 13.1139 14.7148 13.1149 15.0083 12.8226C15.3018 12.5304 15.3028 12.0555 15.0106 11.762L12.1716 8.91098Z" fill="#130F26"/>
</svg>