<svg height="40" viewBox="0 0 40 40" width="40" xmlns="http://www.w3.org/2000/svg"><g fill="none" fill-rule="evenodd"><rect fill="#fff2e3" fill-rule="nonzero" height="40" rx="4" width="40"/><g fill="#ce0d07" transform="translate(11 11)"><path d="m16.07111 0 2.8284 2.82843-1.4142 1.41421-2.8285-2.82842z" fill-rule="nonzero"/><path d="m10.27221 6.05026h-2v3.99995h2z" fill-rule="nonzero"/><path d="m2.63604 16.26341c3.51472 3.5148 9.21317 3.5148 12.72797 0 3.5147-3.5147 3.5147-9.21315 0-12.72787-3.5148-3.51472-9.21325-3.51472-12.72797 0-3.51472 3.51471-3.51472 9.21317 0 12.72787zm1.41421-1.4142c2.73368 2.7337 7.16586 2.7337 9.89946 0 2.7337-2.7336 2.7337-7.1658 0-9.89946-2.7336-2.73367-7.16578-2.73367-9.89946 0-2.73366 2.73366-2.73366 7.16586 0 9.89946z"/></g></g></svg>