<svg xmlns="http://www.w3.org/2000/svg" xmlns:xlink="http://www.w3.org/1999/xlink" viewBox="0 0 95.481 94.78003569410157" height="94.78003569410157" width="95.481" data-background-color="#ffffff" preserveAspectRatio="xMidYMid meet" id="tight-bounds"><g><svg viewBox="0 0 95.481 94.78003569410157" height="94.78003569410157" width="95.481"><g><svg viewBox="0 0 95.481 94.78003569410157" height="94.78003569410157" width="95.481"><g id="textblocktransform"><svg viewBox="0 0 95.481 94.78003569410157" height="94.78003569410157" width="95.481" id="textblock"><g><svg viewBox="0 0 95.481 94.78003569410157" height="94.78003569410157" width="95.481"><g><svg viewBox="0 0 95.481 94.78003569410157" height="94.78003569410157" width="95.481"><g><svg xmlns="http://www.w3.org/2000/svg" xmlns:xlink="http://www.w3.org/1999/xlink" version="1.1" x="0" y="0" viewBox="0.14979757368564606 0.24398435652256012 4.6624345779418945 4.6282057762146" enable-background="new 0 0 5 5" xml:space="preserve" height="94.78003569410157" width="95.481" class="icon-icon-0" data-fill-palette-color="accent" id="icon-0"><g fill="#0080ff" data-fill-palette-color="accent"><g fill="#0080ff" data-fill-palette-color="accent"><path fill="#0080ff" d="M3.809 3.226C3.826 3.125 3.809 3.03 3.764 2.978 3.76 2.973 3.748 2.964 3.732 2.951A0.1 0.1 0 0 0 3.709 2.93L3.689 2.916C3.638 2.876 3.566 2.818 3.476 2.751L3.802 2.65C3.88 2.628 3.939 2.561 3.966 2.462A0.56 0.56 0 0 0 3.958 2.154C3.907 1.982 3.793 1.852 3.668 1.822A0.2 0.2 0 0 0 3.551 1.825L3.025 1.98C3.087 1.674 3.136 1.434 3.152 1.361 3.166 1.285 3.136 1.207 3.068 1.137A0.56 0.56 0 0 0 2.789 0.994 0.57 0.57 0 0 0 2.481 1.01C2.385 1.047 2.322 1.11 2.306 1.191V1.196L2.18 1.786 1.64 1.389A0.2 0.2 0 0 0 1.563 1.354C1.432 1.322 1.265 1.404 1.149 1.562A0.54 0.54 0 0 0 1.043 1.851C1.038 1.954 1.067 2.04 1.125 2.081L1.129 2.085 1.57 2.413 1.087 2.558 1.079 2.56A0.2 0.2 0 0 0 1.032 2.582 0.31 0.31 0 0 0 0.889 2.826 0.56 0.56 0 0 0 1.033 3.288 0.35 0.35 0 0 0 1.204 3.394C1.223 3.399 1.241 3.401 1.258 3.399A0.2 0.2 0 0 0 1.299 3.391C1.31 3.391 1.319 3.387 1.33 3.385L1.353 3.38C1.461 3.351 1.649 3.297 1.876 3.23L1.776 3.703 1.775 3.712V3.71A0.2 0.2 0 0 0 1.781 3.821 0.32 0.32 0 0 0 1.918 4.007 0.7 0.7 0 0 0 2.128 4.104 0.54 0.54 0 0 0 2.393 4.1C2.492 4.074 2.571 4.017 2.599 3.955L2.609 3.925 2.619 3.892 2.624 3.869C2.652 3.756 2.698 3.547 2.752 3.295L3.191 3.62 3.195 3.624C3.211 3.634 3.226 3.643 3.244 3.648 3.256 3.652 3.269 3.658 3.283 3.661A0.3 0.3 0 0 0 3.525 3.617 0.57 0.57 0 0 0 3.809 3.226M1.113 2.644L3.41 1.962A0.55 0.55 0 0 0 3.4 2.321 0.53 0.53 0 0 0 3.605 2.616C2.646 2.909 1.335 3.302 1.253 3.31 1.22 3.312 1.158 3.286 1.099 3.226A0.47 0.47 0 0 1 0.979 2.835C0.995 2.681 1.108 2.646 1.113 2.644M1.222 1.615C1.314 1.493 1.449 1.42 1.542 1.441A0.1 0.1 0 0 1 1.585 1.462C1.672 1.527 1.652 1.706 1.543 1.855 1.451 1.978 1.316 2.052 1.222 2.028A0.1 0.1 0 0 1 1.18 2.008C1.147 1.985 1.13 1.927 1.134 1.855A0.45 0.45 0 0 1 1.222 1.615M2.513 1.095A0.47 0.47 0 0 1 2.77 1.083L2.786 1.087C2.959 1.129 3.084 1.246 3.062 1.35 3.039 1.455 2.868 1.514 2.688 1.475 2.505 1.437 2.373 1.313 2.395 1.209 2.405 1.16 2.447 1.12 2.513 1.095M1.323 2.116A0.52 0.52 0 0 0 1.615 1.908 0.56 0.56 0 0 0 1.729 1.623 0.3 0.3 0 0 0 1.729 1.568C1.859 1.663 1.996 1.762 2.135 1.865A0.34 0.34 0 0 1 2.107 2.043C2.105 2.048 2.107 2.056 2.113 2.059H2.114A0.014 0.014 0 0 0 2.128 2.052 0.4 0.4 0 0 0 2.161 1.885L2.199 1.912C2.218 2.009 2.175 2.141 2.078 2.252L2.064 2.268 1.915 2.311 1.981 2.26C1.985 2.256 1.985 2.248 1.982 2.243A0.012 0.012 0 0 0 1.965 2.242 0.5 0.5 0 0 1 1.788 2.35L1.768 2.355A0.2 0.2 0 0 1 1.643 2.355zM2.375 2.175A0.3 0.3 0 0 0 2.376 2.044L2.391 2.055C2.407 2.085 2.414 2.122 2.412 2.163zM2.106 2.254A0.47 0.47 0 0 0 2.224 1.931L2.248 1.949C2.256 1.979 2.257 2.014 2.252 2.053A0.5 0.5 0 0 1 2.181 2.233zM2.263 1.837L2.27 1.803C2.315 1.891 2.427 1.968 2.572 2.003L2.591 2.008A0.55 0.55 0 0 0 2.878 1.998L2.936 1.971 2.928 2.007 2.92 2.013 2.711 2.074A0.5 0.5 0 0 1 2.545 2.055C2.45 1.985 2.356 1.915 2.267 1.851zM2.592 2.09L2.64 2.097 2.612 2.104zM2.942 1.938C2.867 1.994 2.736 2.015 2.595 1.984L2.577 1.98C2.422 1.943 2.308 1.856 2.278 1.763L2.285 1.732A0.3 0.3 0 0 0 2.348 1.812 0.5 0.5 0 0 0 2.606 1.938 0.55 0.55 0 0 0 2.894 1.927 0.2 0.2 0 0 0 2.95 1.902zM2.275 2.056A0.3 0.3 0 0 0 2.276 1.969L2.297 1.985C2.317 2.046 2.308 2.125 2.274 2.205L2.214 2.222A0.5 0.5 0 0 0 2.275 2.056M2.327 2.006L2.346 2.022A0.26 0.26 0 0 1 2.351 2.182L2.302 2.196A0.4 0.4 0 0 0 2.327 2.006M2.427 2.081L2.503 2.137 2.436 2.157A0.2 0.2 0 0 0 2.427 2.081M2.65 1.561L2.668 1.564C2.778 1.587 2.887 1.582 2.976 1.548L3.025 1.525C3.014 1.589 3 1.656 2.986 1.723A0.3 0.3 0 0 1 2.862 1.773C2.855 1.774 2.85 1.779 2.852 1.786 2.853 1.792 2.857 1.795 2.862 1.796H2.866A0.4 0.4 0 0 0 2.98 1.755L2.969 1.804A0.4 0.4 0 0 1 2.79 1.858 0.01 0.01 0 0 0 2.78 1.87C2.78 1.876 2.784 1.88 2.789 1.881H2.793A0.5 0.5 0 0 0 2.964 1.835L2.956 1.87A0.3 0.3 0 0 1 2.887 1.905 0.5 0.5 0 0 1 2.612 1.914 0.5 0.5 0 0 1 2.364 1.795 0.23 0.23 0 0 1 2.294 1.688L2.3 1.66A0.42 0.42 0 0 0 2.515 1.837C2.521 1.839 2.526 1.835 2.529 1.83 2.531 1.823 2.529 1.816 2.523 1.814 2.427 1.774 2.331 1.704 2.31 1.617L2.319 1.572A0.4 0.4 0 0 0 2.439 1.708L2.442 1.71C2.447 1.71 2.452 1.709 2.455 1.704 2.459 1.7 2.458 1.691 2.452 1.688 2.423 1.669 2.346 1.608 2.329 1.526L2.358 1.384C2.418 1.463 2.522 1.528 2.65 1.561M3.871 2.181C3.898 2.272 3.901 2.364 3.88 2.438 3.86 2.505 3.824 2.551 3.777 2.564A0.13 0.13 0 0 1 3.711 2.565C3.619 2.543 3.529 2.435 3.488 2.295A0.5 0.5 0 0 1 3.478 2.038C3.498 1.971 3.535 1.926 3.582 1.911A0.1 0.1 0 0 1 3.646 1.911C3.74 1.933 3.83 2.041 3.871 2.181M3.246 3.547L2.848 3.25A0.3 0.3 0 0 0 3.01 3.202C3.016 3.199 3.016 3.192 3.014 3.186A0.02 0.02 0 0 0 2.996 3.182 0.27 0.27 0 0 1 2.812 3.224L2.791 3.209A0.3 0.3 0 0 0 2.903 3.186 0.58 0.58 0 0 0 3.203 2.834L3.25 2.82 3.227 2.902C3.225 2.909 3.227 2.916 3.235 2.917H3.237C3.241 2.919 3.247 2.917 3.249 2.91A0.5 0.5 0 0 0 3.275 2.812L3.369 2.784C3.555 2.924 3.678 3.018 3.695 3.038 3.716 3.062 3.732 3.128 3.718 3.211A0.47 0.47 0 0 1 3.478 3.541C3.346 3.619 3.248 3.551 3.246 3.547M2.516 3.917C2.503 3.947 2.451 3.989 2.369 4.013A0.48 0.48 0 0 1 1.97 3.933C1.842 3.844 1.865 3.728 1.866 3.723L1.97 3.234 1.978 3.248A0.4 0.4 0 0 0 2.09 3.354C2.095 3.355 2.1 3.354 2.102 3.35 2.106 3.345 2.104 3.336 2.099 3.332A0.3 0.3 0 0 1 1.979 3.2C1.987 3.199 1.996 3.195 2.003 3.193 2.012 3.206 2.023 3.216 2.034 3.228A0.5 0.5 0 0 0 2.222 3.34H2.223C2.229 3.342 2.235 3.338 2.237 3.333A0.014 0.014 0 0 0 2.23 3.317 0.45 0.45 0 0 1 2.027 3.187L2.068 3.174A0.5 0.5 0 0 0 2.297 3.289L2.314 3.293C2.454 3.322 2.586 3.3 2.67 3.242L2.663 3.275A0.33 0.33 0 0 1 2.462 3.351 0.012 0.012 0 0 0 2.451 3.364C2.451 3.369 2.455 3.373 2.46 3.374H2.464A0.4 0.4 0 0 0 2.631 3.328L2.654 3.312 2.648 3.343C2.604 3.383 2.543 3.401 2.52 3.408 2.513 3.41 2.509 3.416 2.511 3.422A0.01 0.01 0 0 0 2.52 3.431H2.526A0.3 0.3 0 0 0 2.641 3.38 8 8 0 0 1 2.516 3.917M2.778 3.078A0.24 0.24 0 0 1 2.64 3.097L2.619 3.081A0.42 0.42 0 0 0 2.91 2.923L2.99 2.898H2.988A0.5 0.5 0 0 1 2.778 3.078M2.583 3.055L2.552 3.031A0.3 0.3 0 0 0 2.701 2.985L2.866 2.935C2.775 3.026 2.667 3.071 2.583 3.055M2.543 3.139A0.6 0.6 0 0 1 2.352 3.131L2.335 3.127 2.281 3.111C2.334 3.094 2.388 3.079 2.442 3.063zM2.243 3.121A0.4 0.4 0 0 0 2.33 3.15L2.347 3.153C2.427 3.17 2.502 3.17 2.57 3.156L2.61 3.187A0.56 0.56 0 0 1 2.178 3.142zM2.698 3.14L2.677 3.123A0.3 0.3 0 0 0 2.788 3.1 0.5 0.5 0 0 0 3.008 2.912C3.014 2.904 3.02 2.896 3.023 2.887L3.09 2.868C3.078 2.893 3.062 2.917 3.047 2.942A0.5 0.5 0 0 1 2.836 3.12 0.24 0.24 0 0 1 2.698 3.14M2.146 3.15C2.194 3.18 2.251 3.205 2.313 3.218L2.33 3.223A0.5 0.5 0 0 0 2.63 3.202L2.657 3.223A0.44 0.44 0 0 1 2.319 3.269 0.5 0.5 0 0 1 2.095 3.167zM2.754 3.182L2.734 3.167A0.3 0.3 0 0 0 2.845 3.142 0.5 0.5 0 0 0 3.064 2.956 0.5 0.5 0 0 0 3.119 2.858L3.176 2.841A0.5 0.5 0 0 1 3.104 2.984 0.5 0.5 0 0 1 2.893 3.163 0.24 0.24 0 0 1 2.754 3.182" data-fill-palette-color="accent"/></g><g fill="#0080ff" data-fill-palette-color="accent"><g fill="#0080ff" data-fill-palette-color="accent"><path fill="#0080ff" d="M2.729 1.29L2.718 1.285A0.034 0.034 0 0 1 2.709 1.238C2.711 1.235 2.935 0.905 2.899 0.634A0.035 0.035 0 0 1 2.928 0.596 0.033 0.033 0 0 1 2.965 0.625 0.8 0.8 0 0 1 2.88 1.064 1.4 1.4 0 0 1 2.765 1.276 0.03 0.03 0 0 1 2.729 1.29" data-fill-palette-color="accent"/></g><g fill="#0080ff" data-fill-palette-color="accent"><path fill="#0080ff" d="M2.757 0.946L2.846 0.823A0.036 0.036 0 0 0 2.839 0.774 0.034 0.034 0 0 0 2.791 0.784L2.702 0.907C2.691 0.923 2.693 0.945 2.708 0.956S2.746 0.962 2.757 0.946" data-fill-palette-color="accent"/><path fill="#0080ff" d="M2.613 0.793L2.753 0.742A0.04 0.04 0 0 0 2.771 0.729 0.04 0.04 0 0 0 2.776 0.697C2.771 0.679 2.751 0.67 2.733 0.676L2.593 0.727C2.575 0.733 2.564 0.754 2.57 0.771 2.576 0.79 2.595 0.8 2.613 0.793" data-fill-palette-color="accent"/><path fill="#0080ff" d="M2.728 0.618A0.034 0.034 0 0 0 2.767 0.604L2.772 0.594A0.034 0.034 0 0 0 2.75 0.551L2.611 0.511A0.04 0.04 0 0 0 2.567 0.535 0.033 0.033 0 0 0 2.589 0.578z" data-fill-palette-color="accent"/><path fill="#0080ff" d="M2.834 0.456L2.75 0.34A0.033 0.033 0 0 0 2.701 0.334C2.686 0.346 2.682 0.368 2.693 0.383L2.779 0.5C2.79 0.515 2.812 0.517 2.827 0.506L2.834 0.498C2.843 0.485 2.844 0.469 2.834 0.456" data-fill-palette-color="accent"/><path fill="#0080ff" d="M2.922 0.463A0.04 0.04 0 0 0 2.949 0.448 0.04 0.04 0 0 0 2.955 0.427V0.278A0.033 0.033 0 0 0 2.921 0.244 0.036 0.036 0 0 0 2.887 0.281V0.43C2.887 0.449 2.903 0.464 2.922 0.463" data-fill-palette-color="accent"/><path fill="#0080ff" d="M3.098 0.311L3.012 0.435C3 0.452 3.004 0.474 3.02 0.484S3.057 0.49 3.069 0.474V0.473L3.155 0.348A0.04 0.04 0 0 0 3.145 0.3C3.129 0.29 3.107 0.294 3.098 0.311" data-fill-palette-color="accent"/><path fill="#0080ff" d="M3.246 0.459L3.105 0.514A0.037 0.037 0 0 0 3.085 0.561C3.091 0.579 3.11 0.587 3.128 0.581L3.267 0.525 3.285 0.513A0.04 0.04 0 0 0 3.289 0.479 0.032 0.032 0 0 0 3.246 0.459" data-fill-palette-color="accent"/><path fill="#0080ff" d="M3.137 0.637A0.04 0.04 0 0 0 3.092 0.662 0.034 0.034 0 0 0 3.115 0.705L3.256 0.741A0.04 0.04 0 0 0 3.293 0.727C3.295 0.724 3.299 0.72 3.299 0.716A0.034 0.034 0 0 0 3.276 0.673z" data-fill-palette-color="accent"/><path fill="#0080ff" d="M3.039 0.753C3.023 0.766 3.021 0.789 3.033 0.803L3.123 0.915C3.133 0.931 3.156 0.933 3.172 0.92L3.178 0.913C3.186 0.9 3.188 0.883 3.178 0.87L3.088 0.757C3.076 0.742 3.055 0.74 3.039 0.753" data-fill-palette-color="accent"/></g></g><g fill="#0080ff" data-fill-palette-color="accent"><g fill="#0080ff" data-fill-palette-color="accent"><path fill="#0080ff" d="M1.385 1.826A0.04 0.04 0 0 1 1.364 1.811C1.362 1.806 1.168 1.458 0.91 1.367A0.032 0.032 0 0 1 0.89 1.325 0.034 0.034 0 0 1 0.933 1.304C1.216 1.403 1.415 1.761 1.423 1.777S1.426 1.814 1.41 1.823C1.402 1.827 1.394 1.829 1.385 1.826" data-fill-palette-color="accent"/></g><g fill="#0080ff" data-fill-palette-color="accent"><path fill="#0080ff" d="M1.125 1.636L1.055 1.502A0.033 0.033 0 0 0 1.01 1.485 0.034 0.034 0 0 0 0.996 1.532L1.066 1.667A0.034 0.034 0 0 0 1.112 1.683 0.034 0.034 0 0 0 1.125 1.636" data-fill-palette-color="accent"/><path fill="#0080ff" d="M0.924 1.694L0.941 1.547A0.04 0.04 0 0 0 0.938 1.526C0.933 1.515 0.923 1.509 0.912 1.506A0.034 0.034 0 0 0 0.873 1.535L0.855 1.683C0.853 1.704 0.866 1.721 0.885 1.724S0.921 1.715 0.924 1.694" data-fill-palette-color="accent"/><path fill="#0080ff" d="M0.82 1.514A0.03 0.03 0 0 0 0.824 1.474L0.818 1.463A0.034 0.034 0 0 0 0.769 1.463L0.67 1.568A0.04 0.04 0 0 0 0.672 1.619C0.686 1.634 0.708 1.634 0.72 1.619z" data-fill-palette-color="accent"/><path fill="#0080ff" d="M0.723 1.345L0.58 1.368A0.036 0.036 0 0 0 0.553 1.41 0.04 0.04 0 0 0 0.594 1.438L0.737 1.415A0.034 0.034 0 0 0 0.764 1.374L0.76 1.364A0.04 0.04 0 0 0 0.723 1.345" data-fill-palette-color="accent"/><path fill="#0080ff" d="M0.768 1.271A0.04 0.04 0 0 0 0.767 1.239C0.764 1.231 0.758 1.227 0.751 1.224L0.619 1.157A0.033 0.033 0 0 0 0.573 1.172 0.037 0.037 0 0 0 0.591 1.22L0.724 1.286A0.03 0.03 0 0 0 0.768 1.271" data-fill-palette-color="accent"/><path fill="#0080ff" d="M0.711 1.046L0.784 1.178C0.794 1.196 0.815 1.202 0.831 1.192 0.848 1.184 0.853 1.163 0.844 1.145L0.771 1.013C0.761 0.994 0.74 0.987 0.724 0.997 0.707 1.006 0.701 1.027 0.711 1.046" data-fill-palette-color="accent"/><path fill="#0080ff" d="M0.911 0.98L0.897 1.129A0.04 0.04 0 0 0 0.928 1.169C0.947 1.172 0.964 1.157 0.966 1.138L0.98 0.99 0.976 0.969A0.05 0.05 0 0 0 0.948 0.949 0.034 0.034 0 0 0 0.911 0.98" data-fill-palette-color="accent"/><path fill="#0080ff" d="M1.02 1.157A0.037 0.037 0 0 0 1.023 1.208 0.035 0.035 0 0 0 1.072 1.207L1.167 1.098A0.04 0.04 0 0 0 1.172 1.058L1.163 1.048C1.149 1.034 1.127 1.034 1.115 1.05z" data-fill-palette-color="accent"/><path fill="#0080ff" d="M1.08 1.296A0.035 0.035 0 0 0 1.121 1.324L1.263 1.296C1.282 1.292 1.293 1.274 1.289 1.254L1.285 1.245A0.035 0.035 0 0 0 1.247 1.227L1.106 1.254A0.035 0.035 0 0 0 1.08 1.296" data-fill-palette-color="accent"/></g></g><g fill="#0080ff" data-fill-palette-color="accent"><g fill="#0080ff" data-fill-palette-color="accent"><path fill="#0080ff" d="M0.97 2.984V2.98C0.963 2.982 0.958 2.982 0.951 2.982A0.8 0.8 0 0 0 0.521 3.107 0.034 0.034 0 0 0 0.512 3.154 0.04 0.04 0 0 0 0.532 3.169C0.541 3.17 0.551 3.169 0.559 3.162 0.678 3.08 0.845 3.055 0.977 3.05A0.2 0.2 0 0 1 0.97 2.984" data-fill-palette-color="accent"/></g><g fill="#0080ff" data-fill-palette-color="accent"><path fill="#0080ff" d="M0.902 3.146L0.753 3.123A0.036 0.036 0 0 0 0.712 3.152C0.709 3.17 0.723 3.188 0.743 3.19L0.892 3.212C0.912 3.215 0.93 3.202 0.933 3.185A0.034 0.034 0 0 0 0.902 3.146" data-fill-palette-color="accent"/><path fill="#0080ff" d="M0.832 3.345L0.723 3.242A0.04 0.04 0 0 0 0.703 3.233C0.691 3.232 0.68 3.234 0.672 3.243 0.658 3.257 0.659 3.277 0.673 3.291L0.782 3.392C0.796 3.406 0.819 3.405 0.832 3.392S0.846 3.357 0.832 3.345" data-fill-palette-color="accent"/><path fill="#0080ff" d="M0.624 3.322C0.622 3.307 0.609 3.296 0.594 3.294H0.583A0.035 0.035 0 0 0 0.554 3.334L0.582 3.476C0.585 3.494 0.604 3.506 0.624 3.504 0.643 3.5 0.656 3.482 0.652 3.464z" data-fill-palette-color="accent"/><path fill="#0080ff" d="M0.431 3.301L0.367 3.431A0.035 0.035 0 0 0 0.384 3.477C0.402 3.485 0.424 3.477 0.432 3.46L0.496 3.331C0.505 3.314 0.497 3.294 0.479 3.286L0.469 3.282C0.453 3.281 0.438 3.288 0.431 3.301" data-fill-palette-color="accent"/><path fill="#0080ff" d="M0.397 3.221A0.04 0.04 0 0 0 0.371 3.203 0.04 0.04 0 0 0 0.349 3.207L0.217 3.275C0.2 3.284 0.193 3.305 0.203 3.321A0.036 0.036 0 0 0 0.251 3.335L0.383 3.268C0.401 3.258 0.407 3.237 0.397 3.221" data-fill-palette-color="accent"/><path fill="#0080ff" d="M0.181 3.135L0.331 3.154A0.035 0.035 0 0 0 0.371 3.124 0.034 0.034 0 0 0 0.341 3.087H0.34L0.19 3.068C0.17 3.065 0.152 3.079 0.15 3.097S0.161 3.133 0.181 3.135" data-fill-palette-color="accent"/><path fill="#0080ff" d="M0.246 2.936L0.358 3.034C0.373 3.047 0.395 3.046 0.408 3.032S0.42 2.996 0.406 2.982L0.293 2.886A0.03 0.03 0 0 0 0.274 2.876 0.04 0.04 0 0 0 0.243 2.887C0.23 2.9 0.231 2.923 0.246 2.936" data-fill-palette-color="accent"/><path fill="#0080ff" d="M0.454 2.951C0.458 2.97 0.477 2.98 0.496 2.978 0.516 2.974 0.528 2.957 0.523 2.938L0.491 2.797A0.03 0.03 0 0 0 0.461 2.77H0.448A0.034 0.034 0 0 0 0.421 2.811z" data-fill-palette-color="accent"/><path fill="#0080ff" d="M0.601 2.982A0.033 0.033 0 0 0 0.647 2.966L0.707 2.835C0.715 2.818 0.707 2.798 0.688 2.79 0.686 2.788 0.683 2.788 0.68 2.788 0.665 2.785 0.648 2.792 0.642 2.807L0.582 2.939A0.03 0.03 0 0 0 0.601 2.982" data-fill-palette-color="accent"/></g></g><g fill="#0080ff" data-fill-palette-color="accent"><g fill="#0080ff" data-fill-palette-color="accent"><path fill="#0080ff" d="M3.764 2.275C3.746 2.271 3.736 2.254 3.738 2.236 3.742 2.218 3.76 2.205 3.777 2.209 3.781 2.21 4.175 2.275 4.405 2.132A0.035 0.035 0 0 1 4.453 2.142 0.034 0.034 0 0 1 4.441 2.189 0.83 0.83 0 0 1 4.006 2.292C3.873 2.294 3.772 2.275 3.766 2.275z" data-fill-palette-color="accent"/></g><g fill="#0080ff" data-fill-palette-color="accent"><path fill="#0080ff" d="M4.062 2.132L4.21 2.162C4.23 2.165 4.25 2.153 4.252 2.135 4.257 2.116 4.244 2.099 4.225 2.095L4.077 2.065C4.057 2.062 4.038 2.074 4.036 2.092 4.03 2.109 4.043 2.128 4.062 2.132" data-fill-palette-color="accent"/><path fill="#0080ff" d="M4.143 1.938L4.247 2.044A0.04 0.04 0 0 0 4.266 2.055C4.278 2.056 4.289 2.054 4.297 2.046A0.03 0.03 0 0 0 4.299 1.998L4.195 1.892A0.036 0.036 0 0 0 4.145 1.889 0.033 0.033 0 0 0 4.143 1.938" data-fill-palette-color="accent"/><path fill="#0080ff" d="M4.35 1.969C4.351 1.985 4.364 1.996 4.378 1.999H4.389C4.408 1.998 4.422 1.98 4.42 1.961L4.398 1.818C4.396 1.8 4.378 1.786 4.357 1.788A0.034 0.034 0 0 0 4.328 1.826z" data-fill-palette-color="accent"/><path fill="#0080ff" d="M4.542 1.999L4.613 1.874A0.036 0.036 0 0 0 4.596 1.826C4.579 1.818 4.558 1.823 4.549 1.84L4.479 1.967C4.469 1.983 4.476 2.004 4.495 2.013 4.496 2.015 4.5 2.016 4.503 2.016 4.518 2.02 4.533 2.013 4.542 1.999" data-fill-palette-color="accent"/><path fill="#0080ff" d="M4.57 2.081C4.576 2.092 4.585 2.099 4.596 2.1 4.604 2.102 4.612 2.102 4.617 2.099L4.754 2.037A0.036 0.036 0 0 0 4.77 1.991C4.762 1.974 4.738 1.966 4.723 1.974L4.586 2.036A0.034 0.034 0 0 0 4.57 2.081" data-fill-palette-color="accent"/><path fill="#0080ff" d="M4.782 2.178L4.634 2.152A0.034 0.034 0 0 0 4.593 2.18 0.034 0.034 0 0 0 4.621 2.219H4.622L4.771 2.244A0.035 0.035 0 0 0 4.812 2.217C4.814 2.198 4.803 2.181 4.782 2.178" data-fill-palette-color="accent"/><path fill="#0080ff" d="M4.709 2.375L4.602 2.271A0.036 0.036 0 0 0 4.551 2.271C4.537 2.284 4.537 2.304 4.551 2.318L4.658 2.422A0.04 0.04 0 0 0 4.677 2.432 0.04 0.04 0 0 0 4.709 2.423 0.033 0.033 0 0 0 4.709 2.375" data-fill-palette-color="accent"/><path fill="#0080ff" d="M4.502 2.348C4.499 2.329 4.48 2.316 4.461 2.319S4.428 2.339 4.432 2.357L4.457 2.5A0.03 0.03 0 0 0 4.485 2.528C4.489 2.529 4.494 2.53 4.498 2.528A0.03 0.03 0 0 0 4.526 2.49z" data-fill-palette-color="accent"/><path fill="#0080ff" d="M4.355 2.31C4.338 2.3 4.316 2.307 4.309 2.323L4.242 2.451C4.233 2.468 4.24 2.488 4.258 2.498L4.268 2.5A0.034 0.034 0 0 0 4.307 2.483L4.373 2.354A0.033 0.033 0 0 0 4.355 2.31" data-fill-palette-color="accent"/></g></g><g fill="#0080ff" data-fill-palette-color="accent"><g fill="#0080ff" data-fill-palette-color="accent"><path fill="#0080ff" d="M4.076 3.708C3.914 3.661 3.773 3.514 3.688 3.406A0.3 0.3 0 0 1 3.635 3.451C3.727 3.564 3.878 3.721 4.058 3.773H4.059A0.033 0.033 0 0 0 4.1 3.75C4.104 3.732 4.095 3.713 4.076 3.708" data-fill-palette-color="accent"/></g><g fill="#0080ff" data-fill-palette-color="accent"><path fill="#0080ff" d="M3.849 3.451L3.925 3.583C3.935 3.599 3.955 3.605 3.973 3.597A0.035 0.035 0 0 0 3.984 3.549L3.907 3.418C3.897 3.4 3.877 3.395 3.859 3.404 3.844 3.413 3.839 3.436 3.849 3.451" data-fill-palette-color="accent"/><path fill="#0080ff" d="M4.047 3.383L4.037 3.532C4.037 3.539 4.037 3.546 4.042 3.552 4.047 3.562 4.057 3.569 4.068 3.571 4.088 3.574 4.103 3.559 4.105 3.54L4.117 3.393A0.04 0.04 0 0 0 4.084 3.353C4.064 3.35 4.049 3.363 4.047 3.383" data-fill-palette-color="accent"/><path fill="#0080ff" d="M4.16 3.559C4.15 3.57 4.15 3.587 4.156 3.599L4.164 3.609C4.179 3.622 4.201 3.622 4.213 3.606L4.307 3.496C4.319 3.483 4.317 3.459 4.303 3.446 4.287 3.433 4.266 3.433 4.254 3.448z" data-fill-palette-color="accent"/><path fill="#0080ff" d="M4.266 3.722L4.407 3.692C4.427 3.688 4.436 3.67 4.432 3.65 4.426 3.631 4.407 3.618 4.389 3.622L4.248 3.652C4.23 3.658 4.219 3.676 4.224 3.694L4.227 3.705A0.04 0.04 0 0 0 4.266 3.722" data-fill-palette-color="accent"/><path fill="#0080ff" d="M4.224 3.798A0.03 0.03 0 0 0 4.227 3.83C4.231 3.837 4.237 3.842 4.244 3.845L4.38 3.906C4.398 3.914 4.418 3.906 4.424 3.888A0.036 0.036 0 0 0 4.405 3.841L4.269 3.78C4.25 3.773 4.23 3.781 4.224 3.798" data-fill-palette-color="accent"/><path fill="#0080ff" d="M4.291 4.021L4.213 3.892C4.202 3.876 4.18 3.87 4.164 3.881 4.149 3.89 4.145 3.91 4.154 3.928V3.929L4.234 4.058C4.245 4.074 4.266 4.08 4.282 4.07A0.034 0.034 0 0 0 4.291 4.021" data-fill-palette-color="accent"/><path fill="#0080ff" d="M4.096 4.097L4.102 3.948A0.036 0.036 0 0 0 4.069 3.91 0.03 0.03 0 0 0 4.033 3.941L4.027 4.09A0.03 0.03 0 0 0 4.031 4.11C4.037 4.12 4.048 4.127 4.06 4.128A0.034 0.034 0 0 0 4.096 4.097" data-fill-palette-color="accent"/><path fill="#0080ff" d="M3.978 3.924C3.991 3.909 3.988 3.888 3.973 3.874 3.957 3.861 3.936 3.863 3.924 3.877L3.834 3.991C3.824 4.003 3.824 4.018 3.832 4.031L3.84 4.042C3.855 4.054 3.877 4.052 3.888 4.037z" data-fill-palette-color="accent"/><path fill="#0080ff" d="M3.91 3.789C3.906 3.769 3.887 3.759 3.868 3.763L3.728 3.798A0.035 0.035 0 0 0 3.705 3.841C3.705 3.844 3.707 3.847 3.709 3.851 3.717 3.864 3.732 3.871 3.748 3.868L3.887 3.833A0.034 0.034 0 0 0 3.91 3.789" data-fill-palette-color="accent"/></g></g><g fill="#0080ff" data-fill-palette-color="accent"><g fill="#0080ff" data-fill-palette-color="accent"><path fill="#0080ff" d="M2.203 4.062A0.1 0.1 0 0 1 2.137 4.043L2.134 4.052A0.83 0.83 0 0 0 2.058 4.494C2.06 4.507 2.07 4.519 2.083 4.521L2.097 4.522A0.034 0.034 0 0 0 2.124 4.483C2.102 4.341 2.151 4.182 2.203 4.062" data-fill-palette-color="accent"/></g><g fill="#0080ff" data-fill-palette-color="accent"><path fill="#0080ff" d="M2.259 4.167L2.173 4.293A0.035 0.035 0 0 0 2.181 4.341C2.197 4.351 2.218 4.347 2.229 4.33L2.314 4.205C2.326 4.189 2.322 4.168 2.307 4.157S2.271 4.151 2.259 4.167" data-fill-palette-color="accent"/><path fill="#0080ff" d="M2.406 4.317L2.268 4.371 2.25 4.385A0.04 0.04 0 0 0 2.245 4.416 0.032 0.032 0 0 0 2.288 4.437L2.428 4.383A0.04 0.04 0 0 0 2.45 4.338C2.444 4.319 2.424 4.311 2.406 4.317" data-fill-palette-color="accent"/><path fill="#0080ff" d="M2.296 4.494C2.281 4.49 2.267 4.497 2.258 4.509 2.255 4.512 2.254 4.516 2.252 4.52 2.247 4.54 2.256 4.558 2.275 4.563L2.415 4.599A0.034 0.034 0 0 0 2.458 4.575C2.464 4.556 2.454 4.537 2.436 4.533z" data-fill-palette-color="accent"/><path fill="#0080ff" d="M2.193 4.659L2.281 4.773C2.292 4.788 2.314 4.791 2.329 4.778S2.348 4.743 2.336 4.727L2.248 4.614C2.236 4.599 2.215 4.598 2.199 4.61L2.192 4.617A0.034 0.034 0 0 0 2.193 4.659" data-fill-palette-color="accent"/><path fill="#0080ff" d="M2.106 4.654A0.03 0.03 0 0 0 2.079 4.67 0.04 0.04 0 0 0 2.072 4.692L2.076 4.84C2.076 4.86 2.092 4.874 2.111 4.872 2.131 4.871 2.145 4.853 2.145 4.834L2.141 4.687C2.141 4.668 2.125 4.652 2.106 4.654" data-fill-palette-color="accent"/><path fill="#0080ff" d="M1.934 4.812L2.016 4.684C2.026 4.667 2.023 4.645 2.007 4.635 1.992 4.625 1.971 4.63 1.96 4.645V4.647L1.877 4.775C1.866 4.792 1.87 4.813 1.886 4.822 1.901 4.834 1.923 4.828 1.934 4.812" data-fill-palette-color="accent"/><path fill="#0080ff" d="M1.782 4.666L1.919 4.607A0.036 0.036 0 0 0 1.94 4.562 0.034 0.034 0 0 0 1.896 4.542L1.758 4.601 1.742 4.614A0.04 0.04 0 0 0 1.738 4.646 0.033 0.033 0 0 0 1.782 4.666" data-fill-palette-color="accent"/><path fill="#0080ff" d="M1.888 4.486A0.036 0.036 0 0 0 1.93 4.459 0.034 0.034 0 0 0 1.906 4.417L1.766 4.385A0.04 0.04 0 0 0 1.728 4.4C1.726 4.403 1.723 4.406 1.723 4.411 1.717 4.43 1.728 4.448 1.747 4.453z" data-fill-palette-color="accent"/><path fill="#0080ff" d="M1.981 4.368A0.036 0.036 0 0 0 1.985 4.317L1.895 4.206A0.035 0.035 0 0 0 1.845 4.204C1.843 4.205 1.841 4.208 1.84 4.211A0.04 0.04 0 0 0 1.84 4.253L1.931 4.364A0.034 0.034 0 0 0 1.981 4.368" data-fill-palette-color="accent"/></g></g></g></svg></g></svg></g></svg></g></svg></g></svg></g></svg></g><defs/></svg>