<!DOCTYPE svg PUBLIC "-//W3C//DTD SVG 1.1//EN" "http://www.w3.org/Graphics/SVG/1.1/DTD/svg11.dtd">
<!-- Uploaded to: SVG Repo, www.svgrepo.com, Transformed by: SVG Repo Mixer Tools -->
<svg fill="#ffffff" width="800px" height="800px" viewBox="0 0 32 32" enable-background="new 0 0 32 32" id="Layer_3" version="1.1" xml:space="preserve" xmlns="http://www.w3.org/2000/svg" xmlns:xlink="http://www.w3.org/1999/xlink">
<g id="SVGRepo_bgCarrier" stroke-width="0"/>
<g id="SVGRepo_tracerCarrier" stroke-linecap="round" stroke-linejoin="round"/>
<g id="SVGRepo_iconCarrier"> <g> <path d="M5,6.75c-0.553,0-1,0.448-1,1v2c0,1.654,1.346,3,3,3s3-1.346,3-3v-2c0-0.552-0.447-1-1-1H5z M8,9.75c0,0.551-0.448,1-1,1 s-1-0.449-1-1v-1h2V9.75z"/> <path d="M23,6.75c-0.553,0-1,0.448-1,1v2c0,1.654,1.346,3,3,3s3-1.346,3-3v-2c0-0.552-0.447-1-1-1H23z M26,9.75 c0,0.551-0.448,1-1,1s-1-0.449-1-1v-1h2V9.75z"/> <path d="M26.884,13.25h-4.268c-1.258,0-2.504,0.416-3.57,1.22l-3.047,2.686l-3.106-2.735c-1.006-0.754-2.252-1.17-3.51-1.17H5.116 C3.397,13.25,2,14.648,2,16.366v7.884c0,0.553,0.447,1,1,1h8c0.553,0,1-0.447,1-1v-3.847l5.858,0.837 c0.441,0.062,0.864-0.171,1.05-0.571c0.017-0.037,0.019-0.076,0.032-0.114L20,20.403v3.847c0,0.553,0.447,1,1,1h8 c0.553,0,1-0.447,1-1v-7.884C30,14.648,28.603,13.25,26.884,13.25z M11.142,18.26c-0.285-0.041-0.578,0.045-0.797,0.234 C10.126,18.685,10,18.96,10,19.25v4H4v-6.884c0-0.616,0.501-1.116,1.116-1.116h4.268c0.827,0,1.647,0.273,2.248,0.72l3.195,2.816 L11.142,18.26z M28,23.25h-6v-4c0-0.29-0.126-0.565-0.345-0.756c-0.219-0.189-0.51-0.275-0.797-0.234l-3,0.429 c-0.031,0.004-0.055,0.023-0.085,0.03l-0.263-0.231l2.796-2.468c0.661-0.496,1.481-0.77,2.309-0.77h4.268 c0.615,0,1.116,0.5,1.116,1.116V23.25z"/> </g> </g>
</svg>