<?xml version="1.0" standalone="no"?>
<!DOCTYPE svg PUBLIC "-//W3C//DTD SVG 20010904//EN"
 "http://www.w3.org/TR/2001/REC-SVG-20010904/DTD/svg10.dtd">
<svg version="1.0" xmlns="http://www.w3.org/2000/svg"
 width="2000.000000pt" height="494.000000pt" viewBox="0 0 2000.000000 494.000000"
 preserveAspectRatio="xMidYMid meet">

<g transform="translate(0.000000,494.000000) scale(0.100000,-0.100000)"
fill="#000000" stroke="none">
<path d="M2975 4927 c-3 -7 -4 -56 -3 -108 3 -93 3 -94 28 -94 l25 0 0 105 c0
101 -1 105 -23 108 -12 2 -24 -3 -27 -11z"/>
<path d="M3144 4805 c-54 -81 -56 -87 -41 -103 24 -23 42 -10 100 74 51 73 57
107 20 112 -18 3 -33 -13 -79 -83z"/>
<path d="M2765 4844 c-8 -9 -15 -19 -15 -24 0 -11 88 -132 108 -147 17 -14 52
0 52 20 0 18 -97 154 -115 160 -8 4 -21 -1 -30 -9z"/>
<path d="M3268 4683 c-77 -30 -88 -38 -88 -59 0 -39 26 -39 118 -1 88 35 106
54 82 82 -16 19 -10 20 -112 -22z"/>
<path d="M2629 4644 c-23 -28 3 -48 95 -73 82 -23 88 -24 104 -8 27 28 4 48
-83 73 -96 28 -99 28 -116 8z"/>
<path d="M2993 4558 c-6 -7 -13 -62 -16 -123 -4 -86 -12 -131 -37 -208 -27
-83 -34 -97 -49 -92 -10 3 -54 10 -98 15 -184 21 -356 -39 -418 -144 -17 -29
-43 -131 -89 -351 -36 -170 -68 -321 -71 -333 -4 -14 -11 -22 -19 -19 -7 3
-142 101 -301 217 -158 117 -304 219 -323 227 -90 38 -244 -3 -357 -94 l-49
-41 -63 54 c-133 113 -264 169 -271 117 -3 -18 10 -28 77 -63 44 -23 109 -69
145 -101 l65 -60 -26 -41 c-20 -30 -29 -37 -35 -27 -5 8 -23 39 -41 69 -22 37
-39 55 -52 55 -35 0 -29 -41 18 -128 l45 -82 -20 -75 c-26 -101 -21 -199 15
-272 24 -49 44 -67 264 -231 132 -98 245 -182 253 -187 8 -5 12 -12 8 -15 -3
-3 -130 -44 -282 -89 -294 -89 -321 -101 -377 -179 -43 -59 -62 -136 -63 -250
l-1 -97 -35 -6 c-161 -28 -246 -55 -324 -104 -37 -24 -47 -35 -44 -53 4 -31
30 -32 75 -3 73 48 321 113 342 90 4 -5 16 -31 26 -59 26 -72 74 -142 137
-201 60 -57 92 -76 156 -94 56 -15 85 -9 436 92 153 43 280 77 283 75 2 -3
-21 -126 -52 -274 -37 -173 -55 -283 -52 -309 7 -63 51 -149 102 -198 42 -41
187 -124 241 -138 l22 -6 -25 -83 c-34 -115 -49 -241 -37 -309 8 -50 12 -55
34 -55 l25 0 6 130 c5 106 12 145 35 214 l29 84 90 3 c155 4 290 63 340 149
25 41 70 219 146 572 18 84 35 153 39 153 3 0 117 -83 254 -184 173 -128 263
-188 295 -198 62 -18 145 -14 208 10 56 21 162 93 202 136 l24 26 98 -94 c137
-132 306 -228 344 -196 28 23 15 39 -61 74 -97 45 -181 106 -267 193 l-67 69
35 69 c64 126 82 254 50 362 -17 59 -41 82 -225 222 l-123 95 54 17 c30 10
121 39 203 64 134 42 152 51 191 89 55 56 86 136 93 242 l4 81 102 6 c128 7
231 30 324 73 76 35 94 56 69 81 -13 13 -21 12 -78 -15 -35 -17 -92 -38 -126
-46 -62 -16 -265 -40 -284 -34 -5 2 -23 44 -40 93 -17 49 -45 114 -64 145 -69
114 -192 200 -285 200 -28 0 -158 -33 -338 -86 -162 -47 -296 -84 -299 -81 -2
3 27 162 66 354 62 308 69 353 60 393 -22 94 -108 190 -219 242 -34 16 -49 28
-45 38 46 153 57 197 66 260 18 129 -9 228 -48 178z m-155 -505 c12 -3 22 -10
22 -16 0 -5 -21 -46 -46 -90 -35 -61 -44 -84 -37 -96 22 -35 47 -17 100 74 60
102 63 103 142 54 99 -60 150 -149 130 -224 -13 -45 -75 -99 -140 -121 -72
-24 -213 -24 -294 0 -164 49 -285 159 -285 259 0 73 90 146 206 167 47 8 153
5 202 -7z m-279 -452 c166 -84 373 -101 507 -41 35 15 44 16 44 5 0 -12 -21
-123 -35 -183 -6 -24 -91 -72 -127 -72 -10 0 -18 -4 -18 -10 0 -14 13 -13 72
10 29 11 54 20 56 20 2 0 2 -12 0 -27 -4 -34 -48 -58 -137 -76 -33 -7 -63 -16
-68 -21 -13 -14 95 3 149 24 l49 18 -7 -21 c-17 -53 -104 -82 -244 -82 -157 1
-293 47 -391 134 -49 43 -91 113 -82 137 3 9 21 -4 55 -41 55 -60 158 -129
186 -123 11 3 -1 13 -38 32 -119 61 -199 154 -185 216 l7 31 33 -47 c36 -50
102 -110 112 -100 3 3 -17 26 -45 51 -28 25 -60 65 -71 88 -20 42 -21 45 -5
125 l17 81 55 -50 c30 -28 80 -63 111 -78z m-979 31 c46 -46 59 -105 42 -196
-44 -239 -305 -459 -464 -393 -94 39 -102 210 -18 377 17 33 35 60 40 60 13 0
80 -86 125 -160 29 -48 42 -60 59 -58 49 7 30 56 -81 206 -61 83 -62 80 21
137 68 47 118 64 185 65 49 0 57 -3 91 -38z m368 -262 l212 -155 0 -51 c0 -28
-7 -73 -15 -100 -18 -58 -17 -54 -6 -54 11 0 41 107 41 148 0 35 6 38 33 18
24 -19 23 -109 -4 -189 -11 -34 -42 -94 -68 -132 -46 -69 -48 -70 -126 -97
-104 -35 -108 -34 -60 6 51 43 41 57 -11 15 -97 -77 -230 -121 -297 -97 -33
12 -356 246 -357 259 0 3 19 12 42 20 192 63 388 334 388 535 0 20 4 34 8 32
5 -1 104 -73 220 -158z m397 -50 c45 -69 168 -143 295 -176 93 -25 246 -23
324 5 33 12 62 19 65 16 11 -12 -17 -41 -63 -64 -67 -34 -224 -41 -329 -16
-169 40 -327 158 -327 245 0 28 12 25 35 -10z m85 -167 c154 -104 417 -135
553 -66 34 17 38 15 31 -14 -5 -17 -29 -27 -133 -57 -122 -35 -131 -36 -202
-26 -40 6 -85 18 -99 27 -72 48 -290 214 -290 222 0 38 14 38 43 -1 18 -23 61
-61 97 -85z m1385 -2 c79 -36 185 -185 209 -294 l7 -29 -73 4 c-69 3 -73 2
-76 -19 -4 -26 28 -43 81 -43 71 0 77 -6 77 -76 0 -83 -30 -163 -76 -203 -70
-62 -184 -32 -264 69 -80 102 -124 244 -118 380 9 181 106 269 233 211z
m-1535 -30 c24 -45 1 -175 -46 -261 -20 -38 -32 -48 -65 -57 -21 -5 -39 -8
-39 -6 0 3 16 31 35 62 47 76 74 150 82 222 6 61 15 72 33 40z m1240 -17 c0
-3 -7 -34 -16 -68 -12 -45 -15 -87 -11 -161 9 -171 73 -313 186 -419 29 -26
51 -49 49 -51 -9 -8 -1704 -517 -2130 -639 -407 -116 -395 -114 -455 -85 -241
117 -318 563 -116 681 23 14 2453 744 2486 747 4 1 7 -2 7 -5z m-1190 -19 c27
-33 -1 -245 -33 -245 -7 0 -22 -3 -34 -6 l-23 -6 25 55 c26 60 51 178 41 202
-7 19 8 19 24 0z m60 -51 c6 -14 10 -52 10 -84 0 -62 -15 -90 -50 -90 -17 0
-17 3 -4 47 8 25 14 70 14 100 0 57 14 70 30 27z m48 -31 c19 -36 25 -105 11
-114 -29 -18 -34 -8 -34 61 0 70 6 85 23 53z m92 -62 l25 -20 -28 -10 c-16 -6
-32 -11 -36 -11 -9 0 -21 35 -21 63 0 20 13 15 60 -22z m152 17 c-9 -9 -15 -9
-24 0 -9 9 -7 12 12 12 19 0 21 -3 12 -12z m921 -820 c240 -180 257 -200 257
-300 -1 -127 -45 -225 -149 -329 -94 -94 -167 -132 -251 -132 -72 0 -75 1
-335 195 l-205 152 76 22 c71 20 104 37 93 49 -3 3 -24 -4 -47 -15 -48 -24
-119 -35 -156 -26 -40 10 -31 23 22 30 135 18 312 180 369 338 11 32 26 55 40
61 32 14 38 3 24 -44 -7 -22 -10 -44 -7 -47 10 -9 16 3 29 57 11 49 14 52 57
66 25 7 49 14 53 14 4 1 63 -40 130 -91z m-333 19 c0 -34 -68 -143 -131 -212
-87 -92 -183 -145 -267 -147 -68 -1 -90 17 -32 27 23 4 72 22 110 41 79 40
178 138 230 228 28 50 53 73 83 75 4 1 7 -5 7 -12z m-90 -23 c0 -20 -64 -108
-115 -160 -92 -91 -224 -149 -300 -130 -38 10 -30 23 19 30 25 4 72 20 104 37
60 30 168 127 199 180 10 17 31 34 48 38 38 12 45 12 45 5z m-145 -80 c-83
-101 -207 -168 -302 -162 -59 4 -63 20 -6 30 63 10 145 55 209 112 49 43 119
80 133 70 2 -2 -13 -24 -34 -50z m-134 -24 c-91 -83 -231 -123 -281 -81 l-25
20 28 1 c16 0 58 12 95 26 69 28 200 72 217 73 6 0 -10 -18 -34 -39z m-361
-137 c28 -21 50 -41 50 -45 0 -14 -138 -9 -211 8 -39 9 -68 19 -64 22 7 8 143
50 163 51 7 1 35 -16 62 -36z m-190 -48 c36 -11 96 -17 172 -19 93 -1 121 -5
134 -17 15 -15 12 -18 -38 -29 -109 -27 -258 -10 -375 41 l-48 21 30 14 c33
15 42 14 125 -11z m-131 -30 c121 -61 277 -81 401 -51 58 14 74 15 86 5 14
-11 10 -16 -28 -35 -146 -74 -407 -42 -547 67 l-23 19 23 9 c33 14 32 14 88
-14z m-96 -29 c151 -113 394 -144 555 -71 49 23 52 23 52 5 0 -10 -14 -29 -31
-41 -34 -24 -137 -59 -175 -59 -13 0 -24 -5 -24 -11 0 -21 94 0 202 46 13 5
15 2 12 -12 -6 -20 -51 -52 -104 -73 -45 -17 -60 -30 -34 -30 10 0 41 12 69
25 27 13 51 23 53 21 3 -4 -99 -469 -119 -540 -21 -74 -105 -128 -232 -148
-160 -24 -372 60 -446 177 -48 75 -47 97 15 387 30 145 57 269 60 277 3 9 14
0 32 -25 29 -40 100 -100 108 -91 3 2 -25 34 -61 70 -60 60 -81 97 -54 97 6 0
34 -20 61 -44 56 -49 169 -111 190 -104 7 3 -18 19 -56 38 -81 38 -164 109
-144 122 21 13 38 9 71 -16z"/>
<path d="M3189 4504 c-20 -25 13 -46 105 -68 83 -19 106 -17 106 12 0 27 -16
37 -92 56 -84 20 -102 20 -119 0z"/>
<path d="M2710 4451 c-65 -25 -75 -32 -78 -55 -2 -16 2 -28 11 -32 8 -2 54 10
103 28 79 30 89 36 89 58 0 35 -33 36 -125 1z"/>
<path d="M3126 4394 c-19 -19 -12 -34 54 -117 46 -58 73 -68 93 -35 9 13 2 27
-30 70 -53 68 -81 98 -93 98 -5 0 -16 -7 -24 -16z"/>
<path d="M2816 4303 c-60 -82 -64 -94 -42 -112 22 -18 40 -4 95 75 54 77 61
107 24 112 -16 2 -33 -14 -77 -75z"/>
<path d="M860 4176 c-6 -8 -14 -57 -17 -109 -5 -81 -4 -95 11 -100 22 -9 46 2
46 22 1 9 5 50 10 91 8 77 1 110 -24 110 -8 0 -19 -7 -26 -14z"/>
<path d="M636 4122 c-7 -20 62 -159 89 -182 21 -17 45 -5 45 22 0 38 -82 173
-107 176 -14 2 -23 -3 -27 -16z"/>
<path d="M1016 4025 c-61 -69 -71 -107 -30 -113 15 -2 36 15 76 60 69 80 72
86 58 103 -22 27 -46 16 -104 -50z"/>
<path d="M497 3963 c-4 -3 -7 -16 -7 -28 0 -16 19 -30 89 -64 91 -45 111 -46
111 -8 0 17 -17 31 -79 65 -77 41 -101 49 -114 35z"/>
<path d="M1119 3876 c-83 -19 -91 -23 -87 -48 4 -30 26 -33 115 -18 87 15 113
30 97 57 -14 22 -52 25 -125 9z"/>
<path d="M530 3747 c-48 -11 -55 -15 -58 -38 -4 -37 14 -41 110 -24 86 16 113
31 102 58 -7 20 -68 22 -154 4z"/>
<path d="M640 3580 c-52 -58 -62 -75 -53 -88 19 -31 48 -18 107 45 61 67 72
105 30 111 -15 2 -38 -16 -84 -68z"/>
<path d="M817 3583 c-10 -16 -29 -183 -23 -198 3 -8 17 -15 30 -15 32 0 37 18
39 131 2 79 1 84 -20 87 -11 2 -24 -1 -26 -5z"/>
<path d="M17010 3437 c-34 -17 -70 -74 -70 -109 0 -45 27 -93 64 -113 47 -26
146 -17 181 15 58 54 51 154 -14 197 -39 26 -119 31 -161 10z"/>
<path d="M5850 3370 c-144 -23 -262 -104 -313 -217 -43 -97 -49 -169 -45 -596
3 -372 5 -395 25 -450 43 -115 120 -195 230 -238 49 -20 77 -23 183 -24 145 0
197 14 282 75 89 63 142 160 155 281 l6 59 -92 0 -91 0 0 -31 c0 -60 -23 -113
-70 -159 -52 -52 -99 -70 -187 -70 -113 0 -193 48 -237 140 -20 43 -21 62 -24
438 -2 265 1 411 8 448 25 117 117 187 250 188 146 1 244 -77 257 -208 l6 -56
90 0 90 0 -6 67 c-11 118 -78 230 -175 291 -84 54 -227 80 -342 62z"/>
<path d="M8650 3063 c0 -163 -4 -293 -8 -287 -5 5 -14 29 -21 53 -18 61 -91
133 -160 156 -82 27 -228 18 -299 -18 -101 -53 -168 -148 -191 -271 -14 -75
-14 -475 -1 -546 23 -123 99 -228 199 -277 50 -25 67 -27 161 -28 95 0 110 3
162 28 66 32 114 84 130 142 21 73 28 60 28 -48 l0 -107 85 0 85 0 0 750 0
750 -85 0 -85 0 0 -297z m-165 -224 c56 -15 127 -91 146 -155 10 -36 14 -108
14 -274 0 -214 -1 -228 -23 -275 -47 -102 -107 -139 -227 -139 -113 0 -181 39
-231 134 -17 32 -19 60 -19 290 0 248 1 256 24 303 51 104 183 152 316 116z"/>
<path d="M10450 2611 l0 -753 258 4 c231 4 263 7 314 26 114 42 190 111 242
222 l31 65 3 400 c2 280 0 416 -8 455 -32 148 -145 262 -305 307 -34 10 -129
16 -292 20 l-243 6 0 -752z m505 568 c22 -8 62 -36 91 -64 78 -77 79 -86 79
-520 l0 -370 -28 -57 c-58 -118 -126 -148 -334 -148 l-143 0 0 583 c0 321 3
587 8 591 11 12 283 0 327 -15z"/>
<path d="M18108 3143 l-3 -158 -157 -3 -158 -3 0 -79 0 -80 160 0 160 0 0
-370 c0 -347 1 -372 20 -424 13 -34 35 -68 60 -90 72 -65 92 -69 323 -74 l207
-4 0 81 0 80 -186 3 -186 3 -29 33 -29 32 0 365 0 365 225 0 225 0 0 80 0 80
-225 0 -225 0 0 160 0 160 -90 0 -89 0 -3 -157z"/>
<path d="M4514 3276 c-3 -8 0 -54 8 -102 14 -95 33 -123 64 -93 14 14 14 26 3
100 -6 46 -16 90 -21 97 -14 16 -47 15 -54 -2z"/>
<path d="M4711 3176 c-44 -80 -50 -110 -26 -120 27 -10 41 3 84 79 47 83 49
108 10 113 -24 3 -31 -5 -68 -72z"/>
<path d="M4307 3183 c-17 -17 -2 -44 63 -108 59 -59 73 -68 88 -59 30 19 24
38 -39 107 -57 63 -91 81 -112 60z"/>
<path d="M4843 3054 c-60 -29 -73 -39 -73 -58 0 -38 27 -39 104 -4 82 37 111
60 103 82 -10 25 -54 18 -134 -20z"/>
<path d="M7040 2990 c-167 -35 -285 -164 -310 -338 -13 -88 -12 -368 0 -457
28 -194 152 -315 352 -346 95 -15 216 -1 294 35 104 48 187 151 213 267 6 24
11 148 11 276 0 201 -3 239 -19 294 -38 122 -121 209 -239 251 -65 24 -228 33
-302 18z m224 -161 c21 -6 58 -28 81 -50 69 -64 75 -94 75 -363 0 -211 -2
-235 -21 -276 -45 -100 -106 -135 -234 -135 -103 0 -149 18 -202 79 -53 60
-58 88 -58 341 0 227 0 231 26 286 41 88 112 128 224 129 39 0 87 -5 109 -11z"/>
<path d="M9497 2990 c-111 -28 -209 -110 -260 -218 l-32 -67 0 -280 c0 -270 1
-282 23 -337 45 -111 151 -201 277 -234 66 -18 195 -17 274 1 127 30 234 114
271 212 11 30 20 58 20 63 0 6 -38 10 -88 10 l-88 0 -18 -40 c-34 -77 -129
-116 -266 -108 -107 6 -162 39 -205 122 -26 52 -30 71 -33 162 l-4 104 351 0
351 0 0 144 c0 112 -4 157 -18 204 -35 110 -104 187 -219 239 -51 24 -72 27
-178 30 -66 1 -137 -2 -158 -7z m266 -158 c87 -39 137 -133 137 -259 l0 -63
-265 0 -265 0 0 55 c0 114 39 208 106 251 69 46 203 53 287 16z"/>
<path d="M13290 2991 c-97 -30 -159 -100 -183 -206 -3 -11 -5 28 -6 88 l-1
107 -90 0 -90 0 0 -560 0 -560 90 0 89 0 3 413 c3 400 4 413 25 452 44 82 119
124 223 125 112 0 193 -53 231 -150 10 -27 14 -133 17 -437 l3 -403 85 0 85 0
-3 444 -3 443 -35 69 c-42 82 -114 146 -192 169 -54 16 -203 19 -248 6z"/>
<path d="M14447 2990 c-121 -31 -230 -119 -266 -215 -33 -87 -34 -85 69 -85
83 0 90 2 90 20 0 29 59 91 108 112 104 46 257 30 319 -34 48 -50 63 -95 63
-193 l0 -85 -205 0 c-216 0 -282 -8 -355 -45 -54 -27 -122 -98 -146 -152 -25
-54 -25 -223 0 -277 27 -61 99 -130 169 -162 57 -27 71 -29 182 -29 155 0 208
17 281 90 37 36 55 63 59 89 14 72 25 46 25 -58 l0 -106 86 0 85 0 -3 438 -3
437 -26 56 c-36 75 -96 134 -177 172 -62 29 -76 31 -192 34 -69 1 -142 -2
-163 -7z m383 -718 c0 -95 -3 -115 -23 -153 -46 -87 -149 -139 -276 -139 -119
0 -190 34 -228 110 -28 55 -30 129 -4 185 42 92 81 104 334 105 l197 0 0 -108z"/>
<path d="M15602 2983 c-36 -18 -70 -60 -81 -100 -4 -15 -12 -28 -19 -31 -9 -3
-12 16 -12 62 l0 66 -75 0 -75 0 0 -560 0 -560 80 0 80 0 0 443 c0 270 4 456
10 479 29 103 166 119 217 25 16 -29 18 -74 21 -489 l3 -458 69 0 70 0 0 456
c0 401 2 460 16 490 41 85 167 85 208 0 14 -30 16 -89 16 -490 l0 -456 80 0
80 0 0 468 c0 522 -1 535 -65 609 -43 51 -87 66 -170 61 -79 -5 -125 -37 -150
-103 -20 -52 -30 -56 -40 -17 -9 37 -50 89 -85 107 -38 20 -136 19 -178 -2z"/>
<path d="M19387 2990 c-111 -28 -209 -110 -260 -218 l-32 -67 0 -280 c0 -270
1 -282 23 -337 45 -111 151 -201 277 -234 66 -18 195 -17 274 1 146 35 256
134 286 258 l7 27 -89 0 -89 0 -18 -40 c-34 -77 -129 -116 -266 -108 -103 6
-159 38 -203 117 -28 49 -31 65 -35 163 l-5 108 353 0 352 0 -4 163 -3 163
-38 77 c-44 89 -92 135 -187 180 -60 29 -74 31 -185 34 -66 1 -137 -2 -158 -7z
m266 -158 c87 -39 137 -133 137 -259 l0 -63 -265 0 -265 0 0 63 c0 108 40 201
107 244 68 45 202 52 286 15z"/>
<path d="M4204 2976 c-3 -9 -4 -22 -1 -29 6 -16 109 -40 171 -41 37 -1 41 1
41 24 0 22 -7 27 -50 38 -27 6 -74 15 -102 18 -43 6 -54 4 -59 -10z"/>
<path d="M11629 2933 c311 -786 394 -1001 393 -1013 0 -8 -37 -109 -81 -223
l-79 -208 96 3 97 3 267 720 c148 396 271 730 274 743 6 22 5 22 -88 22 l-94
0 -131 -372 c-72 -205 -136 -397 -144 -425 -7 -29 -16 -53 -19 -53 -4 0 -12
23 -18 51 -9 38 -201 561 -287 782 -6 15 -21 17 -106 17 l-99 0 19 -47z"/>
<path d="M16670 2900 l0 -80 175 0 175 0 -2 -397 -3 -398 -202 -3 -203 -2 0
-80 0 -80 480 0 480 0 0 80 0 80 -190 0 -190 0 0 480 0 480 -260 0 -260 0 0
-80z"/>
<path d="M4796 2885 c-9 -24 4 -43 32 -49 88 -18 164 -27 177 -22 16 6 20 41
6 50 -12 8 -160 36 -187 36 -12 0 -24 -7 -28 -15z"/>
<path d="M4747 2773 c-18 -17 -2 -45 58 -102 47 -45 71 -62 87 -59 43 6 33 37
-33 104 -58 59 -93 77 -112 57z"/>
<path d="M4503 2732 c-6 -4 -30 -41 -52 -83 -45 -84 -46 -112 -2 -107 21 2 33
17 66 80 31 61 38 81 29 95 -13 20 -25 25 -41 15z"/>
<path d="M4625 2710 c-7 -12 12 -140 26 -177 6 -16 17 -23 34 -23 21 0 25 5
25 28 0 28 -16 131 -26 165 -6 19 -49 24 -59 7z"/>
<path d="M332 2223 c-12 -25 28 -182 49 -194 10 -5 22 -4 34 4 16 13 16 18 -6
108 -21 80 -27 94 -46 97 -13 2 -25 -4 -31 -15z"/>
<path d="M535 2144 c-39 -85 -43 -112 -19 -121 27 -10 43 8 80 90 29 63 33 81
24 92 -28 33 -49 17 -85 -61z"/>
<path d="M143 2123 c-31 -12 -12 -51 52 -107 69 -61 107 -71 113 -30 2 16 -16
37 -69 83 -40 33 -75 61 -78 60 -4 0 -12 -3 -18 -6z"/>
<path d="M47 1913 c-13 -13 -7 -42 11 -52 10 -6 59 -11 108 -13 l89 -3 0 25
c0 23 -5 26 -75 37 -88 14 -124 16 -133 6z"/>
<path d="M647 1853 c-11 -10 -8 -41 3 -48 16 -10 183 -33 197 -28 16 6 23 27
13 43 -13 20 -197 49 -213 33z"/>
<path d="M177 1736 c-67 -36 -82 -48 -82 -67 0 -38 33 -34 118 11 84 45 90 51
81 73 -11 30 -35 26 -117 -17z"/>
<path d="M585 1723 c-4 -13 12 -36 64 -86 72 -70 94 -78 115 -44 9 16 1 28
-59 83 -70 65 -107 79 -120 47z"/>
<path d="M342 1678 c-5 -7 -26 -45 -45 -83 -37 -75 -36 -105 4 -105 14 0 30
21 61 84 24 48 39 90 35 100 -8 19 -40 21 -55 4z"/>
<path d="M481 1671 c-15 -10 -13 -47 9 -148 9 -38 17 -54 32 -59 40 -12 47 16
28 109 -22 109 -31 122 -69 98z"/>
<path d="M4220 1605 c-8 -9 -13 -52 -14 -113 -1 -97 -1 -97 24 -97 28 0 38 30
40 125 2 77 2 78 -19 89 -14 8 -22 7 -31 -4z"/>
<path d="M3994 1545 c-6 -14 54 -132 84 -167 19 -22 51 -23 58 -3 4 8 -15 53
-42 100 -39 68 -54 85 -72 85 -12 0 -25 -7 -28 -15z"/>
<path d="M4376 1453 c-58 -70 -64 -88 -33 -107 16 -9 26 -3 69 44 66 73 80 94
72 114 -13 35 -50 17 -108 -51z"/>
<path d="M4491 1311 c-76 -17 -99 -35 -87 -66 5 -15 14 -16 54 -11 131 17 174
42 142 81 -15 18 -15 18 -109 -4z"/>
<path d="M3936 1157 c-87 -24 -112 -46 -84 -73 15 -15 22 -15 90 1 74 18 118
38 118 55 0 10 -29 40 -38 39 -4 0 -43 -10 -86 -22z"/>
<path d="M4407 1153 c-4 -3 -7 -16 -7 -28 0 -18 15 -29 81 -59 88 -39 114 -44
123 -21 10 28 -5 42 -87 79 -84 37 -99 41 -110 29z"/>
<path d="M4044 1013 c-27 -32 -54 -66 -62 -75 -19 -23 -6 -58 21 -58 27 0 127
122 127 155 0 19 -17 35 -35 35 -2 0 -25 -26 -51 -57z"/>
<path d="M4327 1044 c-15 -15 -5 -42 43 -116 34 -54 55 -78 69 -78 39 0 34 36
-16 117 -46 73 -76 97 -96 77z"/>
<path d="M4202 1008 c-8 -8 -12 -47 -12 -109 0 -77 3 -98 15 -103 29 -11 42 5
49 57 13 115 5 167 -29 167 -6 0 -16 -5 -23 -12z"/>
<path d="M2251 685 c-56 -80 -63 -118 -25 -123 16 -2 32 14 73 77 54 82 61
114 26 119 -16 2 -34 -16 -74 -73z"/>
<path d="M1847 703 c-16 -15 -4 -44 46 -106 41 -53 57 -66 77 -64 44 4 37 38
-25 111 -51 60 -80 78 -98 59z"/>
<path d="M2365 551 c-73 -30 -92 -48 -82 -75 9 -23 31 -20 122 18 69 28 80 35
80 57 0 34 -35 35 -120 0z"/>
<path d="M1723 494 c-12 -31 13 -49 96 -67 93 -21 111 -18 111 17 0 27 -7 30
-120 55 -63 15 -80 13 -87 -5z"/>
<path d="M2297 383 c-4 -3 -7 -17 -7 -29 0 -24 12 -30 126 -55 60 -14 84 -8
84 20 0 25 -5 28 -90 52 -74 20 -102 23 -113 12z"/>
<path d="M1825 309 c-80 -34 -98 -49 -90 -71 11 -28 30 -27 111 8 90 39 107
53 98 77 -9 24 -39 21 -119 -14z"/>
<path d="M2233 273 c-25 -9 -12 -46 38 -114 53 -72 80 -85 99 -50 8 17 1 31
-41 88 -63 83 -69 88 -96 76z"/>
<path d="M1985 242 c-20 -15 -105 -152 -105 -171 0 -20 22 -33 43 -26 17 7
107 152 107 174 0 11 -7 22 -16 25 -19 7 -17 7 -29 -2z"/>
<path d="M2100 198 c-7 -15 -8 -54 -3 -108 8 -82 9 -85 33 -85 l25 0 0 105 c0
101 -1 105 -22 108 -16 2 -26 -4 -33 -20z"/>
</g>
</svg>
