<?xml version="1.0" standalone="no"?>
<!DOCTYPE svg PUBLIC "-//W3C//DTD SVG 20010904//EN"
 "http://www.w3.org/TR/2001/REC-SVG-20010904/DTD/svg10.dtd">
<svg version="1.0" xmlns="http://www.w3.org/2000/svg"
 width="2000.000000pt" height="545.000000pt" viewBox="0 0 2000.000000 545.000000"
 preserveAspectRatio="xMidYMid meet">

<g transform="translate(0.000000,545.000000) scale(0.100000,-0.100000)"
fill="#000000" stroke="none">
<path d="M3266 5437 c-14 -10 -16 -29 -14 -122 l3 -110 30 0 30 0 3 112 c2
101 1 113 -16 122 -14 7 -24 7 -36 -2z"/>
<path d="M3459 5318 c-28 -40 -56 -83 -61 -95 -14 -30 -3 -53 25 -53 19 0 36
18 81 83 58 84 65 104 44 125 -22 22 -37 12 -89 -60z"/>
<path d="M3019 5326 c-10 -21 -5 -32 48 -102 61 -82 88 -98 109 -69 16 21 11
32 -58 127 -53 73 -81 85 -99 44z"/>
<path d="M3655 5190 c-11 -5 -55 -23 -98 -41 -72 -29 -78 -33 -75 -58 4 -38
36 -38 129 0 107 43 125 61 93 93 -17 18 -21 18 -49 6z"/>
<path d="M2874 5117 c-15 -39 0 -51 96 -79 97 -28 124 -29 134 -3 11 30 -7 45
-78 66 -102 31 -144 35 -152 16z"/>
<path d="M3274 5018 c-5 -7 -9 -56 -11 -108 -2 -95 -32 -241 -67 -323 -13 -30
-21 -37 -35 -32 -130 41 -322 27 -439 -32 -57 -29 -126 -97 -143 -140 -5 -15
-44 -185 -85 -378 -41 -192 -76 -356 -79 -362 -3 -8 -131 81 -332 228 -180
133 -341 247 -358 254 -115 48 -279 7 -403 -101 l-51 -45 -77 65 c-87 72 -180
131 -238 148 -34 11 -40 10 -52 -7 -19 -25 -14 -37 22 -55 94 -47 171 -97 224
-146 33 -31 60 -60 60 -65 0 -5 -12 -27 -27 -49 l-26 -41 -42 78 c-35 64 -47
78 -66 78 -39 0 -34 -37 19 -141 l50 -96 -16 -42 c-11 -29 -16 -77 -16 -166
-1 -193 -12 -179 323 -428 152 -113 278 -207 280 -209 10 -8 -23 -19 -304
-104 -163 -49 -312 -98 -330 -109 -110 -68 -171 -215 -163 -394 3 -87 15 -77
-107 -96 -133 -21 -311 -95 -334 -139 -10 -18 3 -51 20 -51 5 0 51 20 102 44
102 49 200 76 283 79 l56 2 23 -63 c33 -86 84 -160 160 -230 82 -77 154 -107
240 -98 56 5 260 59 582 154 73 21 134 37 136 36 2 -2 -26 -140 -61 -306 -60
-281 -63 -307 -53 -357 30 -149 148 -268 334 -337 34 -12 61 -28 59 -34 -1 -7
-14 -51 -27 -98 -32 -107 -48 -250 -38 -322 8 -53 10 -55 38 -55 l30 0 6 130
c5 128 11 162 50 280 l19 61 68 -4 c139 -8 304 50 380 132 50 55 53 64 148
491 41 187 77 341 78 342 1 2 122 -85 267 -193 145 -108 284 -205 309 -217 34
-15 67 -21 131 -21 81 -1 90 1 170 41 48 24 110 66 147 98 l63 57 97 -94 c111
-107 161 -144 264 -193 79 -38 125 -44 135 -19 10 26 -8 43 -70 69 -99 40
-166 86 -274 190 l-104 100 40 80 c50 98 71 177 71 270 0 93 -22 166 -63 206
-17 18 -98 84 -180 147 -82 63 -145 118 -140 122 4 4 98 35 208 69 112 35 216
74 237 88 78 53 125 158 135 298 l6 81 131 12 c150 13 242 35 344 82 76 35 96
60 68 88 -14 14 -22 12 -83 -16 -37 -17 -101 -40 -141 -51 -84 -23 -310 -47
-323 -34 -5 5 -16 36 -25 69 -51 198 -190 361 -341 399 -75 19 -72 20 -471
-98 -155 -46 -284 -81 -286 -78 -2 3 30 164 71 356 83 397 88 449 50 527 -40
82 -127 162 -234 217 l-43 21 21 52 c47 121 77 313 62 398 -7 35 -13 46 -30
48 -12 2 -25 -3 -29 -10z m-156 -555 c22 -8 21 -10 -34 -107 -44 -76 -55 -103
-47 -115 28 -45 60 -18 124 104 24 47 48 85 53 85 26 0 134 -71 175 -115 84
-93 89 -179 12 -248 -115 -104 -348 -111 -537 -18 -268 133 -273 349 -9 418
53 14 223 11 263 -4z m-342 -481 c174 -103 407 -128 574 -62 29 11 54 19 56
17 2 -2 -6 -53 -17 -113 -25 -125 -33 -136 -120 -162 -33 -9 -59 -20 -59 -24
0 -13 27 -9 82 12 66 25 67 25 61 -2 -12 -50 -69 -80 -176 -94 -26 -4 -50 -11
-53 -15 -14 -23 131 2 185 30 29 16 34 10 22 -21 -12 -33 -88 -65 -185 -79
-129 -17 -319 21 -435 89 -92 53 -183 168 -166 210 6 15 9 14 23 -8 50 -77
252 -216 252 -172 0 4 -30 22 -66 41 -120 62 -203 165 -189 232 l7 30 38 -54
c40 -56 107 -114 118 -103 3 4 -17 27 -45 52 -31 26 -62 66 -77 97 -25 52 -25
53 -10 127 8 41 17 81 19 88 3 7 21 -5 48 -31 24 -24 75 -62 113 -85z m-1069
40 c46 -33 68 -85 68 -167 -1 -236 -237 -509 -441 -510 -72 0 -108 20 -136 76
-22 42 -24 161 -4 235 15 57 75 176 91 180 11 3 43 -38 125 -159 28 -43 58
-81 66 -84 17 -6 44 14 44 34 0 17 -74 134 -137 216 l-45 58 23 25 c33 36 115
85 173 106 64 23 133 19 173 -10z m418 -305 c121 -88 224 -164 229 -168 13
-12 8 -121 -9 -168 -17 -50 -18 -61 -7 -61 11 0 42 94 42 129 0 14 3 36 6 48
6 21 7 21 31 6 24 -16 25 -20 21 -92 -7 -95 -35 -172 -102 -269 l-51 -76 -95
-27 -95 -28 44 38 c25 22 40 41 34 44 -6 4 -16 0 -23 -8 -25 -30 -156 -104
-214 -120 -114 -33 -130 -27 -347 136 -177 132 -190 144 -168 153 135 53 223
116 297 209 94 118 144 233 157 359 5 46 11 66 19 61 6 -3 110 -78 231 -166z
m487 -108 c59 -58 164 -113 265 -141 116 -31 273 -29 371 4 54 18 72 21 72 11
0 -23 -36 -50 -96 -74 -49 -19 -78 -23 -174 -23 -132 0 -233 23 -333 77 -113
60 -203 165 -189 219 5 22 5 22 21 -3 8 -13 36 -45 63 -70z m-71 -25 c36 -69
167 -151 309 -195 62 -20 97 -24 200 -24 112 1 131 3 188 27 l63 26 -3 -26
c-3 -24 -12 -29 -133 -64 -141 -41 -179 -44 -270 -25 -52 11 -81 29 -220 131
-135 100 -160 123 -163 147 -4 36 10 37 29 3z m1644 -111 c87 -46 163 -144
209 -271 14 -40 26 -75 26 -78 0 -2 -37 -3 -82 -2 -78 3 -83 2 -86 -18 -5 -32
18 -43 103 -51 l77 -6 -4 -87 c-9 -200 -120 -295 -262 -226 -100 49 -188 180
-226 337 -24 101 -25 174 -5 254 39 148 137 206 250 148z m-1697 -25 c19 -19
15 -137 -7 -199 -42 -123 -60 -145 -134 -163 l-28 -7 29 43 c67 98 112 218
112 300 0 39 8 46 28 26z m1368 -33 c-3 -8 -13 -52 -22 -97 -43 -211 37 -457
197 -609 l59 -56 -238 -72 c-1625 -494 -2472 -741 -2541 -741 -79 0 -202 104
-260 219 -47 91 -64 178 -59 294 4 82 9 106 34 154 19 37 44 68 71 87 33 23
312 109 1395 432 744 221 1357 403 1362 403 4 1 6 -6 2 -14z m-1306 -14 c15
-29 12 -150 -5 -208 -13 -45 -20 -53 -51 -63 -19 -7 -37 -10 -39 -8 -2 2 7 26
20 54 30 63 44 124 45 192 0 54 12 66 30 33z m75 -106 c11 -69 -2 -124 -32
-136 -39 -15 -42 -11 -27 38 8 25 14 78 14 117 l1 71 19 -23 c10 -13 22 -43
25 -67z m46 4 c7 -17 13 -49 13 -71 1 -33 -3 -42 -21 -49 -21 -8 -21 -6 -20
72 1 43 5 79 8 79 4 0 12 -14 20 -31z m111 -81 c-4 -4 -22 -11 -40 -14 -29 -6
-32 -4 -32 17 0 13 -3 35 -7 48 -6 24 -5 24 41 -9 25 -19 43 -37 38 -42z m158
52 c12 -8 11 -10 -7 -10 -12 0 -25 5 -28 10 -8 13 15 13 35 0z m1037 -932
c210 -161 221 -171 238 -212 19 -45 19 -145 0 -215 -24 -92 -66 -162 -145
-241 -121 -122 -246 -172 -346 -140 -53 17 -527 372 -511 382 7 4 22 8 34 8
28 0 131 38 139 51 12 20 -4 19 -57 -5 -69 -31 -135 -41 -174 -25 l-30 12 65
16 c97 25 166 67 252 152 64 64 85 95 128 182 36 75 57 107 73 111 30 7 31 3
18 -50 -7 -25 -9 -49 -6 -52 9 -9 14 2 28 59 13 50 17 55 58 71 24 9 51 17 60
17 8 1 88 -54 176 -121z m-411 -3 c-81 -183 -248 -326 -406 -350 -28 -4 -57
-2 -75 6 l-30 12 65 16 c36 10 90 30 120 45 71 37 194 161 244 248 36 64 48
74 88 77 16 1 15 -5 -6 -54z m-86 17 c0 -23 -84 -134 -142 -188 -74 -69 -146
-108 -230 -126 -44 -9 -62 -9 -84 0 -33 16 -27 22 33 33 102 19 214 98 306
214 36 46 74 73 105 75 6 0 12 -4 12 -8z m-129 -49 c-23 -44 -156 -157 -217
-184 -77 -35 -161 -47 -188 -27 -17 13 -13 16 49 31 81 20 135 50 222 124 54
46 130 88 141 78 2 -2 -1 -12 -7 -22z m-166 -58 c-99 -86 -256 -136 -312 -100
l-27 18 59 17 c33 9 71 22 85 30 28 15 197 68 220 69 8 0 -3 -15 -25 -34z
m-402 -157 c54 -40 56 -43 35 -51 -31 -12 -171 -1 -237 19 -29 8 -51 17 -49
20 7 6 161 53 178 53 9 1 42 -18 73 -41z m-146 -63 c59 -11 113 -14 163 -10
66 6 79 4 100 -13 l23 -19 -34 -12 c-60 -21 -187 -25 -277 -8 -81 16 -208 64
-196 76 19 20 71 27 101 15 17 -8 71 -21 120 -29z m-219 -19 c99 -50 188 -70
312 -70 78 1 131 6 165 17 44 15 51 15 65 1 18 -18 12 -23 -70 -56 -47 -19
-73 -22 -180 -22 -108 0 -136 4 -205 27 -69 23 -195 89 -195 103 0 5 39 22 53
23 4 1 29 -10 55 -23z m-101 -31 c53 -41 173 -94 248 -110 132 -28 270 -16
370 31 27 13 51 21 54 19 2 -3 -1 -16 -7 -29 -13 -30 -99 -73 -180 -89 -68
-14 -91 -27 -46 -27 43 0 144 28 182 50 32 19 32 19 32 0 0 -22 -51 -59 -117
-85 -24 -10 -43 -21 -43 -27 0 -12 32 -3 95 27 27 13 50 23 51 22 3 -3 -114
-525 -132 -587 -19 -67 -43 -94 -114 -130 -133 -67 -301 -64 -454 10 -142 67
-216 158 -216 264 0 39 67 384 115 593 4 19 12 13 74 -48 64 -64 91 -82 91
-60 0 4 -18 21 -40 36 -39 27 -76 69 -99 113 -10 18 -9 23 4 28 10 4 34 -11
69 -44 47 -44 178 -122 206 -122 26 0 3 18 -68 52 -95 46 -174 113 -152 128
23 15 41 12 77 -15z"/>
<path d="M3497 4973 c-4 -3 -7 -17 -7 -29 0 -20 10 -26 73 -45 90 -28 145 -30
161 -7 17 27 -10 46 -95 68 -77 20 -121 25 -132 13z"/>
<path d="M2976 4906 c-88 -32 -111 -51 -100 -80 9 -24 49 -19 144 17 87 33
105 52 80 82 -16 20 -21 19 -124 -19z"/>
<path d="M3428 4849 c-29 -17 -21 -40 44 -121 60 -76 82 -90 106 -66 21 21 14
39 -45 112 -74 92 -75 93 -105 75z"/>
<path d="M3134 4808 c-21 -24 -94 -123 -108 -146 -13 -21 4 -52 28 -52 16 0
38 22 84 85 64 88 70 103 50 123 -18 18 -32 15 -54 -10z"/>
<path d="M937 4607 c-18 -14 -39 -192 -26 -218 11 -21 32 -29 49 -19 15 9 28
87 29 172 1 46 -3 59 -18 67 -13 7 -23 7 -34 -2z"/>
<path d="M683 4543 c-4 -11 10 -49 38 -101 52 -98 73 -121 97 -106 29 19 25
40 -28 133 -43 76 -55 91 -76 91 -14 0 -27 -7 -31 -17z"/>
<path d="M1135 4468 c-95 -101 -98 -106 -91 -132 12 -47 46 -34 115 45 48 55
61 78 59 98 -5 42 -37 38 -83 -11z"/>
<path d="M530 4365 c-24 -29 -6 -50 92 -100 90 -46 99 -49 114 -34 29 29 8 52
-91 102 -52 26 -97 47 -99 47 -2 0 -9 -7 -16 -15z"/>
<path d="M1220 4271 c-87 -19 -100 -25 -100 -50 0 -38 23 -44 112 -26 46 9 93
20 106 25 39 17 22 71 -22 69 -12 -1 -55 -9 -96 -18z"/>
<path d="M598 4135 c-42 -7 -81 -16 -87 -20 -17 -10 -13 -55 5 -62 19 -7 181
15 207 29 20 10 22 39 5 56 -14 14 -29 14 -130 -3z"/>
<path d="M696 3951 c-71 -71 -81 -101 -44 -125 15 -9 28 0 84 54 79 78 88 93
74 120 -18 34 -43 23 -114 -49z"/>
<path d="M884 3949 c-13 -21 -32 -204 -22 -221 10 -21 41 -24 56 -5 17 21 34
207 21 223 -14 17 -45 18 -55 3z"/>
<path d="M17075 3646 c-72 -27 -112 -102 -99 -185 14 -90 74 -134 180 -135
117 0 174 56 174 169 0 71 -23 116 -71 141 -45 23 -135 28 -184 10z"/>
<path d="M4956 3615 c-10 -10 -13 -26 -10 -43 3 -15 10 -61 17 -102 11 -68 14
-75 36 -78 43 -6 49 16 33 120 -8 51 -19 99 -24 106 -14 16 -33 15 -52 -3z"/>
<path d="M5197 3553 c-84 -135 -94 -178 -42 -178 27 0 34 8 77 85 27 47 48 88
48 92 0 12 -31 38 -46 38 -7 0 -24 -17 -37 -37z"/>
<path d="M8990 3345 l0 -245 -34 0 c-28 0 -38 6 -52 29 -21 35 -85 78 -139 92
-104 29 -251 -18 -333 -105 -98 -104 -137 -225 -137 -431 0 -158 11 -215 61
-321 67 -143 173 -216 322 -222 74 -4 88 -1 137 23 31 14 67 42 81 61 21 27
33 34 60 34 l34 0 0 -50 0 -50 150 0 150 0 0 715 0 715 -150 0 -150 0 0 -245z
m-104 -394 c97 -44 148 -184 124 -337 -12 -76 -36 -127 -77 -166 -37 -36 -73
-48 -138 -48 -89 0 -146 34 -186 112 -38 74 -43 237 -9 323 33 84 106 135 195
135 28 0 69 -9 91 -19z"/>
<path d="M6390 3533 c-63 -10 -155 -48 -199 -81 -170 -128 -241 -342 -228
-680 10 -247 60 -395 172 -508 91 -91 200 -134 342 -134 141 0 246 38 337 120
83 77 156 237 156 344 l0 36 -140 0 -140 0 -6 -27 c-11 -46 -50 -116 -81 -145
-89 -85 -222 -55 -283 62 -30 59 -50 180 -50 309 0 270 65 408 202 427 110 15
209 -69 233 -199 l7 -37 144 0 c117 0 144 3 144 14 0 8 -7 49 -15 92 -19 101
-72 210 -131 274 -54 58 -160 115 -243 130 -53 10 -171 11 -221 3z"/>
<path d="M4727 3513 c-20 -20 -1 -54 67 -122 59 -59 78 -72 95 -66 39 12 25
47 -52 123 -67 67 -93 82 -110 65z"/>
<path d="M10710 2835 l0 -677 283 5 c309 5 351 12 460 69 75 41 167 139 207
224 95 198 94 567 -2 761 -42 86 -130 181 -205 221 -108 57 -151 63 -460 69
l-283 5 0 -677z m529 369 c67 -20 121 -73 152 -150 21 -53 24 -75 24 -219 0
-144 -3 -166 -24 -219 -47 -119 -129 -166 -288 -166 l-83 0 0 385 0 385 83 0
c46 0 107 -7 136 -16z"/>
<path d="M17990 3335 l0 -135 -90 0 -90 0 0 -130 0 -130 90 0 90 0 0 -198 c0
-309 21 -415 98 -503 67 -76 191 -116 331 -106 203 13 330 151 357 386 l7 61
-131 0 -130 0 -21 -69 c-15 -50 -30 -77 -52 -95 -57 -48 -129 -28 -149 42 -5
20 -10 137 -10 260 l0 222 230 0 230 0 0 130 0 130 -230 0 -230 0 0 135 0 135
-150 0 -150 0 0 -135z"/>
<path d="M5320 3371 c-78 -35 -85 -41 -85 -67 0 -41 30 -42 118 -3 87 40 109
57 105 83 -5 33 -44 29 -138 -13z"/>
<path d="M4603 3284 c-15 -41 43 -68 173 -81 58 -5 62 -4 69 17 10 32 -4 41
-97 61 -104 23 -137 24 -145 3z"/>
<path d="M7551 3230 c-256 -38 -411 -243 -411 -545 0 -340 195 -555 505 -555
257 0 442 154 490 406 56 288 -48 550 -257 649 -102 48 -205 62 -327 45z m152
-261 c47 -13 102 -60 128 -110 39 -77 43 -243 9 -335 -61 -158 -273 -182 -367
-42 -70 105 -66 322 7 415 54 69 138 96 223 72z"/>
<path d="M9935 3229 c-256 -43 -405 -244 -405 -543 0 -187 48 -326 147 -424
185 -185 537 -175 718 20 44 47 115 166 115 192 0 3 -64 6 -141 6 l-142 0 -42
-39 c-70 -65 -176 -79 -260 -35 -41 21 -88 93 -100 152 l-7 32 336 0 336 0 0
95 c0 310 -137 506 -380 544 -74 12 -104 12 -175 0z m185 -264 c46 -24 89 -84
104 -147 l6 -28 -205 0 c-113 0 -205 2 -205 5 0 2 9 29 20 59 22 57 73 112
113 120 12 3 31 7 42 9 29 6 96 -4 125 -18z"/>
<path d="M13640 3229 c-54 -11 -118 -53 -145 -97 -17 -26 -26 -31 -57 -32
l-38 0 0 50 0 50 -150 0 -150 0 0 -520 0 -520 149 0 150 0 3 338 c3 314 4 340
23 377 28 56 76 85 139 85 68 0 111 -27 139 -88 21 -45 22 -62 25 -379 l3
-333 145 0 145 0 -3 408 c-3 399 -4 408 -26 465 -13 32 -38 77 -56 100 -59 78
-186 119 -296 96z"/>
<path d="M14629 3230 c-214 -34 -351 -159 -388 -357 l-8 -43 143 0 142 0 11
33 c13 40 64 91 106 107 17 7 57 12 91 12 102 1 153 -37 169 -124 8 -44 21
-39 -175 -68 -226 -34 -294 -61 -369 -146 -68 -78 -88 -191 -55 -305 21 -73
105 -157 183 -182 71 -23 184 -22 236 2 39 17 105 81 105 101 0 6 18 10 40 10
l40 0 0 -55 0 -55 146 0 145 0 -3 388 c-3 333 -6 394 -21 439 -35 105 -122
185 -241 222 -74 23 -219 33 -297 21z m269 -674 c-9 -111 -86 -176 -207 -176
-52 0 -66 4 -86 25 -37 36 -35 97 4 136 16 16 35 29 43 30 7 0 63 9 123 19 61
10 114 18 119 19 5 1 6 -23 4 -53z"/>
<path d="M15855 3229 c-40 -11 -81 -55 -98 -104 -12 -34 -19 -40 -45 -43 l-32
-3 0 60 0 61 -140 0 -140 0 0 -520 0 -520 130 0 130 0 0 363 c0 404 0 407 63
407 75 -1 77 -11 77 -421 l0 -349 125 0 125 0 0 349 c0 409 2 420 76 421 64 0
64 3 64 -403 l0 -367 130 0 131 0 -4 463 c-3 507 -4 513 -63 573 -80 79 -215
37 -254 -80 -9 -29 -16 -36 -38 -36 -24 0 -31 8 -54 60 -23 51 -33 63 -70 80
-47 21 -67 23 -113 9z"/>
<path d="M19393 3230 c-179 -32 -306 -143 -372 -324 -23 -64 -25 -85 -25 -221
0 -138 2 -156 27 -229 49 -141 123 -228 238 -281 145 -66 339 -59 481 17 90
48 194 172 223 266 l6 22 -142 0 -142 0 -42 -39 c-111 -102 -285 -71 -338 59
-8 19 -17 47 -21 63 l-6 27 336 0 337 0 -6 133 c-6 157 -27 235 -90 329 -51
77 -120 129 -202 157 -74 24 -191 33 -262 21z m182 -263 c43 -21 86 -73 100
-121 8 -27 13 -51 11 -53 -2 -2 -93 -2 -203 -1 l-200 3 13 46 c20 67 69 118
129 134 51 14 114 10 150 -8z"/>
<path d="M5267 3193 c-10 -9 -9 -51 1 -57 5 -3 54 -13 110 -23 93 -16 103 -16
118 -1 12 12 13 20 6 35 -8 15 -33 23 -109 36 -109 19 -117 20 -126 10z"/>
<path d="M11853 3186 c3 -7 72 -221 153 -475 l148 -461 111 0 c61 0 114 -3
117 -6 9 -8 -28 -130 -50 -167 -16 -28 -23 -32 -62 -32 -41 0 -47 3 -69 38
l-24 37 -129 0 -128 0 6 -27 c17 -78 41 -141 69 -177 94 -124 287 -162 442
-86 69 34 110 79 148 162 13 29 91 312 173 628 l149 575 -135 3 c-74 1 -136 1
-138 -1 -2 -1 -45 -167 -97 -367 l-93 -365 -34 0 -34 0 -81 265 c-45 146 -96
311 -114 368 l-32 102 -150 0 c-124 0 -150 -2 -146 -14z"/>
<path d="M16720 3070 l0 -130 150 0 150 0 0 -260 0 -260 -150 0 -150 0 0 -130
0 -130 450 0 450 0 0 130 0 130 -150 0 -150 0 0 390 0 390 -300 0 -300 0 0
-130z"/>
<path d="M5200 3049 c-10 -19 -4 -29 63 -96 78 -78 107 -89 131 -51 9 15 -1
30 -64 93 -79 79 -110 92 -130 54z"/>
<path d="M4929 3007 c-8 -8 -32 -50 -53 -94 -43 -90 -43 -116 1 -111 24 3 35
16 73 90 36 71 43 91 34 105 -15 23 -38 28 -55 10z"/>
<path d="M5074 2986 c-3 -9 0 -55 7 -102 14 -97 36 -136 66 -118 25 15 26 36
6 139 -17 86 -19 90 -46 93 -17 2 -29 -2 -33 -12z"/>
<path d="M351 2456 c-8 -10 -6 -35 9 -100 27 -111 28 -113 51 -119 24 -6 51
19 45 42 -2 9 -12 50 -21 91 -10 41 -22 81 -28 88 -13 16 -42 15 -56 -2z"/>
<path d="M607 2429 c-28 -39 -79 -168 -74 -184 8 -18 50 -20 65 -2 6 6 26 48
45 92 26 59 33 84 26 97 -13 24 -45 23 -62 -3z"/>
<path d="M136 2334 c-28 -27 -25 -32 91 -131 59 -51 96 -56 101 -13 2 21 -11
37 -78 93 -45 37 -85 67 -90 67 -5 0 -16 -7 -24 -16z"/>
<path d="M31 2101 c-20 -36 6 -50 117 -63 90 -10 104 -10 118 4 12 12 13 20 6
35 -9 16 -29 22 -106 31 -122 15 -124 15 -135 -7z"/>
<path d="M702 2048 c-17 -17 -15 -46 6 -57 9 -5 59 -14 110 -21 84 -12 95 -11
110 4 13 12 14 20 6 34 -10 16 -30 21 -185 46 -21 3 -40 1 -47 -6z"/>
<path d="M175 1917 c-89 -49 -106 -67 -86 -91 20 -23 32 -21 132 29 83 42 90
48 87 73 -5 42 -41 39 -133 -11z"/>
<path d="M642 1918 c-24 -24 -11 -47 61 -113 55 -50 78 -65 97 -63 48 6 36 39
-44 116 -75 73 -92 82 -114 60z"/>
<path d="M362 1858 c-20 -26 -82 -158 -82 -177 0 -24 25 -45 45 -37 8 3 36 48
62 100 40 80 45 97 34 110 -16 19 -45 21 -59 4z"/>
<path d="M504 1836 c-5 -13 17 -144 32 -198 7 -22 59 -25 67 -3 7 16 -20 171
-34 198 -12 21 -57 23 -65 3z"/>
<path d="M4628 1776 c-19 -19 -33 -203 -17 -223 18 -20 49 -15 58 10 5 12 10
62 12 111 4 81 2 89 -17 103 -19 12 -24 12 -36 -1z"/>
<path d="M4381 1712 c-8 -15 0 -37 41 -110 51 -92 76 -114 103 -92 22 18 19
27 -38 125 -56 94 -85 116 -106 77z"/>
<path d="M4805 1614 c-69 -79 -78 -106 -42 -128 16 -9 28 -1 83 59 72 79 87
111 59 132 -11 7 -22 13 -26 13 -4 0 -37 -34 -74 -76z"/>
<path d="M4995 1465 c-5 -2 -45 -11 -87 -20 -61 -13 -78 -20 -84 -37 -4 -13 0
-26 10 -36 15 -15 24 -15 112 3 103 21 129 39 108 73 -11 16 -38 25 -59 17z"/>
<path d="M4295 1277 c-77 -21 -80 -23 -80 -52 0 -39 27 -43 130 -16 91 23 112
39 96 70 -15 26 -41 26 -146 -2z"/>
<path d="M4835 1276 c-34 -24 -13 -49 75 -93 99 -49 133 -52 138 -10 3 26 -2
30 -75 63 -115 53 -119 54 -138 40z"/>
<path d="M4417 1106 c-31 -41 -60 -81 -63 -89 -6 -16 21 -47 41 -47 8 0 41 35
75 78 67 86 76 125 30 130 -21 2 -35 -10 -83 -72z"/>
<path d="M4741 1152 c-11 -21 0 -46 64 -147 40 -61 57 -74 80 -55 24 20 18 40
-39 130 -55 89 -85 109 -105 72z"/>
<path d="M4606 1121 c-4 -5 -9 -56 -12 -113 -6 -87 -4 -105 9 -116 28 -24 51
-10 59 33 11 66 9 180 -4 193 -14 14 -44 16 -52 3z"/>
<path d="M2458 756 c-61 -90 -67 -106 -43 -126 24 -20 41 -6 101 84 59 89 65
119 24 124 -21 2 -34 -10 -82 -82z"/>
<path d="M2017 783 c-18 -17 -2 -54 53 -120 59 -72 84 -85 108 -61 20 20 14
33 -50 112 -58 72 -89 91 -111 69z"/>
<path d="M2595 618 c-92 -35 -105 -44 -105 -68 0 -41 24 -42 122 -5 107 41
128 57 112 83 -17 26 -42 24 -129 -10z"/>
<path d="M1887 563 c-14 -13 -7 -52 11 -61 29 -16 180 -45 196 -39 18 7 22 52
5 63 -13 8 -166 43 -190 44 -9 0 -19 -3 -22 -7z"/>
<path d="M2513 429 c-16 -16 -17 -46 -2 -55 21 -13 191 -53 204 -47 17 6 26
29 19 48 -3 8 -38 24 -77 36 -97 29 -130 33 -144 18z"/>
<path d="M1996 351 c-90 -39 -111 -57 -100 -84 11 -29 35 -26 127 14 84 37
106 52 107 71 0 9 -30 38 -38 38 -4 -1 -47 -18 -96 -39z"/>
<path d="M2430 295 c-16 -19 -12 -27 54 -112 42 -54 63 -73 81 -73 15 0 26 7
30 21 7 21 4 26 -75 132 -37 48 -67 59 -90 32z"/>
<path d="M2158 263 c-35 -41 -109 -166 -106 -181 2 -10 15 -18 30 -20 24 -3
33 6 83 84 33 51 55 95 53 108 -4 27 -39 33 -60 9z"/>
<path d="M2297 243 c-4 -3 -7 -55 -7 -114 0 -101 1 -109 22 -120 18 -10 24 -8
39 10 15 18 17 36 13 114 -3 51 -7 98 -10 105 -4 13 -46 17 -57 5z"/>
</g>
</svg>
