<?xml version="1.0" standalone="no"?>
<!DOCTYPE svg PUBLIC "-//W3C//DTD SVG 20010904//EN"
 "http://www.w3.org/TR/2001/REC-SVG-20010904/DTD/svg10.dtd">
<svg version="1.0" xmlns="http://www.w3.org/2000/svg"
 width="2000.000000pt" height="333.000000pt" viewBox="0 0 2000.000000 333.000000"
 preserveAspectRatio="xMidYMid meet">
<metadata>
Created by potrace 1.16, written by Peter Selinger 2001-2019
</metadata>
<g transform="translate(0.000000,333.000000) scale(0.100000,-0.100000)"
fill="#000000" stroke="none">
<path d="M4640 3310 c-111 -21 -210 -109 -210 -186 0 -14 17 -65 39 -113 49
-110 68 -173 87 -291 17 -114 31 -434 18 -429 -5 2 -33 17 -61 32 -75 39 -154
57 -253 57 -274 0 -509 -174 -655 -483 -84 -176 -119 -378 -97 -552 33 -265
173 -407 412 -422 221 -14 400 91 568 330 l40 57 7 -77 c21 -222 86 -296 261
-296 97 0 157 24 204 81 47 58 74 164 54 216 -3 8 -35 25 -71 37 -120 40 -183
131 -183 266 0 29 18 195 40 370 52 419 60 519 60 764 0 462 -47 622 -190 641
-19 3 -51 2 -70 -2z m-297 -1340 c62 -19 217 -112 217 -129 0 -15 -71 -186
-101 -241 -98 -184 -269 -307 -414 -298 -107 7 -185 63 -234 167 -22 48 -26
69 -26 151 0 86 3 101 33 162 35 72 103 142 169 174 98 47 231 52 356 14z"/>
<path d="M1065 3190 c-293 -46 -571 -217 -761 -469 -81 -108 -184 -315 -223
-448 -81 -276 -82 -608 -3 -829 45 -130 96 -210 192 -306 73 -72 102 -93 181
-131 119 -57 196 -76 335 -84 410 -22 831 222 885 512 9 47 7 61 -10 100 -19
43 -22 45 -61 45 -51 0 -65 -7 -154 -82 -79 -66 -215 -137 -316 -164 -80 -22
-253 -24 -330 -5 -139 34 -264 121 -346 242 -95 140 -130 277 -121 479 10 234
79 402 227 550 123 122 238 177 422 200 161 20 294 -6 432 -85 89 -50 126 -56
184 -26 148 76 200 293 94 394 -35 33 -112 71 -187 92 -71 20 -347 29 -440 15z"/>
<path d="M7510 3194 c-14 -2 -59 -9 -100 -15 -199 -30 -429 -120 -521 -206
-61 -56 -87 -108 -95 -191 -12 -111 25 -161 97 -132 16 7 32 10 35 7 11 -11
23 -152 24 -277 0 -209 -20 -430 -86 -915 -20 -149 -15 -282 13 -345 24 -54
97 -124 156 -149 149 -64 445 -66 685 -5 187 47 410 178 532 311 249 272 370
654 339 1069 -27 357 -177 613 -439 749 -141 72 -250 97 -450 100 -91 2 -176
2 -190 -1z m375 -428 c113 -39 180 -80 256 -157 122 -123 179 -281 179 -499 0
-147 -21 -244 -76 -357 -103 -210 -302 -354 -573 -414 -97 -21 -272 -25 -336
-8 -50 14 -100 51 -120 88 -45 87 -39 307 20 776 19 154 38 342 42 418 l6 137
36 10 c110 29 203 39 341 36 127 -2 155 -6 225 -30z"/>
<path d="M16979 3127 c-100 -28 -169 -122 -169 -231 0 -138 81 -215 226 -216
86 0 143 26 191 88 60 79 67 217 13 291 -43 61 -169 94 -261 68z"/>
<path d="M17995 2606 c-71 -33 -190 -130 -267 -219 -142 -162 -205 -290 -179
-359 13 -34 60 -44 148 -31 44 6 63 6 63 -2 0 -6 -13 -111 -30 -233 -44 -330
-38 -496 25 -638 34 -78 105 -149 174 -175 118 -45 293 -34 411 26 107 54 159
126 160 221 0 75 -14 84 -148 95 -256 20 -342 108 -342 346 0 83 27 274 51
366 10 37 10 37 63 37 30 0 105 -9 167 -20 160 -28 172 -27 206 15 44 53 68
128 68 213 0 70 -1 75 -32 102 -21 19 -48 31 -80 36 -42 6 -210 -7 -284 -22
l-26 -6 9 59 c14 83 4 160 -23 189 -29 31 -69 31 -134 0z"/>
<path d="M2458 2370 c-165 -28 -385 -140 -471 -241 -41 -48 -62 -120 -54 -188
11 -94 46 -127 109 -103 15 5 28 9 28 8 0 -2 -14 -33 -30 -70 -54 -118 -73
-222 -68 -371 4 -102 10 -142 27 -186 81 -209 273 -313 551 -296 303 19 560
221 661 521 53 157 63 375 24 521 -56 212 -209 355 -427 399 -81 17 -267 20
-350 6z m264 -371 c129 -27 232 -105 262 -197 20 -60 23 -178 6 -242 -46 -174
-237 -297 -432 -276 -119 12 -236 90 -276 185 -27 62 -37 161 -23 236 11 62
74 203 107 242 42 49 235 77 356 52z"/>
<path d="M5965 2374 c-11 -2 -45 -9 -75 -15 -203 -41 -421 -220 -527 -434 -70
-140 -97 -259 -96 -430 0 -200 41 -315 150 -424 79 -77 146 -112 255 -135 146
-30 291 -18 437 37 98 37 170 82 257 161 129 117 171 220 111 272 -41 35 -76
31 -151 -20 -136 -94 -236 -128 -376 -128 -130 -1 -193 23 -276 106 -60 60
-82 104 -97 191 l-6 31 60 -29 c120 -57 315 -71 464 -32 158 42 318 163 379
287 54 110 58 252 11 351 -64 136 -233 219 -435 216 -36 -1 -74 -3 -85 -5z
m122 -353 c26 -13 46 -33 58 -56 34 -73 -3 -143 -103 -192 -52 -26 -66 -28
-172 -28 -116 0 -202 17 -243 48 -18 12 -18 16 -4 50 35 82 146 172 244 197
59 15 174 5 220 -19z"/>
<path d="M10703 2370 c-101 -15 -217 -113 -243 -205 -19 -69 -7 -93 67 -129
34 -17 70 -39 81 -49 58 -53 88 -221 78 -432 -7 -151 -15 -207 -57 -407 -17
-81 -29 -158 -25 -171 8 -32 45 -47 120 -47 157 0 256 117 256 303 0 84 35
196 116 365 62 132 119 216 198 290 68 64 129 93 212 100 129 10 194 -57 181
-187 -4 -33 -25 -137 -47 -232 -66 -276 -57 -423 33 -541 61 -80 183 -115 298
-88 99 24 187 149 177 252 -3 29 -10 37 -63 65 -174 92 -202 209 -119 503 64
229 51 377 -46 499 -60 75 -146 114 -265 119 -173 8 -275 -32 -410 -160 -111
-104 -195 -232 -282 -427 -19 -42 -32 -65 -30 -51 26 126 39 256 36 359 -4
105 -7 121 -34 176 -43 85 -110 112 -232 95z"/>
<path d="M13090 2360 c-107 -23 -156 -41 -248 -90 -293 -158 -490 -465 -509
-795 -20 -330 139 -534 427 -552 104 -6 209 14 297 57 75 37 206 157 261 239
l38 57 12 -73 c6 -40 21 -95 33 -123 25 -59 90 -122 145 -141 59 -21 171 -16
220 9 75 38 124 128 124 228 0 53 -1 55 -37 70 -128 55 -142 63 -168 107 -43
74 -58 171 -51 327 4 74 9 150 12 168 6 30 9 32 49 32 69 0 103 58 111 194 5
71 3 86 -18 126 -60 115 -240 181 -491 179 -78 0 -152 -7 -207 -19z m175 -360
c22 -6 60 -18 83 -27 l44 -15 -7 -62 c-31 -268 -156 -491 -321 -572 -52 -26
-69 -29 -154 -29 -112 0 -155 18 -214 87 -76 89 -89 254 -29 381 57 119 175
210 317 243 67 15 212 12 281 -6z"/>
<path d="M14283 2370 c-101 -15 -217 -113 -243 -205 -19 -70 -7 -94 67 -130
33 -16 70 -38 81 -48 58 -53 88 -221 78 -432 -7 -151 -15 -207 -57 -407 -17
-81 -29 -158 -25 -171 8 -32 45 -47 120 -47 150 0 256 118 256 284 0 98 127
428 216 561 91 139 178 205 266 205 116 0 154 -136 128 -450 -6 -80 -25 -225
-41 -323 -37 -228 -37 -242 1 -262 40 -21 135 -19 186 4 57 26 111 93 136 171
17 54 21 93 22 236 l2 171 42 88 c113 234 240 357 385 372 66 7 119 -14 147
-59 19 -29 21 -44 16 -118 -3 -47 -18 -141 -35 -210 -77 -318 -58 -501 65
-608 93 -82 247 -84 335 -5 51 46 79 101 86 169 7 63 -3 79 -62 104 -101 43
-146 113 -153 237 -4 71 1 103 38 254 39 159 42 182 38 270 -4 81 -10 107 -35
162 -62 131 -149 188 -299 195 -155 7 -265 -37 -380 -152 -73 -74 -136 -159
-191 -261 l-33 -60 0 75 c-1 186 -68 314 -195 372 -70 32 -215 32 -295 0 -151
-59 -280 -220 -391 -488 -22 -55 -38 -85 -36 -69 23 136 29 210 26 307 -4 102
-7 119 -34 173 -43 85 -110 112 -232 95z"/>
<path d="M16979 2369 c-161 -25 -309 -185 -258 -280 6 -11 42 -40 80 -65 89
-58 102 -83 107 -204 4 -101 -11 -193 -64 -380 -19 -67 -28 -128 -31 -210 -6
-141 5 -190 56 -241 47 -47 103 -63 198 -56 126 9 225 83 260 194 21 68 14 82
-66 135 -98 65 -106 80 -105 196 0 64 12 156 33 267 52 280 52 460 -2 564 -36
71 -103 97 -208 80z"/>
<path d="M19385 2365 c-88 -17 -143 -37 -220 -80 -182 -103 -325 -282 -393
-495 -66 -204 -56 -454 24 -611 33 -67 125 -159 190 -192 97 -49 159 -62 304
-61 110 0 150 4 213 22 142 41 258 113 367 229 81 85 107 139 94 191 -18 72
-95 80 -175 18 -86 -65 -191 -108 -310 -127 -184 -28 -361 63 -418 217 -24 63
-28 109 -8 101 92 -41 148 -59 213 -68 281 -40 563 90 671 308 33 67 38 86 41
167 3 75 0 101 -18 148 -71 189 -305 284 -575 233z m160 -341 c65 -31 92 -102
61 -162 -20 -39 -54 -68 -111 -94 -43 -20 -66 -23 -165 -23 -94 0 -127 4 -182
23 -37 13 -70 28 -73 32 -9 14 31 86 72 131 43 47 109 88 172 106 59 17 178
10 226 -13z"/>
<path d="M8925 2358 c-57 -16 -137 -99 -155 -162 -17 -63 -18 -159 -2 -179 8
-9 33 -19 57 -22 85 -13 139 -67 202 -205 62 -135 134 -428 158 -642 13 -121
96 -218 199 -233 57 -9 150 17 216 61 27 18 50 31 50 28 0 -3 -28 -51 -61
-107 -188 -312 -384 -507 -512 -507 -61 0 -100 23 -151 89 l-47 61 -55 0 c-30
0 -69 -6 -87 -14 -43 -17 -101 -85 -115 -135 -15 -49 -15 -133 0 -182 27 -91
145 -174 270 -189 316 -37 606 186 899 695 220 383 417 920 476 1300 25 165
-2 293 -71 337 -95 59 -346 -41 -398 -159 -26 -59 -18 -90 44 -166 81 -100 83
-107 83 -238 0 -114 0 -116 -39 -195 -77 -155 -220 -265 -356 -272 -99 -5 -98
-6 -121 193 -36 323 -83 529 -155 681 -42 90 -66 120 -116 145 -48 24 -156 33
-213 17z"/>
</g>
</svg>
