<svg height="50" viewBox="0 0 50 50" width="50" xmlns="http://www.w3.org/2000/svg"><g fill="none" fill-rule="evenodd"><rect fill="#ffedeb" fill-rule="nonzero" height="50" rx="5" width="50"/><g stroke-linecap="round" stroke-linejoin="round" stroke-width="2" transform="translate(15 11)"><path d="m11.2 0h-8c-1.767312 0-3.2 1.42033724-3.2 3.17241379v16.65517241c0 1.7521241 1.432688 3.1724138 3.2 3.1724138h.8m7.2-23v5.55172414c0 1.75207655 1.43264 3.17241379 3.2 3.17241379h5.6m-8.8-8.72413793 8.8 8.72413793m0 0v11.10344827c0 1.7521241-1.43264 3.1724138-3.2 3.1724138h-.8" stroke="#fe6f62"/><g stroke="#fd9385"><path d="m10 15.275862v12"/><path d="m6.4 15.0344828 3.6 3.9655172 3.6-3.9655172" transform="matrix(-1 0 0 -1 20 34.034482)"/></g></g></g></svg>