<!DOCTYPE svg PUBLIC "-//W3C//DTD SVG 1.1//EN" "http://www.w3.org/Graphics/SVG/1.1/DTD/svg11.dtd">
<!-- Uploaded to: SVG Repo, www.svgrepo.com, Transformed by: SVG Repo Mixer Tools -->
<svg fill="#ffffff" height="800px" width="800px" version="1.2" baseProfile="tiny" id="Layer_1" xmlns="http://www.w3.org/2000/svg" xmlns:xlink="http://www.w3.org/1999/xlink" viewBox="0 0 256 256" xml:space="preserve">
<g id="SVGRepo_bgCarrier" stroke-width="0"/>
<g id="SVGRepo_tracerCarrier" stroke-linecap="round" stroke-linejoin="round"/>
<g id="SVGRepo_iconCarrier"> <path id="XMLID_2_" d="M172.1,100.4c-2.6-8.3,2-17.2,10.3-19.8c8.3-2.6,17.2,2,19.8,10.3c2.6,8.3-2,17.2-10.3,19.8 C183.6,113.4,174.8,108.8,172.1,100.4z M11,110.7c8.3,2.6,17.2-2,19.8-10.3c2.6-8.3-2-17.2-10.3-19.8c-8.3-2.6-17.2,2-19.8,10.3 C-1.9,99.2,2.7,108.1,11,110.7z M255.3,126.2c0.4,1.3,0.6,2.7,0.6,4.1l-4,39c-0.8,7.4-4.7,12.3-11.9,14.5L198.4,197 c0,0-9.8,31-9.9,31c-1.3,4.5-5.4,7.8-10.4,7.8c-6,0-10.9-4.9-10.9-10.9c0-1.9,1.4-5.3,1.4-5.3c0.2-0.7,8.7-24.2,12.2-33.9 l-35.4,11.2c0,0-9.8,31-9.9,31c-1.3,4.5-5.4,7.8-10.4,7.8c-6,0-10.9-4.9-10.9-10.9c0-1.9,1.4-5.3,1.4-5.3c0.2-0.9,13.6-38,13.6-38 c1.2-2.3,3.2-3.9,6-4.8l30.4-9.6c0,0,0.9-22.7,0.9-23.1l-22.1,0l-20.6,6.5c-4.4,1.4-9.2-1.1-10.6-5.5c-0.1-0.3-0.2-0.7-0.2-1H89.7 c-0.1,0.3-0.1,0.7-0.2,1c-1.4,4.4-6.1,6.9-10.6,5.5L36.2,137l0.9,30.1l30.4,9.6c2.8,0.9,4.8,2.5,6,4.8c0,0,13.4,37.1,13.6,38 c0,0,1.4,3.4,1.4,5.3c0,6-4.9,10.9-10.9,10.9c-4.9,0-9-3.3-10.4-7.8c0-0.1-9.9-31-9.9-31l-41.5-13.1c-7.2-2.3-11.2-7.1-11.9-14.5 l-4-39c0-1.4,0.2-2.8,0.6-4.1c1.4-4.6,4.3-7.9,8.6-10c4.3-2.1,8.7-2.4,13.3-1L84,134.7c2.2,0.7,3.8,2.3,4.8,4.3h25.4 c1-2,2.7-3.6,4.8-4.3l61.6-19.7c4.6-1.4,9-1.1,13.3,1c3.9,2,6.6,5,8.2,9l31.4-9.9c4.6-1.4,9-1.1,13.3,1 C251,118.3,253.8,121.6,255.3,126.2z M219.7,137.1l-17.9,5.7l0,0l-23.1,7l1.2,3.8l21.6-6.5l-2.3,22.1c-0.2,1.7-0.5,3.2-1,4.6 l20.8-6.6L219.7,137.1z M244.8,110.9c8.3-2.6,12.9-11.5,10.3-19.8c-2.6-8.3-11.5-12.9-19.8-10.3c-8.3,2.6-12.9,11.5-10.3,19.8 C227.6,108.9,236.5,113.5,244.8,110.9z"/> </g>
</svg>