<?xml version="1.0" encoding="iso-8859-1"?>
<!-- Uploaded to: SVG Repo, www.svgrepo.com, Generator: SVG Repo Mixer Tools -->
<svg height="800px" width="800px" version="1.1" id="Layer_1" xmlns="http://www.w3.org/2000/svg" xmlns:xlink="http://www.w3.org/1999/xlink" 
	 viewBox="0 0 511.6 511.6" xml:space="preserve">
<path style="fill:#FC6E51;" d="M349.274,148.071C284.215,78.845,308.353,0,308.353,0c-99.126,28.321-139.422,79.141-139.422,165.137
	c-9.898-6.792-35.098-17.222-35.098-17.222C77.627,277.283,187.369,357.97,267.557,359.61c1.045,0.016,2.107,0.031,3.169,0.031
	C338.75,359.641,455.769,261.389,349.274,148.071z"/>
<path style="fill:#FFCE54;" d="M341.936,208.243c-58.813-20.234-79.095-97.985-79.095-97.985
	c-49.383,40.874-61.639,83.091-42.17,139.922c-7.807-0.922-13.755-0.969-13.755-0.969L341.936,208.243z"/>
<path style="fill:#8CC153;" d="M415.566,351.834c0,88.229-71.538,159.766-159.766,159.766c-88.243,0-159.766-71.537-159.766-159.766
	c0-88.243,71.522-159.766,159.766-159.766C344.028,192.069,415.566,263.591,415.566,351.834z"/>
<path style="fill:#A0D468;" d="M415.566,330.523c0,88.244-71.538,159.766-159.766,159.766c-88.243,0-159.766-71.521-159.766-159.766
	c0-88.228,71.522-159.766,159.766-159.766C344.028,170.757,415.566,242.295,415.566,330.523z"/>
<g>
	<path style="fill:#8CC153;" d="M255.8,181.421c-5.886,0-10.647,4.762-10.647,10.647s4.762,10.648,10.647,10.648
		c5.87,0,10.647-4.763,10.647-10.648S261.67,181.421,255.8,181.421z"/>
	<path style="fill:#8CC153;" d="M255.8,458.345c-5.886,0-10.647,4.762-10.647,10.647c0,5.887,4.762,10.648,10.647,10.648
		c5.87,0,10.647-4.762,10.647-10.648C266.447,463.107,261.67,458.345,255.8,458.345z"/>
	<path style="fill:#8CC153;" d="M181.234,201.39c-5.09,2.95-6.839,9.461-3.888,14.551c2.936,5.09,9.445,6.839,14.551,3.903
		c5.09-2.951,6.839-9.462,3.888-14.551C192.849,200.188,186.339,198.454,181.234,201.39z"/>
	<path style="fill:#8CC153;" d="M319.703,441.218c-5.09,2.935-6.839,9.461-3.903,14.551c2.95,5.09,9.462,6.839,14.551,3.903
		c5.09-2.951,6.839-9.462,3.903-14.551C331.303,440.016,324.793,438.282,319.703,441.218z"/>
	<path style="fill:#8CC153;" d="M141.202,252.069c-5.09-2.936-11.601-1.187-14.552,3.903c-2.935,5.09-1.187,11.601,3.903,14.551
		c5.09,2.936,11.616,1.187,14.552-3.903C148.04,261.529,146.308,255.02,141.202,252.069z"/>
	<path style="fill:#8CC153;" d="M381.029,390.538c-5.089-2.95-11.6-1.202-14.551,3.903c-2.936,5.09-1.186,11.601,3.903,14.535
		c5.09,2.951,11.616,1.202,14.552-3.887C387.868,400,386.135,393.474,381.029,390.538z"/>
	<path style="fill:#8CC153;" d="M117.33,319.875c-5.886,0-10.648,4.777-10.648,10.647c0,5.886,4.763,10.664,10.648,10.664
		s10.647-4.778,10.647-10.664C127.978,324.653,123.216,319.875,117.33,319.875z"/>
	<path style="fill:#8CC153;" d="M394.254,319.875c-5.87,0-10.648,4.777-10.648,10.647c0,5.886,4.778,10.664,10.648,10.664
		c5.887,0,10.648-4.778,10.648-10.664C404.918,324.653,400.141,319.875,394.254,319.875z"/>
	<path style="fill:#8CC153;" d="M130.554,390.538c-5.09,2.936-6.838,9.446-3.903,14.552c2.951,5.089,9.462,6.838,14.552,3.902
		c5.105-2.95,6.838-9.461,3.903-14.551C142.17,389.336,135.644,387.588,130.554,390.538z"/>
	<path style="fill:#8CC153;" d="M381.029,270.523c5.105-2.95,6.839-9.461,3.904-14.551c-2.936-5.09-9.462-6.839-14.552-3.903
		c-5.089,2.951-6.839,9.461-3.903,14.551C369.43,271.709,375.941,273.458,381.029,270.523z"/>
	<path style="fill:#8CC153;" d="M191.881,441.218c-5.09-2.936-11.6-1.202-14.535,3.903c-2.951,5.089-1.202,11.6,3.888,14.551
		c5.105,2.936,11.615,1.187,14.551-3.903C198.736,450.679,196.987,444.153,191.881,441.218z"/>
	<path style="fill:#8CC153;" d="M319.703,219.844c5.09,2.936,11.6,1.187,14.551-3.903c2.936-5.09,1.187-11.601-3.903-14.551
		c-5.089-2.936-11.601-1.202-14.551,3.903C312.864,210.382,314.613,216.893,319.703,219.844z"/>
</g>
<path style="fill:#434A54;" d="M323.574,383.247l-57.127-57.127v-80.797c0-5.886-4.777-10.647-10.647-10.647
	c-5.886,0-10.647,4.762-10.647,10.647v85.199c0,2.951,1.187,5.621,3.122,7.541l60.233,60.25c2.093,2.076,4.81,3.122,7.541,3.122
	c2.717,0,5.449-1.046,7.525-3.122C327.744,394.145,327.744,387.416,323.574,383.247z"/>
</svg>