<!DOCTYPE svg PUBLIC "-//W3C//DTD SVG 1.1//EN" "http://www.w3.org/Graphics/SVG/1.1/DTD/svg11.dtd">
<!-- Uploaded to: SVG Repo, www.svgrepo.com, Transformed by: SVG Repo Mixer Tools -->
<svg fill="#ffffff" width="800px" height="800px" viewBox="0 0 32 32" enable-background="new 0 0 32 32" id="Layer_3" version="1.1" xml:space="preserve" xmlns="http://www.w3.org/2000/svg" xmlns:xlink="http://www.w3.org/1999/xlink">
<g id="SVGRepo_bgCarrier" stroke-width="0"/>
<g id="SVGRepo_tracerCarrier" stroke-linecap="round" stroke-linejoin="round"/>
<g id="SVGRepo_iconCarrier"> <g> <path d="M29,12h-7V7c0-0.553-0.448-1-1-1H11c-0.552,0-1,0.447-1,1v7H3c-0.552,0-1,0.447-1,1v10c0,0.553,0.448,1,1,1h26 c0.552,0,1-0.447,1-1V13C30,12.447,29.552,12,29,12z M28,24H4v-8h7c0.552,0,1-0.447,1-1V8h8v5c0,0.553,0.448,1,1,1h7V24z"/> <path d="M16,9c-0.552,0-1,0.447-1,1v2c0,0.553,0.448,1,1,1s1-0.447,1-1v-2C17,9.447,16.552,9,16,9z"/> <path d="M10,18c-0.552,0-1,0.447-1,1c0-0.553-0.448-1-1-1s-1,0.447-1,1c0-0.553-0.448-1-1-1s-1,0.447-1,1v2c0,0.553,0.448,1,1,1 s1-0.447,1-1c0,0.553,0.448,1,1,1s1-0.447,1-1c0,0.553,0.448,1,1,1s1-0.447,1-1v-2C11,18.447,10.552,18,10,18z"/> <path d="M23,22c0.552,0,1-0.447,1-1c0,0.553,0.448,1,1,1s1-0.447,1-1v-2c0-0.553-0.448-1-1-1s-1,0.447-1,1c0-0.553-0.448-1-1-1 s-1,0.447-1,1v2C22,21.553,22.448,22,23,22z"/> </g> </g>
</svg>