<?xml version="1.0" encoding="iso-8859-1"?>
<!-- Uploaded to: SVG Repo, www.svgrepo.com, Generator: SVG Repo Mixer Tools -->
<svg xmlns="http://www.w3.org/2000/svg" xmlns:xlink="http://www.w3.org/1999/xlink" version="1.1" id="Capa_1"  viewBox="0 0 455 455" xml:space="preserve" width="512" height="512">
<g>
	<path style="fill:#FFFFFF;" d="M256.233,13.25c-11.996,0-22.557,6.129-28.733,15.423c-6.177-9.294-16.737-15.423-28.733-15.423H30   v321.535h168.767c11.99,0,22.555,6.122,28.733,15.409c6.177-9.289,16.742-15.409,28.733-15.409H425V13.25H256.233z"/>
	<path style="fill:#C1E8E6;" d="M227.5,350.193v30c-6.18-9.29-16.74-15.41-28.73-15.41H30v-30h168.77   C210.76,334.783,221.32,340.903,227.5,350.193z"/>
	<path style="fill:#C1E8E6;" d="M425,334.783v30H256.23c-11.99,0-22.55,6.12-28.73,15.41v-30c6.18-9.29,16.74-15.41,28.73-15.41H425   z"/>
	<path style="fill:#98D9D5;" d="M425,73.253v291.53H256.23c-11.99,0-22.55,6.12-28.73,15.41c-6.18-9.29-16.74-15.41-28.73-15.41H30   V73.253H0v321.53h198.77c2.17,0,3.35,1.42,3.75,2.03l8.91,10.38h32.15l8.9-10.39c0.4-0.6,1.58-2.02,3.75-2.02H455V73.253H425z"/>
	<path style="fill:#98D9D5;" d="M425,73.254l-197.5,20l-197.5-20H0v321.53h198.77c2.17,0,3.35,1.42,3.75,2.03l8.91,10.38h32.15   l8.9-10.39c0.4-0.6,1.58-2.02,3.75-2.02H455V73.254H425z"/>
	<path style="fill:#C1E8E6;" d="M30,334.784v30h168.77c11.99,0,22.55,6.12,28.73,15.41l10-70L30,334.784z"/>
	<path style="fill:#6DA8D6;" d="M227.5,310.195v70c6.18-9.29,16.74-15.41,28.73-15.41H425v-30L227.5,310.195z"/>
	<rect x="341.25" y="43.254" style="fill:#F2EBD9;" width="53.75" height="55.76"/>
	<rect x="257.5" y="43.254" style="fill:#F2EBD9;" width="53.75" height="55.76"/>
	<rect x="341.25" y="189.014" style="fill:#F2EBD9;" width="53.75" height="55.77"/>
	<rect x="257.5" y="189.014" style="fill:#F2EBD9;" width="53.75" height="55.77"/>
	<rect x="143.75" y="189.014" style="fill:#F2EBD9;" width="53.75" height="55.77"/>
	<rect x="60" y="189.014" style="fill:#F2EBD9;" width="53.75" height="55.77"/>
	<rect x="143.75" y="43.254" style="fill:#F2EBD9;" width="53.75" height="55.76"/>
	<rect x="60" y="43.254" style="fill:#F2EBD9;" width="53.75" height="55.76"/>
	<path style="fill:#F2EBD9;" d="M198.767,13.252H30v321.535h168.767c11.99,0,22.555,6.122,28.733,15.409l20-160.76l-20-160.76   C221.323,19.381,210.763,13.252,198.767,13.252z"/>
	<path style="fill:#FFFFFF;" d="M256.233,13.252c-11.996,0-22.557,6.129-28.733,15.423v321.52   c6.177-9.289,16.742-15.409,28.733-15.409H425V13.252H256.233z"/>
	<path style="fill:#6DA8D6;" d="M184.965,287.285h-12.5V261.39c0-4.142-3.357-7.5-7.5-7.5s-7.5,3.358-7.5,7.5v25.895H140.81V231.39   c0-4.142-3.357-7.5-7.5-7.5s-7.5,3.358-7.5,7.5v55.895h-16.654V261.39c0-4.142-3.357-7.5-7.5-7.5s-7.5,3.358-7.5,7.5v25.895H77.5   V231.39c0-4.142-3.357-7.5-7.5-7.5s-7.5,3.358-7.5,7.5v63.395c0,4.142,3.357,7.5,7.5,7.5h114.965c4.143,0,7.5-3.358,7.5-7.5   S189.107,287.285,184.965,287.285z"/>
	<path style="fill:#6DA8D6;" d="M70,60.75h114.965c4.143,0,7.5-3.358,7.5-7.5s-3.357-7.5-7.5-7.5H70c-4.143,0-7.5,3.358-7.5,7.5   S65.857,60.75,70,60.75z"/>
	<path style="fill:#6DA8D6;" d="M184.965,81.378H70c-4.143,0-7.5,3.358-7.5,7.5s3.357,7.5,7.5,7.5h114.965   c4.143,0,7.5-3.358,7.5-7.5S189.107,81.378,184.965,81.378z"/>
	<path style="fill:#6DA8D6;" d="M70,132.006h57.482c4.143,0,7.5-3.358,7.5-7.5s-3.357-7.5-7.5-7.5H70c-4.143,0-7.5,3.358-7.5,7.5   S65.857,132.006,70,132.006z"/>
	<path style="fill:#6DA8D6;" d="M184.965,152.634H70c-4.143,0-7.5,3.358-7.5,7.5s3.357,7.5,7.5,7.5h114.965   c4.143,0,7.5-3.358,7.5-7.5S189.107,152.634,184.965,152.634z"/>
	<path style="fill:#6DA8D6;" d="M184.965,188.262H70c-4.143,0-7.5,3.358-7.5,7.5s3.357,7.5,7.5,7.5h114.965   c4.143,0,7.5-3.358,7.5-7.5S189.107,188.262,184.965,188.262z"/>
	<path style="fill:#F2484B;" d="M306.25,429.75v-21l20-10l20,10v21c0,6.6-5.396,12-11.996,12h-16   C311.654,441.75,306.25,436.35,306.25,429.75z"/>
	<polygon style="fill:#C1E8E6;" points="306.25,378.75 326.25,368.75 346.25,378.75 346.25,408.75 306.25,408.75  "/>
	<polygon style="fill:#F2EBD9;" points="326.25,63.25 346.25,111.25 326.25,121.25 306.25,111.25  "/>
	<rect x="306.25" y="111.25" style="fill:#FFCC75;" width="40" height="267.5"/>
</g>















</svg>